<svg xmlns="http://www.w3.org/2000/svg" xmlns:xlink="http://www.w3.org/1999/xlink" width="35" height="35" viewBox="0 0 35 35">
  <defs>
    <clipPath id="clip-path">
      <rect id="Rectangle_144" data-name="Rectangle 144" width="35" height="35" transform="translate(1236 746)" fill="#003cff" stroke="#707070" stroke-width="1"/>
    </clipPath>
  </defs>
  <g id="Mask_Group_48" data-name="Mask Group 48" transform="translate(-1236 -746)" clip-path="url(#clip-path)">
    <path id="_1383970_1_" data-name="1383970 (1)" d="M34.593,12.338a2.925,2.925,0,0,0-2.514-1.37h-2.6V6.192A2.132,2.132,0,0,0,27.307,4.1H14.562a.071.071,0,0,1-.036-.009L12.245.9A2.191,2.191,0,0,0,10.46,0H2.168A2.132,2.132,0,0,0,0,2.09V25a2.184,2.184,0,0,0,2.221,2.14h25.8a1.025,1.025,0,0,0,.917-.569h0l5.781-11.61a2.682,2.682,0,0,0-.123-2.624ZM2.168,2.051H10.46a.148.148,0,0,1,.116.045l2.284,3.195a2.089,2.089,0,0,0,1.7.862H27.307a.147.147,0,0,1,.117.046v4.77H8.866A2.933,2.933,0,0,0,6.2,12.621L2.051,21.5V2.1a.147.147,0,0,1,.117-.046Zm30.712,12-5.5,11.042H2.636l5.421-11.6a.889.889,0,0,1,.809-.47H32.078a.889.889,0,0,1,.771.4.622.622,0,0,1,.031.63Zm0,0" transform="translate(1236 749.93)" fill="#003cff"/>
  </g>
</svg>
