<svg xmlns="http://www.w3.org/2000/svg" xmlns:xlink="http://www.w3.org/1999/xlink" width="35" height="35" viewBox="0 0 35 35">
  <defs>
    <clipPath id="clip-path">
      <rect id="Rectangle_143" data-name="Rectangle 143" width="35" height="35" transform="translate(880 746)" fill="#fff" stroke="#707070" stroke-width="1"/>
    </clipPath>
  </defs>
  <g id="Mask_Group_47" data-name="Mask Group 47" transform="translate(-880 -746)" clip-path="url(#clip-path)">
    <g id="_197484_4_" data-name="197484 (4)" transform="translate(880 746)">
      <circle id="Ellipse_42" data-name="Ellipse 42" cx="17.5" cy="17.5" r="17.5" fill="#f0f0f0"/>
      <g id="Group_242" data-name="Group 242">
        <path id="Path_389" data-name="Path 389" d="M16.739,17.5H35a17.519,17.519,0,0,0-.6-4.565H16.739Z" fill="#d80027"/>
        <path id="Path_390" data-name="Path 390" d="M16.739,8.37H32.431A17.592,17.592,0,0,0,28.393,3.8H16.739Z" fill="#d80027"/>
        <path id="Path_391" data-name="Path 391" d="M17.5,35a17.425,17.425,0,0,0,10.893-3.8H6.607A17.425,17.425,0,0,0,17.5,35Z" fill="#d80027"/>
        <path id="Path_392" data-name="Path 392" d="M2.569,26.63H32.431A17.4,17.4,0,0,0,34.4,22.065H.6A17.4,17.4,0,0,0,2.569,26.63Z" fill="#d80027"/>
      </g>
      <path id="Path_393" data-name="Path 393" d="M8.106,2.733H9.7L8.218,3.811l.567,1.744L7.3,4.477,5.818,5.554l.489-1.506A17.6,17.6,0,0,0,2.913,7.831h.511l-.944.686q-.221.368-.423.748l.451,1.388-.841-.611q-.314.665-.572,1.359l.5,1.529H3.424L1.941,14.006l.567,1.744L1.024,14.672l-.889.646A17.669,17.669,0,0,0,0,17.5H17.5V0A17.417,17.417,0,0,0,8.106,2.733ZM8.784,15.75,7.3,14.672,5.818,15.75l.567-1.744L4.9,12.929H6.734L7.3,11.185l.567,1.744H9.7L8.218,14.006ZM8.218,8.908l.567,1.744L7.3,9.574,5.818,10.652l.567-1.744L4.9,7.831H6.734L7.3,6.087l.567,1.744H9.7Zm6.844,6.842-1.483-1.078L12.095,15.75l.567-1.744-1.483-1.078h1.834l.567-1.744.567,1.744h1.834l-1.483,1.078Zm-.567-6.842.567,1.744L13.578,9.574l-1.483,1.078.567-1.744L11.178,7.831h1.834l.567-1.744.567,1.744h1.834Zm0-5.1.567,1.744L13.578,4.477,12.095,5.554l.567-1.744L11.178,2.733h1.834L13.578.989l.567,1.744h1.834Z" fill="#0052b4"/>
    </g>
  </g>
</svg>
