<svg xmlns="http://www.w3.org/2000/svg" width="35.3" height="29.095" viewBox="0 0 35.3 29.095">
  <g id="_1061544_1_" data-name="1061544 (1)" transform="translate(0.15 -45.32)">
    <g id="Group_244" data-name="Group 244" transform="translate(0 45.484)">
      <g id="Group_243" data-name="Group 243">
        <path id="Path_394" data-name="Path 394" d="M31.507,58.907a3.446,3.446,0,0,0-3.03-3.416V46.665a1.179,1.179,0,0,0-2.2-.593,14.128,14.128,0,0,1-8.728,6.516,18.549,18.549,0,0,1-5.444.72.683.683,0,0,0-.107,0H5.72a5.72,5.72,0,0,0-.543,11.414l1.894,7.788A2.287,2.287,0,0,0,9.3,74.266h1.314a2.293,2.293,0,0,0,2.228-2.835l-1.624-6.677H12a.681.681,0,0,0,.108,0,18.55,18.55,0,0,1,5.444.72,14.128,14.128,0,0,1,8.728,6.516,1.164,1.164,0,0,0,1.011.588,1.211,1.211,0,0,0,.315-.042,1.166,1.166,0,0,0,.872-1.139V62.575a3.446,3.446,0,0,0,3.03-3.416v-.251ZM11.3,70.866l.216.888a.926.926,0,0,1-.9,1.145H9.3a.924.924,0,0,1-.9-.707L6.591,64.753h3.22l.483,1.985H9.967a.684.684,0,0,0,0,1.367h.659l.339,1.392h-.214a.684.684,0,1,0,0,1.367Zm.087-10.38H4.258c-.378,0,0,.306,0,.684s-.378.684,0,.684h7.126v1.534h-1l-.038,0H5.7A4.353,4.353,0,0,1,5.72,54.68h5.664v5.806Zm15.725-4.336V70.733a15.761,15.761,0,0,0-9.231-6.584,20.6,20.6,0,0,0-5.126-.766v-8.7a20.6,20.6,0,0,0,5.126-.766,15.761,15.761,0,0,0,9.231-6.584Zm3.03,3.01a2.078,2.078,0,0,1-1.663,2.034V56.874a2.078,2.078,0,0,1,1.663,2.034Z" transform="translate(0 -45.484)" fill="#003cff" stroke="#003cff" stroke-width="0.3"/>
        <path id="Path_395" data-name="Path 395" d="M454.57,142.232a.681.681,0,0,0,.46-.178l1.972-1.8a.684.684,0,0,0-.921-1.011l-1.972,1.8a.684.684,0,0,0,.46,1.189Z" transform="translate(-422.859 -132.672)" fill="#003cff" stroke="#003cff" stroke-width="0.3"/>
        <path id="Path_396" data-name="Path 396" d="M455.03,302.2a.684.684,0,1,0-.921,1.011l1.972,1.8A.684.684,0,0,0,457,304Z" transform="translate(-422.859 -284.487)" fill="#003cff" stroke="#003cff" stroke-width="0.3"/>
        <path id="Path_397" data-name="Path 397" d="M472.051,233.68h-1.514a.684.684,0,0,0,0,1.367h1.514a.684.684,0,0,0,0-1.367Z" transform="translate(-437.734 -220.815)" fill="#003cff" stroke="#003cff" stroke-width="0.3"/>
        <path id="Path_398" data-name="Path 398" d="M54.5,265.351a.674.674,0,0,0-.063-.118.688.688,0,0,0-.307-.252.723.723,0,0,0-.128-.039.676.676,0,0,0-.267,0,.69.69,0,0,0-.128.039.7.7,0,0,0-.118.063.664.664,0,0,0-.189.189.674.674,0,0,0-.063.118.69.69,0,0,0-.039.128.673.673,0,0,0-.014.133.685.685,0,0,0,.014.134.723.723,0,0,0,.039.128.694.694,0,0,0,.063.118.655.655,0,0,0,.085.1.674.674,0,0,0,.222.148.69.69,0,0,0,.128.039.693.693,0,0,0,.267,0,.706.706,0,0,0,.128-.039.694.694,0,0,0,.118-.063.742.742,0,0,0,.1-.085.693.693,0,0,0,.148-.221.724.724,0,0,0,.039-.128.685.685,0,0,0,.013-.134.673.673,0,0,0-.013-.133A.69.69,0,0,0,54.5,265.351Z" transform="translate(-49.545 -249.928)" fill="#003cff" stroke="#003cff" stroke-width="0.3"/>
      </g>
    </g>
  </g>
</svg>
