<svg xmlns="http://www.w3.org/2000/svg" xmlns:xlink="http://www.w3.org/1999/xlink" width="35" height="35" viewBox="0 0 35 35">
  <defs>
    <clipPath id="clip-path">
      <rect id="Rectangle_142" data-name="Rectangle 142" width="35" height="35" transform="translate(523 746)" fill="#003cff" stroke="#707070" stroke-width="1"/>
    </clipPath>
  </defs>
  <g id="Mask_Group_46" data-name="Mask Group 46" transform="translate(-523 -746)" clip-path="url(#clip-path)">
    <g id="global" transform="translate(523 746)">
      <path id="Path_388" data-name="Path 388" d="M17.5,0A17.5,17.5,0,1,0,35,17.5,17.485,17.485,0,0,0,17.5,0ZM12.218,2.383A25.139,25.139,0,0,0,9.849,6.478H5.876a15.869,15.869,0,0,1,6.342-4.094ZM4.624,7.966h4.6a26.33,26.33,0,0,0-1.761,8.789H1.51A15.963,15.963,0,0,1,4.624,7.966Zm0,19.067A15.963,15.963,0,0,1,1.51,18.244H7.458a26.183,26.183,0,0,0,1.789,8.789Zm1.253,1.489H9.884a26.907,26.907,0,0,0,2.362,4.108,15.925,15.925,0,0,1-6.37-4.108ZM16.756,33.5a17.055,17.055,0,0,1-2.2-.251,25.283,25.283,0,0,1-3.028-4.717h5.225Zm0-6.463h-5.9a24.907,24.907,0,0,1-1.9-8.789h7.809Zm0-10.278H8.947a25.084,25.084,0,0,1,1.89-8.789h5.919Zm.007-10.278H11.516a24.449,24.449,0,0,1,3.042-4.717,15.856,15.856,0,0,1,2.2-.251ZM30.376,7.966a15.888,15.888,0,0,1,3.113,8.789H27.542a26.183,26.183,0,0,0-1.789-8.789ZM29.124,6.478H25.116a26.364,26.364,0,0,0-2.369-4.108A15.9,15.9,0,0,1,29.124,6.478ZM18.244,1.51a17.055,17.055,0,0,1,2.2.251,25.283,25.283,0,0,1,3.028,4.717H18.244Zm0,6.456h5.9a24.873,24.873,0,0,1,1.9,8.789H18.244V7.966Zm0,10.278h7.809a25.084,25.084,0,0,1-1.89,8.789H18.244V18.244ZM18.237,33.49V28.522h5.246a24.449,24.449,0,0,1-3.042,4.717A15.857,15.857,0,0,1,18.237,33.49Zm4.509-.859A26.283,26.283,0,0,0,25.1,28.522h4.03a15.976,15.976,0,0,1-6.384,4.108Zm2.985-5.6a27.487,27.487,0,0,0,1.8-8.789H33.5a15.963,15.963,0,0,1-3.113,8.789H25.731Z" fill="#003cff"/>
    </g>
  </g>
</svg>
