<svg xmlns="http://www.w3.org/2000/svg" xmlns:xlink="http://www.w3.org/1999/xlink" width="15" height="15" viewBox="0 0 15 15">
  <defs>
    <clipPath id="clip-path">
      <rect id="Rectangle_112" data-name="Rectangle 112" width="15" height="15" rx="2" transform="translate(1303 1026)" fill="#fff" stroke="#707070" stroke-width="1"/>
    </clipPath>
  </defs>
  <g id="Mask_Group_32" data-name="Mask Group 32" transform="translate(-1303 -1026)" clip-path="url(#clip-path)">
    <g id="_1384053" data-name="1384053" transform="translate(1303 1026)">
      <path id="Path_276" data-name="Path 276" d="M14.172,0H.827A.828.828,0,0,0,0,.828V14.173A.828.828,0,0,0,.828,15H14.172A.828.828,0,0,0,15,14.172h0V.827A.828.828,0,0,0,14.172,0Zm0,0" fill="#4267b2"/>
      <path id="Path_277" data-name="Path 277" d="M10.356,15V9.2h1.956L12.6,6.929H10.356V5.483c0-.656.182-1.1,1.123-1.1h1.192V2.355a16.022,16.022,0,0,0-1.747-.089A2.727,2.727,0,0,0,8.013,5.258V6.929H6.064V9.2H8.013V15Zm0,0" fill="#fff"/>
    </g>
  </g>
</svg>
