<svg xmlns="http://www.w3.org/2000/svg" xmlns:xlink="http://www.w3.org/1999/xlink" width="15" height="15" viewBox="0 0 15 15">
  <defs>
    <clipPath id="clip-path">
      <rect id="Rectangle_116" data-name="Rectangle 116" width="15" height="15" rx="2" transform="translate(1303 1126)" fill="#fff" stroke="#707070" stroke-width="1"/>
    </clipPath>
    <radialGradient id="radial-gradient" cx="0.266" cy="1.077" r="0.991" gradientTransform="translate(-2.918 5.666) rotate(-90) scale(1 0.93)" gradientUnits="objectBoundingBox">
      <stop offset="0" stop-color="#fd5"/>
      <stop offset="0.1" stop-color="#fd5"/>
      <stop offset="0.5" stop-color="#ff543e"/>
      <stop offset="1" stop-color="#c837ab"/>
    </radialGradient>
    <radialGradient id="radial-gradient-2" cx="-0.168" cy="0.072" r="0.443" gradientTransform="matrix(0.196, 0.981, -4.042, 0.809, 15.634, -0.42)" gradientUnits="objectBoundingBox">
      <stop offset="0" stop-color="#3771c8"/>
      <stop offset="0.128" stop-color="#3771c8"/>
      <stop offset="1" stop-color="#60f" stop-opacity="0"/>
    </radialGradient>
  </defs>
  <g id="Mask_Group_37" data-name="Mask Group 37" transform="translate(-1303 -1126)" clip-path="url(#clip-path)">
    <g id="Instagram_logo_2016" transform="translate(1302.885 1125.887)">
      <path id="Path_278" data-name="Path 278" d="M7.5,0C4.371,0,3.455,0,3.277.018A3.721,3.721,0,0,0,1.8.389a2.994,2.994,0,0,0-.862.631A3.219,3.219,0,0,0,.069,2.844,13.535,13.535,0,0,0,0,5.058c0,.6,0,1.383,0,2.437,0,3.129,0,4.043.018,4.221a3.767,3.767,0,0,0,.358,1.449,3.159,3.159,0,0,0,2.048,1.673,5.321,5.321,0,0,0,1.089.144C3.7,14.99,5.592,15,7.486,15s3.789,0,3.97-.012a5.124,5.124,0,0,0,1.128-.148,3.14,3.14,0,0,0,2.048-1.676,3.705,3.705,0,0,0,.354-1.421C15,11.61,15,9.55,15,7.493s0-4.114-.015-4.243a3.664,3.664,0,0,0-.361-1.435,2.973,2.973,0,0,0-.642-.88A3.238,3.238,0,0,0,12.156.069,13.516,13.516,0,0,0,9.943,0Z" transform="translate(0.116 0.115)" fill="url(#radial-gradient)"/>
      <path id="Path_279" data-name="Path 279" d="M7.5,0C4.371,0,3.455,0,3.277.018A3.721,3.721,0,0,0,1.8.389a2.994,2.994,0,0,0-.862.631A3.219,3.219,0,0,0,.069,2.844,13.535,13.535,0,0,0,0,5.058c0,.6,0,1.383,0,2.437,0,3.129,0,4.043.018,4.221a3.767,3.767,0,0,0,.358,1.449,3.159,3.159,0,0,0,2.048,1.673,5.321,5.321,0,0,0,1.089.144C3.7,14.99,5.592,15,7.486,15s3.789,0,3.97-.012a5.124,5.124,0,0,0,1.128-.148,3.14,3.14,0,0,0,2.048-1.676,3.705,3.705,0,0,0,.354-1.421C15,11.61,15,9.55,15,7.493s0-4.114-.015-4.243a3.664,3.664,0,0,0-.361-1.435,2.973,2.973,0,0,0-.642-.88A3.238,3.238,0,0,0,12.156.069,13.516,13.516,0,0,0,9.943,0Z" transform="translate(0.116 0.115)" fill="url(#radial-gradient-2)"/>
      <path id="Path_280" data-name="Path 280" d="M7.614,2.077c-1.5,0-1.693.007-2.283.033a4.064,4.064,0,0,0-1.344.257,2.833,2.833,0,0,0-1.62,1.619A4.045,4.045,0,0,0,2.11,5.331c-.026.591-.033.78-.033,2.283S2.083,9.306,2.11,9.9a4.07,4.07,0,0,0,.257,1.344,2.834,2.834,0,0,0,1.619,1.62,4.067,4.067,0,0,0,1.344.257c.591.027.779.033,2.283.033s1.692-.007,2.283-.033a4.069,4.069,0,0,0,1.345-.257,2.837,2.837,0,0,0,1.619-1.62A4.1,4.1,0,0,0,13.118,9.9c.027-.591.033-.779.033-2.283s-.007-1.693-.033-2.283a4.1,4.1,0,0,0-.257-1.344,2.833,2.833,0,0,0-1.62-1.619A4.076,4.076,0,0,0,9.9,2.11c-.591-.027-.779-.033-2.283-.033Zm-.5,1h.5c1.478,0,1.654.005,2.238.032A3.066,3.066,0,0,1,10.88,3.3a1.835,1.835,0,0,1,1.051,1.051,3.06,3.06,0,0,1,.191,1.028c.027.584.032.759.032,2.237s-.006,1.653-.032,2.237a3.063,3.063,0,0,1-.191,1.028,1.836,1.836,0,0,1-1.051,1.05,3.055,3.055,0,0,1-1.028.191c-.584.027-.759.032-2.238.032s-1.654-.006-2.238-.032a3.072,3.072,0,0,1-1.028-.191A1.835,1.835,0,0,1,3.3,10.877a3.06,3.06,0,0,1-.191-1.028c-.027-.584-.032-.759-.032-2.238s.005-1.653.032-2.237A3.066,3.066,0,0,1,3.3,4.346,1.835,1.835,0,0,1,4.349,3.3,3.059,3.059,0,0,1,5.377,3.1c.511-.023.709-.03,1.741-.031Zm3.453.919a.664.664,0,1,0,.664.664.664.664,0,0,0-.664-.664ZM7.614,4.77a2.843,2.843,0,1,0,2.843,2.844A2.844,2.844,0,0,0,7.614,4.77Zm0,1A1.846,1.846,0,1,1,5.769,7.614,1.846,1.846,0,0,1,7.614,5.768Z" fill="#fff"/>
    </g>
  </g>
</svg>
