<svg xmlns="http://www.w3.org/2000/svg" xmlns:xlink="http://www.w3.org/1999/xlink" width="15" height="15" viewBox="0 0 15 15">
  <defs>
    <clipPath id="clip-path">
      <rect id="Rectangle_120" data-name="Rectangle 120" width="15" height="15" rx="2" transform="translate(1303 1226)" fill="#fff" stroke="#707070" stroke-width="1"/>
    </clipPath>
  </defs>
  <g id="Mask_Group_35" data-name="Mask Group 35" transform="translate(-1303 -1226)" clip-path="url(#clip-path)">
    <path id="_2111589" data-name="2111589" d="M13.328,5.817a1.673,1.673,0,0,0-1.2.51A8.04,8.04,0,0,0,7.8,4.971l.876-4,2.788.635A1.251,1.251,0,0,0,12.7,2.86a1.274,1.274,0,1,0-1.116-1.842L8.5.326a.3.3,0,0,0-.348.228L7.194,4.967A8.14,8.14,0,0,0,2.884,6.341a1.67,1.67,0,0,0-1.214-.523A1.692,1.692,0,0,0,.947,9.029a3.643,3.643,0,0,0-.082.792c0,2.688,2.984,4.866,6.649,4.866,3.68,0,6.664-2.178,6.664-4.866a3.116,3.116,0,0,0-.1-.806,1.693,1.693,0,0,0-.752-3.2ZM3.5,9.2a1.247,1.247,0,1,1,1.255,1.258A1.26,1.26,0,0,1,3.5,9.2Zm6.774,3c-1.151,1.167-4.4,1.167-5.549,0a.3.3,0,0,1,.417-.439c.879.914,3.794.93,4.711,0a.3.3,0,0,1,.421.439Zm-.026-1.738A1.265,1.265,0,1,1,11.5,9.2,1.25,1.25,0,0,1,10.249,10.459Z" transform="translate(1303 1226)" fill="#ff5722"/>
  </g>
</svg>
