<svg xmlns="http://www.w3.org/2000/svg" xmlns:xlink="http://www.w3.org/1999/xlink" width="15" height="15" viewBox="0 0 15 15">
  <defs>
    <clipPath id="clip-path">
      <rect id="Rectangle_114" data-name="Rectangle 114" width="15" height="15" rx="2" transform="translate(1303 1076)" fill="#fff" stroke="#707070" stroke-width="1"/>
    </clipPath>
  </defs>
  <g id="Mask_Group_33" data-name="Mask Group 33" transform="translate(-1303 -1076)" clip-path="url(#clip-path)">
    <path id="_733579_1_" data-name="733579 (1)" d="M15,2.849a6.411,6.411,0,0,1-1.772.486,3.058,3.058,0,0,0,1.353-1.7,6.146,6.146,0,0,1-1.95.744,3.075,3.075,0,0,0-5.319,2.1,3.166,3.166,0,0,0,.071.7A8.7,8.7,0,0,1,1.044,1.967a3.076,3.076,0,0,0,.945,4.11A3.037,3.037,0,0,1,.6,5.7v.034A3.089,3.089,0,0,0,3.064,8.753a3.069,3.069,0,0,1-.806.1A2.719,2.719,0,0,1,1.675,8.8a3.1,3.1,0,0,0,2.873,2.142A6.179,6.179,0,0,1,.736,12.256,5.76,5.76,0,0,1,0,12.214a8.657,8.657,0,0,0,4.718,1.38A8.692,8.692,0,0,0,13.47,4.843c0-.136,0-.267-.011-.4A6.135,6.135,0,0,0,15,2.849Z" transform="translate(1303 1076)" fill="#03a9f4"/>
  </g>
</svg>
