<svg xmlns="http://www.w3.org/2000/svg" width="28.595" height="35.317" viewBox="0 0 28.595 35.317">
  <g id="noun_Globe_1556479" transform="translate(-11.85 -2.829)">
    <g id="Group_154" data-name="Group 154" transform="translate(12 2.995)">
      <path id="Path_105" data-name="Path 105" d="M32.907,955.466a15.642,15.642,0,0,1-7.5,28.912v1.885h3.723a.843.843,0,0,1,.721.535l.745,2.606a.781.781,0,0,1-.721.954H19.446a.781.781,0,0,1-.721-.954l.745-2.606a.766.766,0,0,1,.721-.535h3.723v-1.885a15.643,15.643,0,0,1-5.515-1.291.745.745,0,0,1,.6-1.361,14.148,14.148,0,0,0,13.112-24.991.767.767,0,0,1-.36-.838.794.794,0,0,1,1.151-.43Zm-8.249.64a12.671,12.671,0,1,1-5.084,1.07s.007-.01.012-.012H19.6a12.581,12.581,0,0,1,5.061-1.059Zm0,1.489a11.147,11.147,0,0,0-4.084.768,7.129,7.129,0,0,0-.756,3.711,4.372,4.372,0,0,0,1,2.571,7.216,7.216,0,0,0,1.384,1.443,3.274,3.274,0,0,1,1.326,1.78,18.921,18.921,0,0,0,.628,2.8,2.113,2.113,0,0,0,.512.814.979.979,0,0,0,.733.256.8.8,0,0,0,.6-.244,2.891,2.891,0,0,0,.593-.838,5.237,5.237,0,0,0,.547-2.548,13.948,13.948,0,0,1,.128-2.85,5.083,5.083,0,0,1,1.431-2.455c.5-.568.791-.911.791-1.489a3.605,3.605,0,0,0-1.175-3.106A11.16,11.16,0,0,0,24.658,957.595Zm-6.073,1.792a11.2,11.2,0,0,0-4.247,13.671,9.28,9.28,0,0,1,3.211-.57H17.6c1.884,0,3.291.622,3.851,1.78a3.1,3.1,0,0,1-1.082,3.583l-.023.023a6.05,6.05,0,0,1-.919.756,11.167,11.167,0,0,0,11.332-19.22,7.306,7.306,0,0,1,.233,1.908,3.685,3.685,0,0,1-1.163,2.478,3.7,3.7,0,0,0-1.082,1.757,13.825,13.825,0,0,0-.1,2.571,6.892,6.892,0,0,1-.71,3.211,4.185,4.185,0,0,1-.931,1.28,2.429,2.429,0,0,1-1.594.617,2.619,2.619,0,0,1-1.722-.628,3.448,3.448,0,0,1-.907-1.385,17.6,17.6,0,0,1-.71-3.06,3.162,3.162,0,0,0-.838-.954,7.96,7.96,0,0,1-1.664-1.78,5.839,5.839,0,0,1-1.233-3.386,11.234,11.234,0,0,1,.256-2.653Zm-.989,14.59a10.553,10.553,0,0,0-2.571.442,11.2,11.2,0,0,0,2.932,3.293V977.7a1,1,0,0,0,.244-.093,3.684,3.684,0,0,0,1.117-.814l.023-.023c.866-.772.967-1.414.756-1.85s-.946-.942-2.5-.942Zm10.96,13.775h-7.8l-.326,1.117h8.447Z" transform="translate(-12 -955.357)" fill="#fff" stroke="#fff" stroke-width="0.3"/>
    </g>
  </g>
</svg>
