<svg xmlns="http://www.w3.org/2000/svg" width="36.429" height="35.3" viewBox="0 0 36.429 35.3">
  <g id="noun_Video_2252774" transform="translate(-2.85 -3.85)">
    <path id="Path_106" data-name="Path 106" d="M36.307,4H5.823A2.826,2.826,0,0,0,3,6.823V27.145a2.826,2.826,0,0,0,2.823,2.823H16.843l-1.806,4.516h-.182a1.7,1.7,0,0,0-1.694,1.694v1.129A1.7,1.7,0,0,0,14.855,39H27.274a1.7,1.7,0,0,0,1.694-1.694V36.178a1.7,1.7,0,0,0-1.694-1.694h-.182l-1.806-4.516H36.307a2.826,2.826,0,0,0,2.823-2.823V6.823A2.826,2.826,0,0,0,36.307,4Zm-9.6,31.613h.564a.565.565,0,0,1,.565.565v1.129a.565.565,0,0,1-.565.565H14.855a.565.565,0,0,1-.565-.565V36.178a.565.565,0,0,1,.565-.565H26.71Zm-.834-1.129H16.253l1.806-4.516h6.009ZM38,27.145a1.7,1.7,0,0,1-1.694,1.694H5.823a1.7,1.7,0,0,1-1.694-1.694V25.452H38Zm0-2.823H4.129V6.823A1.7,1.7,0,0,1,5.823,5.129H36.307A1.7,1.7,0,0,1,38,6.823Z" fill="#fff" stroke="#fff" stroke-width="0.3"/>
    <path id="Path_107" data-name="Path 107" d="M59.565,45.134a.6.6,0,0,0,.4-.164.584.584,0,0,0,.164-.4.565.565,0,0,0-.045-.215.584.584,0,0,0-.119-.186.591.591,0,0,0-.8,0,.651.651,0,0,0-.119.186A.564.564,0,0,0,59,44.57a.559.559,0,0,0,.565.565Z" transform="translate(-24.387 -17.425)" fill="#fff" stroke="#fff" stroke-width="0.3"/>
    <path id="Path_108" data-name="Path 108" d="M53.565,45.129a.6.6,0,0,0,.4-.164.589.589,0,0,0,.119-.186.532.532,0,0,0,0-.429.656.656,0,0,0-.119-.186.568.568,0,0,0-.616-.119.512.512,0,0,0-.3.3.564.564,0,0,0-.045.215.559.559,0,0,0,.565.565Z" transform="translate(-21.774 -17.42)" fill="#fff" stroke="#fff" stroke-width="0.3"/>
    <path id="Path_109" data-name="Path 109" d="M47.164,44.966a.656.656,0,0,0,.186.119.565.565,0,0,0,.215.045.584.584,0,0,0,.4-.164.657.657,0,0,0,.119-.186.473.473,0,0,0,.045-.214.594.594,0,0,0-.164-.4.564.564,0,0,0-.616-.119.652.652,0,0,0-.186.119.593.593,0,0,0-.164.4.564.564,0,0,0,.045.214A.653.653,0,0,0,47.164,44.966Z" transform="translate(-19.161 -17.42)" fill="#fff" stroke="#fff" stroke-width="0.3"/>
    <path id="Path_110" data-name="Path 110" d="M29.774,11a6.774,6.774,0,1,0,6.774,6.774A6.782,6.782,0,0,0,29.774,11Zm0,12.419a5.645,5.645,0,1,1,5.645-5.645A5.651,5.651,0,0,1,29.774,23.419Z" transform="translate(-8.71 -3.048)" fill="#fff" stroke="#fff" stroke-width="0.3"/>
    <path id="Path_111" data-name="Path 111" d="M36.4,19.7l-4.516-3.1a.565.565,0,0,0-.884.465v6.21a.565.565,0,0,0,.884.465l4.516-3.1a.565.565,0,0,0,0-.931Zm-4.271,2.5V18.138l2.955,2.032Z" transform="translate(-12.193 -5.444)" fill="#fff" stroke="#fff" stroke-width="0.3"/>
  </g>
</svg>
