<svg xmlns="http://www.w3.org/2000/svg" width="35" height="35" viewBox="0 0 35 35">
  <path id="Path_104" data-name="Path 104" d="M39.117,33.847l-8.054-8.053a1.231,1.231,0,0,0-1.741,0l-.892.892-2.836-2.818a11.894,11.894,0,1,0-1.723,1.723l2.836,2.836-.892.892a1.24,1.24,0,0,0,0,1.741l8.035,8.053a1.231,1.231,0,0,0,1.741,0l3.525-3.525a1.24,1.24,0,0,0,0-1.741ZM9.664,23.025a9.45,9.45,0,1,1,13.363,0,9.449,9.449,0,0,1-13.363,0ZM34.724,36.5,28.4,30.186,30.189,28.4l6.319,6.318Z" transform="translate(-4.474 -4.473)" fill="#fff"/>
</svg>
