<svg xmlns="http://www.w3.org/2000/svg" width="38.845" height="35" viewBox="0 0 38.845 35">
  <g id="noun_website_3493536" transform="translate(-4 -8)">
    <g id="icons" transform="translate(4 8)">
      <path id="Path_103" data-name="Path 103" d="M5.922,15.689h34.6v12.5h1.922V9.922A1.922,1.922,0,0,0,40.524,8H5.922A1.922,1.922,0,0,0,4,9.922V36.835a1.922,1.922,0,0,0,1.922,1.922H27.068V36.835H5.922Zm34.6-5.767v3.845H5.922V9.922ZM7.845,11.845a.961.961,0,1,1,.961.961A.961.961,0,0,1,7.845,11.845ZM39.521,35.434l2.926-.731V32.33L28.752,27.063l-1.844,1.844L32.175,42.6h2.372l.731-2.926L38.6,43l4.243-4.243Zm-5.286.481L33.22,39.971,29.151,29.384l.078-.078,10.588,4.069-4.056,1.014,4.366,4.369L38.6,40.282Z" transform="translate(-4 -8)" fill="#fff"/>
    </g>
  </g>
</svg>
