<svg xmlns="http://www.w3.org/2000/svg" xmlns:xlink="http://www.w3.org/1999/xlink" width="25" height="25" viewBox="0 0 25 25">
  <defs>
    <clipPath id="clip-path">
      <rect id="Rectangle_47" data-name="Rectangle 47" width="25" height="25" rx="5" transform="translate(1062 5729)" fill="#fff" stroke="#efefef" stroke-width="1"/>
    </clipPath>
  </defs>
  <g id="Mask_Group_15" data-name="Mask Group 15" transform="translate(-1062 -5729)" clip-path="url(#clip-path)">
    <g id="google-icon" transform="translate(1062.25 5729)">
      <path id="Path_57" data-name="Path 57" d="M24.5,12.778a10.712,10.712,0,0,0-.264-2.556H12.5v4.639h6.889a6.109,6.109,0,0,1-2.556,4.056l-.023.155,3.711,2.875.257.026A12.222,12.222,0,0,0,24.5,12.778" fill="#4285f4"/>
      <path id="Path_58" data-name="Path 58" d="M12.5,25a11.914,11.914,0,0,0,8.278-3.028l-3.944-3.056a7.4,7.4,0,0,1-4.333,1.25,7.525,7.525,0,0,1-7.111-5.194l-.147.012L1.384,17.971l-.05.14A12.491,12.491,0,0,0,12.5,25" fill="#34a853"/>
      <path id="Path_59" data-name="Path 59" d="M5.389,14.972A7.7,7.7,0,0,1,4.972,12.5a8.086,8.086,0,0,1,.4-2.472l-.007-.166L1.461,6.828l-.128.061a12.474,12.474,0,0,0,0,11.222l4.056-3.139" fill="#fbbc05"/>
      <path id="Path_60" data-name="Path 60" d="M12.5,4.833a6.928,6.928,0,0,1,4.833,1.861L20.861,3.25A12.01,12.01,0,0,0,12.5,0,12.491,12.491,0,0,0,1.333,6.889l4.042,3.139A7.556,7.556,0,0,1,12.5,4.833" fill="#eb4335"/>
    </g>
  </g>
</svg>
