<svg xmlns="http://www.w3.org/2000/svg" xmlns:xlink="http://www.w3.org/1999/xlink" width="25" height="25" viewBox="0 0 25 25">
  <defs>
    <clipPath id="clip-path">
      <rect id="Rectangle_47" data-name="Rectangle 47" width="25" height="25" rx="5" transform="translate(1152 5969)" fill="#fff" stroke="#efefef" stroke-width="1"/>
    </clipPath>
  </defs>
  <g id="Mask_Group_17" data-name="Mask Group 17" transform="translate(-1152 -5969)" clip-path="url(#clip-path)">
    <path id="_733579" data-name="733579" d="M25,4.748a10.686,10.686,0,0,1-2.953.809A5.1,5.1,0,0,0,24.3,2.725a10.242,10.242,0,0,1-3.25,1.241,5.125,5.125,0,0,0-8.866,3.5A5.277,5.277,0,0,0,12.3,8.639,14.507,14.507,0,0,1,1.741,3.278a5.127,5.127,0,0,0,1.575,6.85A5.061,5.061,0,0,1,1,9.5v.056a5.149,5.149,0,0,0,4.106,5.036,5.115,5.115,0,0,1-1.344.169,4.532,4.532,0,0,1-.97-.087,5.174,5.174,0,0,0,4.789,3.57,10.3,10.3,0,0,1-6.355,2.186A9.6,9.6,0,0,1,0,20.356a14.429,14.429,0,0,0,7.863,2.3A14.487,14.487,0,0,0,22.45,8.072c0-.227-.008-.445-.019-.662A10.225,10.225,0,0,0,25,4.748Z" transform="translate(1152 5969)" fill="#03a9f4"/>
  </g>
</svg>
