<svg xmlns="http://www.w3.org/2000/svg" xmlns:xlink="http://www.w3.org/1999/xlink" width="25" height="25" viewBox="0 0 25 25">
  <defs>
    <clipPath id="clip-path">
      <rect id="Rectangle_47" data-name="Rectangle 47" width="25" height="25" rx="5" transform="translate(1092 5809)" fill="#fff" stroke="#efefef" stroke-width="1"/>
    </clipPath>
  </defs>
  <g id="Mask_Group_16" data-name="Mask Group 16" transform="translate(-1092 -5809)" clip-path="url(#clip-path)">
    <g id="yt" transform="translate(1092.01 5809)">
      <path id="Path_61" data-name="Path 61" d="M0,18.642H0a11.873,11.873,0,0,0,.113,1.665A5.772,5.772,0,0,0,.625,21.99a5.36,5.36,0,0,0,1.5,1.817,4.88,4.88,0,0,0,1.5.815,8.145,8.145,0,0,0,2.471.363c.524,0,1.048.016,1.573.014,3.808-.016,7.617.028,11.425-.024a8.982,8.982,0,0,0,1.5-.159,5.078,5.078,0,0,0,2.51-1.221,5.2,5.2,0,0,0,1.658-2.765,10.079,10.079,0,0,0,.216-2.188v-.147c0-.057-.022-12.479-.024-12.644a7.652,7.652,0,0,0-.123-1.343,5.471,5.471,0,0,0-.507-1.557,5.4,5.4,0,0,0-1.04-1.388,5.155,5.155,0,0,0-2.27-1.3,9.2,9.2,0,0,0-2.4-.256.024.024,0,0,1,0-.012H6.364a.073.073,0,0,1,0,.012A13.088,13.088,0,0,0,4.987.074a6.55,6.55,0,0,0-1.47.331,5.173,5.173,0,0,0-1.948,1.28,5.152,5.152,0,0,0-1.3,2.278A9.162,9.162,0,0,0,.008,6.344" fill="#fff"/>
      <path id="Path_62" data-name="Path 62" d="M0,.008H24.981V24.989H0Z" fill="none"/>
      <path id="Path_63" data-name="Path 63" d="M12.933,19.387l-4.1-.075a21.375,21.375,0,0,1-3.955-.244c-1.978-.4-2.118-2.385-2.264-4.047A28.387,28.387,0,0,1,2.875,7.99,2.4,2.4,0,0,1,5.247,5.83,131.064,131.064,0,0,1,18.53,5.7a9.583,9.583,0,0,1,1.394.166c2.268.4,2.323,2.642,2.47,4.532a25.691,25.691,0,0,1-.2,5.725c-.225,1.57-.655,2.887-2.47,3.014-2.274.166-4.5.3-6.777.257C12.952,19.387,12.939,19.387,12.933,19.387Zm-2.408-3.975c1.714-.984,3.395-1.952,5.1-2.929-1.717-.984-3.395-1.952-5.1-2.929Z" fill="red"/>
    </g>
  </g>
</svg>
