<svg xmlns="http://www.w3.org/2000/svg" width="15" height="9.561" viewBox="0 0 15 9.561">
  <g id="_709612" data-name="709612" transform="translate(0 -92.835)">
    <g id="Group_143" data-name="Group 143" transform="translate(0 92.835)">
      <g id="Group_142" data-name="Group 142">
        <path id="Path_39" data-name="Path 39" d="M14.9,97.323c-.134-.183-3.327-4.488-7.4-4.488S.229,97.14.1,97.323a.5.5,0,0,0,0,.584c.134.183,3.327,4.488,7.4,4.488s7.271-4.305,7.4-4.488A.494.494,0,0,0,14.9,97.323Zm-7.4,4.083c-3,0-5.605-2.857-6.376-3.792.769-.935,3.365-3.791,6.376-3.791s5.605,2.857,6.376,3.792C13.106,98.55,10.51,101.406,7.5,101.406Z" transform="translate(0 -92.835)" fill="#4a5867"/>
      </g>
    </g>
    <g id="Group_145" data-name="Group 145" transform="translate(4.533 94.648)">
      <g id="Group_144" data-name="Group 144" transform="translate(0 0)">
        <path id="Path_40" data-name="Path 40" d="M157.689,154.725a2.967,2.967,0,1,0,2.967,2.967A2.97,2.97,0,0,0,157.689,154.725Zm0,4.945a1.978,1.978,0,1,1,1.978-1.978A1.98,1.98,0,0,1,157.689,159.67Z" transform="translate(-154.722 -154.725)" fill="#4a5867"/>
      </g>
    </g>
  </g>
</svg>
