<svg xmlns="http://www.w3.org/2000/svg" width="15" height="9.447" viewBox="0 0 15 9.447">
  <g id="_992702" data-name="992702" transform="translate(0 -94.766)">
    <g id="Group_150" data-name="Group 150" transform="translate(0 94.766)">
      <path id="Path_43" data-name="Path 43" d="M14.951,95.155a.632.632,0,0,0-.137-.2s-.008,0-.011-.008a.643.643,0,0,0-.195-.129.631.631,0,0,0-.186-.038c-.019,0-.035-.01-.054-.01H9.328a.63.63,0,0,0,0,1.261h3.527l-4.989,5.017-1.9-2.43a.63.63,0,0,0-.93-.07L.2,103.126a.63.63,0,0,0,.867.915L5.4,99.935l1.912,2.447a.631.631,0,0,0,.944.057l5.484-5.515v3.514a.63.63,0,0,0,1.261,0V95.4h0A.647.647,0,0,0,14.951,95.155Z" transform="translate(0 -94.766)" fill="#4a5867"/>
    </g>
  </g>
</svg>
