<svg xmlns="http://www.w3.org/2000/svg" width="44" height="40" viewBox="0 0 44 40">
  <g id="_709861" data-name="709861" transform="translate(0 -2.273)">
    <g id="Group_186" data-name="Group 186" transform="translate(7.167 6.717)">
      <g id="Group_185" data-name="Group 185">
        <path id="Path_288" data-name="Path 288" d="M44.492,7.814a1.667,1.667,0,0,0-2.357,0l-12.655,12.6-3.657-3.657a1.666,1.666,0,0,0-2.357,0L8.632,31.589a1.666,1.666,0,1,0,2.357,2.357L24.644,20.292,28.3,23.946a1.666,1.666,0,0,0,2.354,0L44.487,10.171A1.667,1.667,0,0,0,44.492,7.814Z" transform="translate(-8.144 -7.324)" fill="#003cff"/>
      </g>
    </g>
    <g id="Group_188" data-name="Group 188" transform="translate(0 2.273)">
      <g id="Group_187" data-name="Group 187">
        <path id="Path_289" data-name="Path 289" d="M42.278,38.939H3.333v-35A1.667,1.667,0,1,0,0,3.939V40.606a1.667,1.667,0,0,0,1.667,1.667H42.278a1.667,1.667,0,1,0,0-3.333Z" transform="translate(0 -2.273)" fill="#003cff"/>
      </g>
    </g>
    <g id="Group_190" data-name="Group 190" transform="translate(28.167 6.662)">
      <g id="Group_189" data-name="Group 189">
        <path id="Path_290" data-name="Path 290" d="M46.174,7.26h-12.5a1.667,1.667,0,0,0,0,3.333H44.508V21.427a1.667,1.667,0,1,0,3.333,0V8.927A1.667,1.667,0,0,0,46.174,7.26Z" transform="translate(-32.008 -7.26)" fill="#003cff"/>
      </g>
    </g>
  </g>
</svg>
