<svg xmlns="http://www.w3.org/2000/svg" width="43.65" height="40" viewBox="0 0 43.65 40">
  <g id="_2799872" data-name="2799872" transform="translate(0 -2.083)">
    <g id="Group_178" data-name="Group 178" transform="translate(25.423 16.626)">
      <path id="Path_281" data-name="Path 281" d="M40.558,21.484H30.534a1.367,1.367,0,0,1,0-2.734H40.558a1.367,1.367,0,1,1,0,2.734Z" transform="translate(-29.167 -18.75)" fill="#003cff"/>
    </g>
    <g id="Group_179" data-name="Group 179" transform="translate(25.423 23.898)">
      <path id="Path_282" data-name="Path 282" d="M40.558,29.817H30.534a1.367,1.367,0,0,1,0-2.734H40.558a1.367,1.367,0,1,1,0,2.734Z" transform="translate(-29.167 -27.083)" fill="#003cff"/>
    </g>
    <g id="Group_180" data-name="Group 180" transform="translate(25.423 31.169)">
      <path id="Path_283" data-name="Path 283" d="M40.558,38.151H30.534a1.367,1.367,0,0,1,0-2.734H40.558a1.367,1.367,0,1,1,0,2.734Z" transform="translate(-29.167 -35.417)" fill="#003cff"/>
    </g>
    <g id="Group_181" data-name="Group 181" transform="translate(5.468 14.801)">
      <path id="Path_284" data-name="Path 284" d="M17.642,25.78H9.44a3.193,3.193,0,0,1-3.19-3.19V19.856a3.193,3.193,0,0,1,3.19-3.19h8.2a3.193,3.193,0,0,1,3.19,3.19V22.59A3.193,3.193,0,0,1,17.642,25.78ZM9.44,19.4a.456.456,0,0,0-.456.456V22.59a.456.456,0,0,0,.456.456h8.2a.456.456,0,0,0,.456-.456V19.856a.456.456,0,0,0-.456-.456Z" transform="translate(-6.25 -16.667)" fill="#003cff"/>
    </g>
    <g id="Group_182" data-name="Group 182" transform="translate(5.468 27.502)">
      <path id="Path_285" data-name="Path 285" d="M17.642,40.363H9.44a3.193,3.193,0,0,1-3.19-3.19V34.44a3.193,3.193,0,0,1,3.19-3.19h8.2a3.193,3.193,0,0,1,3.19,3.19v2.734A3.193,3.193,0,0,1,17.642,40.363Zm-8.2-6.379a.456.456,0,0,0-.456.456v2.734a.456.456,0,0,0,.456.456h8.2a.456.456,0,0,0,.456-.456V34.44a.456.456,0,0,0-.456-.456Z" transform="translate(-6.25 -31.25)" fill="#003cff"/>
    </g>
    <g id="Group_183" data-name="Group 183" transform="translate(0 2.083)">
      <path id="Path_286" data-name="Path 286" d="M38.648,42.083H5a5,5,0,0,1-5-5v-30a5,5,0,0,1,5-5H38.648a5,5,0,0,1,5,5v30A5,5,0,0,1,38.648,42.083ZM5,4.811A2.276,2.276,0,0,0,2.728,7.083v30A2.276,2.276,0,0,0,5,39.356H38.648a2.276,2.276,0,0,0,2.273-2.273v-30a2.276,2.276,0,0,0-2.273-2.273Z" transform="translate(0 -2.083)" fill="#003cff"/>
    </g>
    <g id="Group_184" data-name="Group 184" transform="translate(0 8.446)">
      <path id="Path_287" data-name="Path 287" d="M42.286,12.109H1.364a1.367,1.367,0,0,1,0-2.734H42.286a1.367,1.367,0,0,1,0,2.734Z" transform="translate(0 -9.375)" fill="#003cff"/>
    </g>
  </g>
</svg>
