<svg xmlns="http://www.w3.org/2000/svg" width="43.11" height="40" viewBox="0 0 43.11 40">
  <g id="webi" transform="translate(-1.5 -5)">
    <path id="Path_303" data-name="Path 303" d="M21.318,40.472a1.111,1.111,0,0,0,0-2.222H4.326a.6.6,0,0,1-.6-.6V15.626H37.905V21.66a1.111,1.111,0,1,0,2.222,0V7.822A2.826,2.826,0,0,0,37.3,5H4.326A2.826,2.826,0,0,0,1.5,7.822V37.645a2.826,2.826,0,0,0,2.826,2.826ZM4.326,7.222H37.3a.6.6,0,0,1,.6.6V13.4H3.722V7.822a.6.6,0,0,1,.6-.6Z" transform="translate(0 0)" fill="#003cff"/>
    <path id="Path_304" data-name="Path 304" d="M82.34,71.008,72.2,67.284a1.112,1.112,0,0,0-1.428,1.428L74.5,78.85a1.112,1.112,0,0,0,.965.725h.08a1.112,1.112,0,0,0,.979-.587l1.535-2.856L80.8,78.876A1.113,1.113,0,0,0,82.375,77.3l-2.745-2.745,2.856-1.535A1.112,1.112,0,0,0,82.344,71Zm-6.61,4.751L73.688,70.2l5.56,2.042-1.993,1.072a1.112,1.112,0,0,0-.445.445Z" transform="translate(-38.463 -34.575)" fill="#003cff"/>
    <path id="Path_305" data-name="Path 305" d="M88.758,54.817,86.9,56.672a1.113,1.113,0,0,0,1.575,1.575l1.846-1.859a1.113,1.113,0,0,0-1.575-1.575Z" transform="translate(-47.274 -27.495)" fill="#003cff"/>
    <path id="Path_306" data-name="Path 306" d="M59.105,87.157a1.108,1.108,0,0,0,.787-.325l1.855-1.855A1.113,1.113,0,1,0,60.173,83.4l-1.85,1.864a1.112,1.112,0,0,0,.787,1.9Z" transform="translate(-31.392 -43.38)" fill="#003cff"/>
    <path id="Path_307" data-name="Path 307" d="M61.743,56.678l-1.855-1.855A1.113,1.113,0,1,0,58.313,56.4l1.855,1.855a1.113,1.113,0,0,0,1.575-1.575Z" transform="translate(-31.387 -27.5)" fill="#003cff"/>
    <path id="Path_308" data-name="Path 308" d="M74.37,48.822v2.62a1.112,1.112,0,1,0,2.224,0v-2.62a1.112,1.112,0,1,0-2.224,0Z" transform="translate(-40.489 -23.73)" fill="#003cff"/>
    <path id="Path_309" data-name="Path 309" d="M56.054,71.982a1.112,1.112,0,0,0-1.112-1.112h-2.62a1.112,1.112,0,1,0,0,2.224h2.62A1.112,1.112,0,0,0,56.054,71.982Z" transform="translate(-27.622 -36.596)" fill="#003cff"/>
    <path id="Path_310" data-name="Path 310" d="M41.151,37.722a1.112,1.112,0,0,0-1.112-1.112H15.672a1.112,1.112,0,0,0-1.112,1.112V51.334a1.112,1.112,0,0,0,1.112,1.112H27.153a1.112,1.112,0,1,0,0-2.224H16.784V38.834H40.039A1.112,1.112,0,0,0,41.151,37.722Z" transform="translate(-7.251 -17.569)" fill="#003cff"/>
    <circle id="Ellipse_40" data-name="Ellipse 40" cx="1.241" cy="1.241" r="1.241" transform="translate(5.837 9.235)" fill="#003cff"/>
    <circle id="Ellipse_41" data-name="Ellipse 41" cx="1.241" cy="1.241" r="1.241" transform="translate(10.067 9.235)" fill="#003cff"/>
    <circle id="Ellipse_42" data-name="Ellipse 42" cx="1.241" cy="1.241" r="1.241" transform="translate(14.298 9.235)" fill="#003cff"/>
  </g>
</svg>
