<svg xmlns="http://www.w3.org/2000/svg" width="40" height="40" viewBox="0 0 40 40">
  <g id="_702988" data-name="702988" transform="translate(-0.2)">
    <g id="Group_200" data-name="Group 200" transform="translate(0.2)">
      <g id="Group_199" data-name="Group 199" transform="translate(0)">
        <path id="Path_295" data-name="Path 295" d="M39.129,33.779l-7.445-7.436a3.735,3.735,0,0,0-2.579-1.069,2.777,2.777,0,0,0-1.071.194l-2.628-2.625a13.945,13.945,0,0,0,3.017-8.748,13.929,13.929,0,0,0-4.136-9.964A14.112,14.112,0,0,0,.2,14.095a13.929,13.929,0,0,0,4.136,9.964,14.1,14.1,0,0,0,18.735,1.166L25.7,27.849a3.787,3.787,0,0,0-.195,1.069,3.417,3.417,0,0,0,1.071,2.527l7.445,7.485a3.586,3.586,0,0,0,5.109,0A3.726,3.726,0,0,0,40.2,36.355,3.6,3.6,0,0,0,39.129,33.779ZM22.292,22.017a11.255,11.255,0,1,1,3.26-7.922A11.215,11.215,0,0,1,22.292,22.017ZM37.086,36.841a.706.706,0,0,1-.973,0L28.618,29.4a.681.681,0,0,1,.487-1.166.579.579,0,0,1,.535.194l7.445,7.436a.7.7,0,0,1,0,.972Z" transform="translate(-0.2)" fill="#003cff"/>
      </g>
    </g>
    <g id="Group_202" data-name="Group 202" transform="translate(10.085 5.216)">
      <g id="Group_201" data-name="Group 201">
        <path id="Path_296" data-name="Path 296" d="M94.471,51.127a7.1,7.1,0,0,0-.729-3.062,8.3,8.3,0,0,0-1.8-2.527,8.792,8.792,0,0,0-4.519-2.43,9.208,9.208,0,0,0-5.1.437,1.462,1.462,0,0,0,1.069,2.721,6.022,6.022,0,0,1,3.45-.292,5.8,5.8,0,0,1,3.013,1.652,6.041,6.041,0,0,1,1.215,1.7A5.762,5.762,0,0,1,91.6,51.37a1.439,1.439,0,0,0,2.867-.243Z" transform="translate(-81.399 -42.93)" fill="#003cff"/>
      </g>
    </g>
  </g>
</svg>
