<svg id="_2910805" data-name="2910805" xmlns="http://www.w3.org/2000/svg" width="40" height="40" viewBox="0 0 40 40">
  <path id="Path_297" data-name="Path 297" d="M18.667,35.333A16.667,16.667,0,1,1,35.333,18.667,16.686,16.686,0,0,1,18.667,35.333Zm0-30.833A14.167,14.167,0,1,0,32.833,18.667,14.183,14.183,0,0,0,18.667,4.5Z" transform="translate(1.333 1.333)" fill="#003cff"/>
  <path id="Path_298" data-name="Path 298" d="M12.5,8.333a1.25,1.25,0,0,1-1.25-1.25V1.25a1.25,1.25,0,0,1,2.5,0V7.083A1.25,1.25,0,0,1,12.5,8.333Z" transform="translate(7.5)" fill="#003cff"/>
  <path id="Path_299" data-name="Path 299" d="M26.083,13.75H20.25a1.25,1.25,0,0,1,0-2.5h5.833a1.25,1.25,0,0,1,0,2.5Z" transform="translate(12.667 7.5)" fill="#003cff"/>
  <path id="Path_300" data-name="Path 300" d="M12.5,27.333a1.25,1.25,0,0,1-1.25-1.25V20.25a1.25,1.25,0,0,1,2.5,0v5.833A1.25,1.25,0,0,1,12.5,27.333Z" transform="translate(7.5 12.667)" fill="#003cff"/>
  <path id="Path_301" data-name="Path 301" d="M7.083,13.75H1.25a1.25,1.25,0,0,1,0-2.5H7.083a1.25,1.25,0,0,1,0,2.5Z" transform="translate(0 7.5)" fill="#003cff"/>
  <path id="Path_302" data-name="Path 302" d="M14,19a5,5,0,1,1,5-5A5.006,5.006,0,0,1,14,19Zm0-7.5A2.5,2.5,0,1,0,16.5,14,2.5,2.5,0,0,0,14,11.5Z" transform="translate(6 6)" fill="#003cff"/>
</svg>
