<svg xmlns="http://www.w3.org/2000/svg" width="59.452" height="40" viewBox="0 0 59.452 40">
  <g id="_228927" data-name="228927" transform="translate(0 -83.759)">
    <g id="Group_192" data-name="Group 192" transform="translate(22.752 83.759)">
      <g id="Group_191" data-name="Group 191">
        <path id="Path_291" data-name="Path 291" d="M202.942,83.759a6.968,6.968,0,1,0,6.967,6.968A6.975,6.975,0,0,0,202.942,83.759Zm0,11.565a4.6,4.6,0,1,1,4.6-4.6A4.6,4.6,0,0,1,202.942,95.324Z" transform="translate(-195.974 -83.759)" fill="#003cff"/>
      </g>
    </g>
    <g id="Group_194" data-name="Group 194" transform="translate(7.329 90.845)">
      <g id="Group_193" data-name="Group 193">
        <path id="Path_292" data-name="Path 292" d="M68.806,144.8a5.726,5.726,0,1,0,5.726,5.726A5.732,5.732,0,0,0,68.806,144.8Zm0,9.082a3.356,3.356,0,1,1,3.356-3.356A3.36,3.36,0,0,1,68.806,153.878Z" transform="translate(-63.08 -144.796)" fill="#003cff"/>
      </g>
    </g>
    <g id="Group_196" data-name="Group 196" transform="translate(40.676 90.845)">
      <g id="Group_195" data-name="Group 195">
        <path id="Path_293" data-name="Path 293" d="M356.117,144.8a5.726,5.726,0,1,0,5.726,5.726A5.732,5.732,0,0,0,356.117,144.8Zm0,9.082a3.356,3.356,0,1,1,3.356-3.356A3.36,3.36,0,0,1,356.117,153.878Z" transform="translate(-350.391 -144.796)" fill="#003cff"/>
      </g>
    </g>
    <g id="Group_198" data-name="Group 198" transform="translate(0 99.411)">
      <g id="Group_197" data-name="Group 197">
        <path id="Path_294" data-name="Path 294" d="M58.267,240.651h-3.33v-8.724a8.523,8.523,0,0,0-15.052-5.489,10.529,10.529,0,0,0-20.32,0,8.517,8.517,0,0,0-15.047,5.484v8.724H1.184a1.185,1.185,0,0,0,0,2.37H58.267a1.185,1.185,0,0,0,0-2.37Zm-39.073,0H6.887v-8.724a6.154,6.154,0,1,1,12.308,0v8.724Zm18.685,0H21.563V229.216a8.163,8.163,0,1,1,16.325,0Zm14.689,0H40.257V231.6a6.16,6.16,0,0,1,12.312.322Z" transform="translate(0 -218.673)" fill="#003cff"/>
      </g>
    </g>
  </g>
</svg>
