<svg xmlns="http://www.w3.org/2000/svg" width="8.828" height="14.816" viewBox="0 0 8.828 14.816">
  <g id="Group_121" data-name="Group 121" transform="translate(-306.586 -6751.586)">
    <line id="Line_41" data-name="Line 41" x1="6" y2="5.994" transform="translate(308 6753)" fill="none" stroke="#135695" stroke-linecap="round" stroke-width="2"/>
    <g id="Line_42" data-name="Line 42" transform="translate(306.587 6757.58)" fill="none" stroke-linecap="round">
      <path d="M1.414,1.414,7.408,7.408" stroke="none"/>
      <path d="M 7.408355236053467 8.408203125 C 7.472335815429688 8.408203125 7.536316871643066 8.402100563049316 7.599349498748779 8.389896392822266 C 7.662382125854492 8.377693176269531 7.724467277526855 8.359387397766113 7.784657001495361 8.334980010986328 C 7.844846725463867 8.310572624206543 7.903140544891357 8.280063629150391 7.958590984344482 8.243452072143555 C 8.014041900634766 8.206840515136719 8.066649436950684 8.164127349853516 8.11546516418457 8.115312576293945 C 8.213095664978027 8.017680168151855 8.286317825317383 7.90488338470459 8.335132598876953 7.784504413604736 C 8.383947372436523 7.664125442504883 8.408355712890625 7.536164283752441 8.408355712890625 7.408203125 C 8.408355712890625 7.280241966247559 8.383947372436523 7.152280330657959 8.335132598876953 7.031901359558105 C 8.286317825317383 6.911521911621094 8.213095664978027 6.798725128173828 8.11546516418457 6.701092720031738 L 2.121325492858887 0.7069528102874756 C 2.072509288787842 0.6581377983093262 2.019902229309082 0.615424633026123 1.964451313018799 0.578813374042511 C 1.909000396728516 0.5422021150588989 1.850706577301025 0.5116927623748779 1.79051685333252 0.4872852563858032 C 1.730327606201172 0.4628777503967285 1.668242454528809 0.4445721507072449 1.605209350585938 0.4323683977127075 C 1.542176723480225 0.4201647043228149 1.478196144104004 0.4140627980232239 1.414215564727783 0.4140627980232239 C 1.350234985351563 0.4140627980232239 1.286253929138184 0.4201647043228149 1.223221302032471 0.4323683977127075 C 1.160188674926758 0.4445721507072449 1.098103523254395 0.4628777503967285 1.037913799285889 0.4872852563858032 C 0.9777240753173828 0.5116927623748779 0.9194302558898926 0.5422021150588989 0.8639793395996094 0.578813374042511 C 0.8085289001464844 0.615424633026123 0.7559218406677246 0.6581377983093262 0.7071056365966797 0.7069528102874756 C 0.6094756126403809 0.804585337638855 0.5362529754638672 0.9173821806907654 0.4874382019042969 1.037761211395264 C 0.4386234283447266 1.158140301704407 0.4142155647277832 1.286101579666138 0.4142155647277832 1.414062738418579 C 0.4142155647277832 1.54202401638031 0.4386234283447266 1.669985294342041 0.4874382019042969 1.790364384651184 C 0.5362529754638672 1.910743474960327 0.6094756126403809 2.023540258407593 0.7071056365966797 2.121172904968262 L 6.701245307922363 8.115312576293945 C 6.750061511993408 8.164127349853516 6.802669048309326 8.206840515136719 6.858119964599609 8.243452072143555 C 6.913570404052734 8.280063629150391 6.971864223480225 8.310572624206543 7.03205394744873 8.334980010986328 C 7.092243194580078 8.359387397766113 7.154328346252441 8.377693176269531 7.217361450195313 8.389896392822266 C 7.280394077301025 8.402100563049316 7.344374656677246 8.408203125 7.408355236053467 8.408203125 Z" stroke="none" fill="#135695"/>
    </g>
  </g>
</svg>
