<svg xmlns="http://www.w3.org/2000/svg" width="89.999" height="90" viewBox="0 0 89.999 90">
  <path id="Subtraction_12" data-name="Subtraction 12" d="M4115,5350a44.855,44.855,0,1,1,17.516-3.536A44.726,44.726,0,0,1,4115,5350Zm-3.333-58.326a16.71,16.71,0,1,0,12.338,5.492l.5-.5h3.833a1.3,1.3,0,0,0,.333-.083l.007,0a1.276,1.276,0,0,1,.327-.081l5.833-5.833a2.127,2.127,0,0,0,.167-1,.918.918,0,0,0-.833-.5h-3.334v-3.333a.92.92,0,0,0-.5-.833h-.024a2.084,2.084,0,0,0-.976.167L4123.5,5291a1.289,1.289,0,0,1-.082.329v0a1.3,1.3,0,0,0-.083.333v3.832l-.5.5A16.6,16.6,0,0,0,4111.667,5291.674Zm0,31.662a15,15,0,1,1,10.023-26.189l-2.963,2.965a10.808,10.808,0,1,0,1.167,1.167l2.963-2.965a15,15,0,0,1-11.189,25.022Zm0-5.833a9.165,9.165,0,1,1,5.849-16.181l-2.919,2.918a5.056,5.056,0,0,0-2.929-.9,5,5,0,1,0,5,5,5.056,5.056,0,0,0-.905-2.93l2.919-2.917a9.169,9.169,0,0,1-7.015,15.014Zm0-5.834a3.333,3.333,0,1,1,1.7-6.2l-2.363,2.363a.808.808,0,0,0,0,1.167,1,1,0,0,0,.667.168c.162,0,.5,0,.5-.168l2.363-2.364a3.329,3.329,0,0,1-2.865,5.032ZM4128,5295h-3v-3l4.167-4.166V5290a.789.789,0,0,0,.834.833h2.166L4128,5295Z" transform="translate(-4070 -5260)" fill="#fff"/>
</svg>
