<svg xmlns="http://www.w3.org/2000/svg" xmlns:xlink="http://www.w3.org/1999/xlink" width="17" height="17" viewBox="0 0 17 17">
  <defs>
    <clipPath id="clip-path">
      <rect id="Rectangle_122" data-name="Rectangle 122" width="17" height="17" transform="translate(1280 2189)" fill="#0224fa" stroke="#707070" stroke-width="1"/>
    </clipPath>
  </defs>
  <g id="Mask_Group_19" data-name="Mask Group 19" transform="translate(-1280 -2189)" clip-path="url(#clip-path)">
    <g id="hosting" transform="translate(1280 2189)">
      <g id="Group_616" data-name="Group 616">
        <g id="Group_615" data-name="Group 615">
          <path id="Path_647" data-name="Path 647" d="M2.854,26.25a.354.354,0,1,0,.354.354A.354.354,0,0,0,2.854,26.25Z" transform="translate(-1.083 -11.375)" fill="#0224fa"/>
          <path id="Path_648" data-name="Path 648" d="M16.938,26.25H14.1a.354.354,0,1,0,0,.708h2.833a.354.354,0,0,0,0-.708Z" transform="translate(-5.958 -11.375)" fill="#0224fa"/>
          <path id="Path_649" data-name="Path 649" d="M13.349,4.266A5.31,5.31,0,0,0,2.833,5.313c0,.12,0,.242.016.372A3.192,3.192,0,0,0,0,8.854a3.1,3.1,0,0,0,.143.9.354.354,0,0,0,.679-.2,2.426,2.426,0,0,1-.114-.7A2.479,2.479,0,0,1,3.165,6.374a.413.413,0,0,0,.348-.115A.351.351,0,0,0,3.6,5.976,4.568,4.568,0,0,1,8.146.708,4.621,4.621,0,0,1,12.7,4.659a.406.406,0,0,0,.406.3,3.187,3.187,0,0,1,.631,6.311.354.354,0,0,0,.069.7.337.337,0,0,0,.07-.007,3.89,3.89,0,0,0-.526-7.7Z" fill="#0224fa"/>
          <path id="Path_650" data-name="Path 650" d="M2.854,21.25a.354.354,0,1,0,.354.354A.354.354,0,0,0,2.854,21.25Z" transform="translate(-1.083 -9.208)" fill="#0224fa"/>
          <path id="Path_651" data-name="Path 651" d="M11.688,18.75H1.063A1.064,1.064,0,0,0,0,19.813v1.417a1.055,1.055,0,0,0,.276.708A1.056,1.056,0,0,0,0,22.646v1.417a1.063,1.063,0,0,0,1.063,1.063H11.688a1.064,1.064,0,0,0,1.063-1.062V22.646a1.055,1.055,0,0,0-.276-.708,1.055,1.055,0,0,0,.276-.708V19.813A1.064,1.064,0,0,0,11.688,18.75Zm.354,5.313a.354.354,0,0,1-.354.354H1.063a.354.354,0,0,1-.354-.354V22.646a.354.354,0,0,1,.354-.354H11.688a.354.354,0,0,1,.354.354Zm0-2.833a.354.354,0,0,1-.354.354H1.063a.354.354,0,0,1-.354-.354V19.813a.354.354,0,0,1,.354-.354H11.688a.354.354,0,0,1,.354.354Z" transform="translate(0 -8.125)" fill="#0224fa"/>
          <path id="Path_652" data-name="Path 652" d="M16.938,21.25H14.1a.354.354,0,0,0,0,.708h2.833a.354.354,0,0,0,0-.708Z" transform="translate(-5.958 -9.208)" fill="#0224fa"/>
        </g>
      </g>
    </g>
  </g>
</svg>
