<svg xmlns="http://www.w3.org/2000/svg" xmlns:xlink="http://www.w3.org/1999/xlink" width="17" height="17" viewBox="0 0 17 17">
  <defs>
    <clipPath id="clip-path">
      <rect id="Rectangle_122" data-name="Rectangle 122" width="17" height="17" transform="translate(1280 2309)" fill="#fff" stroke="#707070" stroke-width="1"/>
    </clipPath>
  </defs>
  <g id="Mask_Group_21" data-name="Mask Group 21" transform="translate(-1280 -2309)" clip-path="url(#clip-path)">
    <g id="Solid" transform="translate(1280 2310.466)">
      <path id="Path_654" data-name="Path 654" d="M2.431,8.828H15.55l-1.43,1.43A.879.879,0,1,0,15.363,11.5L18.294,8.57a.879.879,0,0,0,0-1.244L15.363,4.4A.879.879,0,1,0,14.12,5.639l1.43,1.43H2.431a.879.879,0,1,0,0,1.759Z" transform="translate(-1.552 -4.138)" fill="#0224fa" stroke="#fff" stroke-width="1"/>
      <path id="Path_655" data-name="Path 655" d="M17.672,18.448H4.554l1.43-1.43A.879.879,0,0,0,4.74,15.775L1.809,18.706a.879.879,0,0,0,0,1.244L4.74,22.88a.879.879,0,0,0,1.244-1.244l-1.43-1.43H17.672a.879.879,0,0,0,0-1.759Z" transform="translate(-1.552 -9.069)" fill="#0224fa" stroke="#fff" stroke-width="1"/>
    </g>
  </g>
</svg>
