<svg xmlns="http://www.w3.org/2000/svg" xmlns:xlink="http://www.w3.org/1999/xlink" width="17" height="17" viewBox="0 0 17 17">
  <defs>
    <clipPath id="clip-path">
      <rect id="Rectangle_122" data-name="Rectangle 122" width="17" height="17" transform="translate(1280 2369)" fill="#0224fa" stroke="#707070" stroke-width="1"/>
    </clipPath>
  </defs>
  <g id="Mask_Group_22" data-name="Mask Group 22" transform="translate(-1280 -2369)" clip-path="url(#clip-path)">
    <path id="network" d="M15.145,0a1.854,1.854,0,0,0-1.63,2.739L10.477,5.777a2.456,2.456,0,0,0-3.028,0l-2.37-2.37a1.22,1.22,0,0,0,.175-.624A1.236,1.236,0,1,0,4.018,4.018a1.22,1.22,0,0,0,.624-.175l2.37,2.37a2.457,2.457,0,0,0,0,3.028L3.1,13.156a1.836,1.836,0,1,0,.386.488L7.45,9.678a2.458,2.458,0,0,0,1.2.5v3.14a1.855,1.855,0,1,0,.618,0v-3.14a2.458,2.458,0,0,0,1.2-.5l2.37,2.37a1.219,1.219,0,0,0-.176.624,1.236,1.236,0,1,0,1.236-1.236,1.22,1.22,0,0,0-.624.175l-2.37-2.37a2.457,2.457,0,0,0,0-3.028L13.9,3.226A1.853,1.853,0,1,0,15.145,0ZM3.4,2.782a.618.618,0,1,1,.618.618A.619.619,0,0,1,3.4,2.782ZM1.855,15.764a1.236,1.236,0,1,1,1.236-1.236A1.238,1.238,0,0,1,1.855,15.764Zm8.345-.618a1.236,1.236,0,1,1-1.236-1.236A1.238,1.238,0,0,1,10.2,15.145ZM8.964,9.582a1.855,1.855,0,1,1,1.855-1.855A1.856,1.856,0,0,1,8.964,9.582Zm5.564,3.091a.618.618,0,1,1-.618-.618A.619.619,0,0,1,14.527,12.673Zm.618-9.582a1.236,1.236,0,1,1,1.236-1.236A1.238,1.238,0,0,1,15.145,3.091Z" transform="translate(1280 2369)" fill="#0224fa"/>
  </g>
</svg>
