<svg xmlns="http://www.w3.org/2000/svg" width="20.9" height="20" viewBox="0 0 20.9 20">
  <path id="_1828970_1_" data-name="1828970 (1)" d="M4.678,20.492A1.112,1.112,0,0,1,3.6,19.136l1.345-5.914L.381,9.228a1.11,1.11,0,0,1,.63-1.941L7.044,6.74,9.429,1.166a1.111,1.111,0,0,1,2.043,0l2.385,5.575,6.032.547a1.11,1.11,0,0,1,.631,1.941l-4.56,3.992,1.345,5.914a1.11,1.11,0,0,1-1.653,1.2l-5.2-3.1-5.2,3.106a1.115,1.115,0,0,1-.57.157Zm5.772-4.6a1.115,1.115,0,0,1,.57.157l4.91,2.932L14.661,13.4a1.108,1.108,0,0,1,.352-1.081l4.306-3.771-5.7-.517a1.109,1.109,0,0,1-.923-.672L10.451,2.1,8.2,7.36a1.106,1.106,0,0,1-.92.67l-5.7.517,4.305,3.771A1.106,1.106,0,0,1,6.239,13.4L4.971,18.98l4.91-2.931a1.114,1.114,0,0,1,.57-.157ZM7,6.848v0Zm6.9,0v0Zm0,0" transform="translate(-0.001 -0.492)" fill="#003cff"/>
</svg>
