<svg xmlns="http://www.w3.org/2000/svg" width="21.023" height="20.353" viewBox="0 0 21.023 20.353">
  <g id="_158716" data-name="158716" transform="translate(0.15 -8.349)">
    <g id="Group_221" data-name="Group 221" transform="translate(0 8.552)">
      <g id="Group_220" data-name="Group 220" transform="translate(0 0)">
        <path id="Path_288" data-name="Path 288" d="M17.8,15.072H13.535V12.146a3.511,3.511,0,0,0-1.247-3.028,3.867,3.867,0,0,0-3.15-.393.727.727,0,0,0-.507.693V12.95c0,2.613-3.074,3.522-3.205,3.556-.008,0-.017,0-.021.008l-.351.11a2.194,2.194,0,0,0-1.514-.6H2.207A2.2,2.2,0,0,0,0,18.222v7.594a2.209,2.209,0,0,0,2.207,2.207H3.539a2.184,2.184,0,0,0,1.467-.562,3.042,3.042,0,0,0,2.33,1.091h8.643a3.273,3.273,0,0,0,3.569-2.939l1.074-6.744.059-.364a3.489,3.489,0,0,0,.042-.516A2.93,2.93,0,0,0,17.8,15.072ZM4.3,25.821a.756.756,0,0,1-.757.757H2.207a.756.756,0,0,1-.757-.757v-7.6a.756.756,0,0,1,.757-.757H3.539a.756.756,0,0,1,.757.757Zm14.952-7.539L18.114,25.4c0,.008,0,.017,0,.025-.051.414-.2,1.679-2.131,1.679H7.336a1.593,1.593,0,0,1-1.59-1.59V18.222a2.257,2.257,0,0,0-.021-.292l.106-.034c.309-.089,4.25-1.3,4.25-4.951v-2.93a1.987,1.987,0,0,1,1.353.275,2.2,2.2,0,0,1,.651,1.856V15.8a.727.727,0,0,0,.727.727H17.8a1.468,1.468,0,0,1,1.467,1.467A2.247,2.247,0,0,1,19.248,18.282Z" transform="translate(0 -8.552)" fill="#003cff" stroke="#fff" stroke-width="0.3"/>
      </g>
    </g>
  </g>
</svg>
