<svg xmlns="http://www.w3.org/2000/svg" width="5" height="10" viewBox="0 0 5 10">
  <g id="Group_18" data-name="Group 18" transform="translate(-1016 -322)">
    <path id="Polygon_1" data-name="Polygon 1" d="M2.246.407a.3.3,0,0,1,.509,0L4.713,3.541A.3.3,0,0,1,4.459,4H.541a.3.3,0,0,1-.254-.459Z" transform="translate(1016 322)" fill="#2a2a2a"/>
    <path id="Polygon_2" data-name="Polygon 2" d="M2.246.407a.3.3,0,0,1,.509,0L4.713,3.541A.3.3,0,0,1,4.459,4H.541a.3.3,0,0,1-.254-.459Z" transform="translate(1021 332) rotate(180)" fill="#2a2a2a"/>
  </g>
</svg>
