<svg xmlns="http://www.w3.org/2000/svg" width="16.356" height="18" viewBox="0 0 16.356 18">
  <g id="shield-badge-with-outline" transform="translate(0.518 2.5)">
    <path id="Subtraction_1" data-name="Subtraction 1" d="M3122.8,4957c-.025,0-.048-.058-.095-.173l-.038-.094c-.449-1.093-1.935-1.751-3.509-2.449-1.611-.714-3.278-1.452-3.739-2.7a2.594,2.594,0,0,1,.225-2.072c1.894-3.947.176-6.213-.4-6.813a.293.293,0,0,1-.012-.4l1.893-2.034a.38.38,0,0,1,.275-.111.385.385,0,0,1,.167.037,4.717,4.717,0,0,0,2.086.447,8.06,8.06,0,0,0,2.884-.591.709.709,0,0,1,.259-.043.743.743,0,0,1,.259.042,8.116,8.116,0,0,0,2.884.591,4.722,4.722,0,0,0,2.086-.447.4.4,0,0,1,.442.075l1.892,2.034a.289.289,0,0,1-.011.4c-.572.6-2.29,2.867-.4,6.813a2.593,2.593,0,0,1,.225,2.072c-.461,1.249-2.126,1.987-3.737,2.7-1.576.7-3.062,1.356-3.511,2.45l-.007.017-.027.067C3122.847,4956.938,3122.823,4957,3122.8,4957Zm-3.479-14.672a.235.235,0,0,0-.176.076l-1.22,1.4a.21.21,0,0,0,.008.276c.369.414,1.477,1.977.255,4.7-.82,1.832.749,2.576,2.265,3.3,1.014.481,1.972.936,2.262,1.69l.022.058c.031.084.047.126.063.126s.033-.044.066-.132l.02-.052c.289-.755,1.247-1.209,2.261-1.69,1.517-.72,3.085-1.464,2.265-3.3-1.219-2.723-.112-4.289.256-4.7a.212.212,0,0,0,.008-.276l-1.22-1.4a.24.24,0,0,0-.285-.05,2.878,2.878,0,0,1-1.344.308,4.922,4.922,0,0,1-1.86-.407.467.467,0,0,0-.333,0,4.935,4.935,0,0,1-1.861.407,2.878,2.878,0,0,1-1.344-.308A.232.232,0,0,0,3119.319,4942.328Z" transform="translate(-3115.138 -4942)" fill="#003cff" stroke="rgba(0,0,0,0)" stroke-miterlimit="10" stroke-width="1"/>
  </g>
</svg>
