<svg id="_66933" data-name="66933" xmlns="http://www.w3.org/2000/svg" width="20.849" height="20.003" viewBox="0 0 20.849 20.003">
  <g id="Group_11" data-name="Group 11">
    <path id="Path_2" data-name="Path 2" d="M3.655,0H17.193a3.655,3.655,0,0,1,3.655,3.655v8.35a3.655,3.655,0,0,1-3.655,3.655H8.57L4.442,19.789A.731.731,0,0,1,3.925,20q-.035,0-.071,0t-.07-.01q-.035-.007-.07-.017t-.069-.025a.731.731,0,0,1-.451-.675v-3.64a3.627,3.627,0,0,1-1.258-.4,3.677,3.677,0,0,1-1.69-1.906A3.637,3.637,0,0,1,0,12.006V3.655A3.655,3.655,0,0,1,3.655,0ZM1.462,12.006A2.193,2.193,0,0,0,3.655,14.2h.27a.731.731,0,0,1,.731.731v2.577l3.094-3.094a.731.731,0,0,1,.517-.214h8.926a2.193,2.193,0,0,0,2.193-2.193V3.655a2.193,2.193,0,0,0-2.193-2.193H3.655A2.193,2.193,0,0,0,1.462,3.655Z" fill="#fff"/>
    <path id="Path_3" data-name="Path 3" d="M.731,0H11.492a.731.731,0,1,1,0,1.462H.731A.731.731,0,1,1,.731,0Z" transform="translate(4.313 5.177)" fill="#fff"/>
    <path id="Path_4" data-name="Path 4" d="M.731,0H11.492a.731.731,0,1,1,0,1.462H.731A.731.731,0,1,1,.731,0Z" transform="translate(4.313 9.27)" fill="#fff"/>
  </g>
</svg>
