<svg xmlns="http://www.w3.org/2000/svg" width="15" height="20" viewBox="0 0 15 20">
  <g id="_2089736" data-name="2089736" transform="translate(-68.891)">
    <path id="Path_290" data-name="Path 290" d="M83.266,172.228H81.391v1.25h1.25v11.246h-12.5V173.478h1.25v-1.25H69.516a.625.625,0,0,0-.625.625v12.5a.625.625,0,0,0,.625.625h13.75a.625.625,0,0,0,.625-.625v-12.5A.625.625,0,0,0,83.266,172.228Z" transform="translate(0 -165.973)" fill="#003cff"/>
    <path id="Path_291" data-name="Path 291" d="M163.616,2.394v8.864h1.249V2.394l2.681,2.685.883-.884L164.24,0l-4.189,4.2.883.884Z" transform="translate(-87.849)" fill="#003cff"/>
  </g>
</svg>
