<svg id="investor" xmlns="http://www.w3.org/2000/svg" width="35" height="35" viewBox="0 0 35 35">
  <path id="Path" d="M8.881,4.868v5.289H0V4.868A3.956,3.956,0,0,1,1.956,1.454L4.44,0,6.924,1.455A3.953,3.953,0,0,1,8.881,4.868Z" transform="translate(1.608 5.208)" fill="#ff9100"/>
  <path id="Path-2" data-name="Path" d="M4.44,4.868v5.289H0V0L2.484,1.455A3.954,3.954,0,0,1,4.44,4.868Z" transform="translate(6.044 5.208)" fill="#ff4b00"/>
  <circle id="Oval" cx="3.119" cy="3.119" r="3.119" transform="translate(2.929 0)" fill="#ffbeaa"/>
  <path id="Path-3" data-name="Path" d="M3.119,3.119A3.119,3.119,0,0,1,0,6.238V0A3.119,3.119,0,0,1,3.119,3.119Z" transform="translate(6.044)" fill="#ffa68d"/>
  <path id="Path-4" data-name="Path" d="M8.881,4.868v5.289H0V4.868A3.956,3.956,0,0,1,1.956,1.454L4.44,0,6.924,1.455A3.954,3.954,0,0,1,8.881,4.868Z" transform="translate(13.06 5.208)" fill="#ff9100"/>
  <path id="Path-5" data-name="Path" d="M4.44,4.868v5.289H0V0L2.484,1.455A3.954,3.954,0,0,1,4.44,4.868Z" transform="translate(17.499 5.208)" fill="#ff4b00"/>
  <circle id="Oval-2" data-name="Oval" cx="3.119" cy="3.119" r="3.119" transform="translate(14.381 0)" fill="#ffbeaa"/>
  <path id="Path-6" data-name="Path" d="M3.119,3.119A3.119,3.119,0,0,1,0,6.238V0A3.119,3.119,0,0,1,3.119,3.119Z" transform="translate(17.499)" fill="#ffa68d"/>
  <path id="Path-7" data-name="Path" d="M8.881,4.868v5.289H0V4.868A3.956,3.956,0,0,1,1.956,1.454L4.44,0,6.924,1.455A3.954,3.954,0,0,1,8.881,4.868Z" transform="translate(24.512 5.208)" fill="#ff9100"/>
  <path id="Path-8" data-name="Path" d="M4.44,4.868v5.289H0V0L2.484,1.455A3.954,3.954,0,0,1,4.44,4.868Z" transform="translate(28.952 5.208)" fill="#ff4b00"/>
  <circle id="Oval-3" data-name="Oval" cx="3.119" cy="3.119" r="3.119" transform="translate(25.833 0)" fill="#ffbeaa"/>
  <path id="Path-9" data-name="Path" d="M3.119,3.119A3.119,3.119,0,0,1,0,6.238V0A3.119,3.119,0,0,1,3.119,3.119Z" transform="translate(28.952)" fill="#ffa68d"/>
  <path id="Path-10" data-name="Path" d="M35,1.03V21.149a1.03,1.03,0,0,1-1.029,1.03H1.029A1.03,1.03,0,0,1,0,21.149V1.03A1.03,1.03,0,0,1,1.029,0H33.971A1.03,1.03,0,0,1,35,1.03Z" transform="translate(0 12.821)" fill="#00ab5e"/>
  <path id="Path-11" data-name="Path" d="M17.51,1.03V21.149a1.03,1.03,0,0,1-1.03,1.03H0V0H16.48A1.03,1.03,0,0,1,17.51,1.03Z" transform="translate(17.49 12.821)" fill="#008575"/>
  <path id="Path-12" data-name="Path" d="M30.88,4.357v9.157a.688.688,0,0,1-.583.678,3.723,3.723,0,0,0-3.094,3.1.687.687,0,0,1-.678.583H4.355a.687.687,0,0,1-.678-.583,3.723,3.723,0,0,0-3.094-3.1A.688.688,0,0,1,0,13.514V4.357a.688.688,0,0,1,.583-.678A3.723,3.723,0,0,0,3.677.583.687.687,0,0,1,4.355,0H26.525A.687.687,0,0,1,27.2.583a3.723,3.723,0,0,0,3.094,3.1A.688.688,0,0,1,30.88,4.357Z" transform="translate(2.06 14.975)" fill="#ffe9cb"/>
  <path id="Path-13" data-name="Path" d="M15.45,4.357v9.157a.688.688,0,0,1-.583.678,3.725,3.725,0,0,0-3.1,3.1.687.687,0,0,1-.678.583H0V0H11.092a.687.687,0,0,1,.678.583,3.725,3.725,0,0,0,3.1,3.1A.688.688,0,0,1,15.45,4.357Z" transform="translate(17.49 14.975)" fill="#ffd17b"/>
  <path id="Path-14" data-name="Path" d="M1.03,0A1.03,1.03,0,0,0,0,1.03V3.09a1.03,1.03,0,0,0,2.06,0V1.03A1.03,1.03,0,0,0,1.03,0Z" transform="translate(7.171 21.856)" fill="#00ab5e"/>
  <path id="Path-15" data-name="Path" d="M1.03,0A1.03,1.03,0,0,0,0,1.03V3.09a1.03,1.03,0,0,0,2.06,0V1.03A1.03,1.03,0,0,0,1.03,0Z" transform="translate(25.769 21.856)" fill="#008575"/>
  <path id="Shape" d="M0,3.948A3.948,3.948,0,1,1,3.948,7.9,3.952,3.952,0,0,1,0,3.948Z" transform="translate(13.552 19.967)" fill="#00ab5e"/>
  <path id="Path-16" data-name="Path" d="M3.948,3.948A3.952,3.952,0,0,1,0,7.9V5.837A1.891,1.891,0,0,0,1.888,3.948,1.891,1.891,0,0,0,0,2.06V0A3.952,3.952,0,0,1,3.948,3.948Z" transform="translate(17.499 19.967)" fill="#008575"/>
</svg>
