<svg id="seo" xmlns="http://www.w3.org/2000/svg" width="35" height="35" viewBox="0 0 35 35">
  <path id="Path" d="M18.835,14.645a7.819,7.819,0,0,1,9.5-1.2V0H0V24.7a.782.782,0,0,0,.779.779H18.633A7.82,7.82,0,0,1,18.835,14.645Z" transform="translate(0 4.19)" fill="#eef6ff"/>
  <path id="Path-2" data-name="Path" d="M1.768,24.7V0H0V24.7a.782.782,0,0,0,.779.779H2.547A.782.782,0,0,1,1.768,24.7Z" transform="translate(0 4.19)" fill="#c3ddf4"/>
  <path id="Path-3" data-name="Path" d="M27.889,0H.446A.447.447,0,0,0,0,.446V4.411H28.334V.446A.447.447,0,0,0,27.889,0Z" fill="#293d7c"/>
  <path id="Path-4" data-name="Path" d="M2.213,0H.446A.447.447,0,0,0,0,.446V4.411H1.768V.446A.447.447,0,0,1,2.213,0Z" fill="#1a2b63"/>
  <path id="Path-5" data-name="Path" d="M9.465,6.619a.391.391,0,0,1-.39.39H.39A.391.391,0,0,1,0,6.619V.39A.391.391,0,0,1,.39,0H9.076a.391.391,0,0,1,.39.39V6.619Z" transform="translate(2.869 7.279)" fill="#69cdff"/>
  <path id="Path-6" data-name="Path" d="M1.768,6.619V.39A.391.391,0,0,1,2.157,0H.39A.391.391,0,0,0,0,.39V6.619a.391.391,0,0,0,.39.39H2.157A.391.391,0,0,1,1.768,6.619Z" transform="translate(2.869 7.279)" fill="#52bbef"/>
  <path id="Path-7" data-name="Path" d="M14.055,0H.39A.391.391,0,0,0,0,.39V4.116a.391.391,0,0,0,.39.39H13.971A7.865,7.865,0,0,1,14.055,0Z" transform="translate(2.869 21.899)" fill="#ff9518"/>
  <path id="Path-8" data-name="Path" d="M1.768,4.116V.39A.391.391,0,0,1,2.157,0H.39A.391.391,0,0,0,0,.39V4.116a.391.391,0,0,0,.39.39H2.157A.391.391,0,0,1,1.768,4.116Z" transform="translate(2.869 21.899)" fill="#ef8318"/>
  <path id="Path-9" data-name="Path" d="M2.829,0H0V4.506H2.744A7.865,7.865,0,0,1,2.829,0Z" transform="translate(14.057 21.899)" fill="#ffd00d"/>
  <g id="Group" transform="translate(2.285 6.69)">
    <path id="Path-10" data-name="Path" d="M10.139,1.169H.585A.585.585,0,0,1,.585,0h9.555a.585.585,0,1,1,0,1.169Z" transform="translate(12.576 0)" fill="#91e0e8"/>
    <path id="Path-11" data-name="Path" d="M10.139,1.169H.585A.585.585,0,0,1,.585,0h9.555a.585.585,0,1,1,0,1.169Z" transform="translate(12.576 2.336)" fill="#91e0e8"/>
    <path id="Path-12" data-name="Path" d="M10.139,1.169H.585A.585.585,0,0,1,.585,0h9.555a.585.585,0,1,1,0,1.169Z" transform="translate(12.576 4.672)" fill="#91e0e8"/>
    <path id="Path-13" data-name="Path" d="M10.139,1.169H.585A.585.585,0,0,1,.585,0h9.555a.585.585,0,1,1,0,1.169Z" transform="translate(12.576 7.008)" fill="#91e0e8"/>
    <path id="Path-14" data-name="Path" d="M21.055,0H.585a.585.585,0,0,0,0,1.169h17.27A7.727,7.727,0,0,1,21.055,0Z" transform="translate(0 9.895)" fill="#91e0e8"/>
    <path id="Path-15" data-name="Path" d="M16.4,0H.585a.585.585,0,0,0,0,1.169h14.9A7.8,7.8,0,0,1,16.4,0Z" transform="translate(0 12.273)" fill="#91e0e8"/>
  </g>
  <path id="Path-16" data-name="Path" d="M.585,1.169A.583.583,0,0,1,0,.585.584.584,0,0,1,.585,0,.585.585,0,0,1,1,1,.589.589,0,0,1,.585,1.169Z" transform="translate(2.135 1.528)" fill="#e26693"/>
  <path id="Path-17" data-name="Path" d="M.585,1.169A.585.585,0,0,1,.585,0,.585.585,0,0,1,1,1,.588.588,0,0,1,.585,1.169Z" transform="translate(4.052 1.528)" fill="#ffaf10"/>
  <path id="Path-18" data-name="Path" d="M.585,1.169A.584.584,0,1,1,1,1,.588.588,0,0,1,.585,1.169Z" transform="translate(5.954 1.528)" fill="#37c47a"/>
  <path id="Path-19" data-name="Path" d="M1.6,0,0,1.6,3.152,4.754a19.219,19.219,0,0,0,1.6-1.6Z" transform="translate(30.246 30.246)" fill="#445ea0"/>
  <path id="Path-20" data-name="Path" d="M4.529,1.328,3.2,0A7.781,7.781,0,0,1,1.837,1.839,7.838,7.838,0,0,1,0,3.207L1.325,4.532a.391.391,0,0,0,.551,0L4.529,1.879A.391.391,0,0,0,4.529,1.328Z" transform="translate(27.955 27.952)" fill="#293d7c"/>
  <path id="Path-21" data-name="Path" d="M2.235,1.133,1.1,0A7.785,7.785,0,0,1,0,.717L1.325,2.043a.391.391,0,0,0,.551,0l.909-.909A.391.391,0,0,1,2.235,1.133Z" transform="translate(27.955 30.441)" fill="#1a2b63"/>
  <path id="Path-22" data-name="Path" d="M13.6,2.333a7.967,7.967,0,1,1-11.267,0A7.967,7.967,0,0,1,13.6,2.333Z" transform="translate(16.302 16.302)" fill="#445ea0"/>
  <path id="Path-23" data-name="Path" d="M9.536,9.535a5.586,5.586,0,1,1,0-7.9A5.586,5.586,0,0,1,9.536,9.535Z" transform="translate(18.683 18.683)" fill="#69cdff"/>
  <path id="Path-24" data-name="Path" d="M9.536,8.441a5.623,5.623,0,0,0,.541-.628A5.586,5.586,0,0,1,2.264,0,5.586,5.586,0,1,0,9.536,8.441Z" transform="translate(18.705 19.777)" fill="#52bbef"/>
  <path id="Path-25" data-name="Path" d="M18.854,0H0V4.411H19.3V.446A.447.447,0,0,0,18.854,0Z" transform="translate(8.983)" fill="#445ea0"/>
  <g id="Group-2" data-name="Group" transform="translate(24.313 19.628)">
    <circle id="Oval" cx="0.935" cy="0.935" r="0.935" transform="translate(0 0)" fill="#d9eafc"/>
    <circle id="Oval-2" data-name="Oval" cx="0.663" cy="0.663" r="0.663" transform="translate(2.238 1.245)" fill="#d9eafc"/>
  </g>
</svg>
