<svg xmlns="http://www.w3.org/2000/svg" xmlns:xlink="http://www.w3.org/1999/xlink" width="170" height="80" viewBox="0 0 170 80">
  <defs>
    <clipPath id="clip-path">
      <rect id="Rectangle_53" data-name="Rectangle 53" width="170" height="80" transform="translate(220 7169)" fill="#d8dce1" stroke="#707070" stroke-width="1"/>
    </clipPath>
  </defs>
  <g id="Mask_Group_19" data-name="Mask Group 19" transform="translate(-220 -7169)" clip-path="url(#clip-path)">
    <g id="adidas" transform="translate(245.425 7168.605)">
      <path id="Path_69" data-name="Path 69" d="M109.694,80.36c-5.536,0-8.819-2.833-9.071-6.914h5.293c0,1.36.754,3.171,4.029,3.283,2.27,0,3.526-1.36,3.526-2.382-.251-1.586-2.27-1.7-4.28-2.044a20.689,20.689,0,0,1-5.293-1.352,5.421,5.421,0,0,1-2.773-4.877c0-3.63,3.032-6.464,8.317-6.464,5.042,0,8.317,2.608,8.559,6.576h-5.033c0-1.014-.251-2.72-3.275-2.72-2.018,0-3.274.338-3.526,1.81,0,2.045,4.28,1.932,7.555,2.72,3.023.8,5.042,2.72,5.042,5.45,0,4.99-4.029,6.914-9.07,6.914m-96.46-33.48L30.613,36.786,39.935,52.78H16.509" fill="#d8dce1"/>
      <path id="Path_70" data-name="Path 70" d="M49.78,79.758V59.572" fill="#d8dce1" stroke="#d8dce1" stroke-width="5.086"/>
      <path id="Path_71" data-name="Path 71" d="M5.168,69.964a5.917,5.917,0,0,0,5.787,5.779,5.748,5.748,0,0,0,5.8-5.779,5.82,5.82,0,0,0-5.8-5.779,6,6,0,0,0-5.787,5.779M10.7,80.395a10.375,10.375,0,0,1,0-20.749,10.209,10.209,0,0,1,6.047,1.81V59.87h5.042V79.935H16.751V78.688A10.347,10.347,0,0,1,10.7,80.395m67.266-27.62L53.791,10.6,71.169.395,101.4,52.775M28.343,69.964a5.754,5.754,0,0,0,5.8,5.779,5.925,5.925,0,0,0,5.8-5.779,6,6,0,0,0-5.8-5.779,5.825,5.825,0,0,0-5.8,5.779m5.545,10.431a10.376,10.376,0,1,1,6.047-18.939v-8.5h5.034V79.935H39.934V78.688a10.957,10.957,0,0,1-6.047,1.707m-.248-51.541,17.63-9.972,19.4,33.892H52.275v4.99H47.241v-4.99M115.5,57.921a2.5,2.5,0,1,1,0-4.99,2.5,2.5,0,1,1,0,4.991m0-4.644a2.158,2.158,0,1,0,2.01,2.148,2.023,2.023,0,0,0-2.01-2.148" fill="#d8dce1"/>
      <path id="Path_72" data-name="Path 72" d="M116.019,56.795l-.5-1.135h-.5v1.135h-.381v-2.72h1.135a.9.9,0,0,1,.754.8.806.806,0,0,1-.5.788l.5,1.135m-1.005-2.374h-.5v.9h.5c.5,0,.5-.112.5-.451,0-.234,0-.45-.5-.45M82.23,69.964a5.754,5.754,0,0,0,5.8,5.779,5.911,5.911,0,0,0,5.787-5.779,5.991,5.991,0,0,0-5.787-5.779,5.825,5.825,0,0,0-5.8,5.779m5.536,10.431a10.376,10.376,0,1,1,6.047-18.939V59.87H98.6V79.935H93.814V78.688a10.918,10.918,0,0,1-6.048,1.707M59.073,69.964a5.918,5.918,0,0,0,5.8,5.779,5.753,5.753,0,0,0,5.8-5.779,5.825,5.825,0,0,0-5.8-5.779,6,6,0,0,0-5.8,5.779M70.664,52.957H75.7V79.935H70.664V78.688a9.588,9.588,0,0,1-5.8,1.707,10.377,10.377,0,1,1,0-20.749,9,9,0,0,1,5.8,1.81Z" fill="#d8dce1"/>
    </g>
  </g>
</svg>
