<svg xmlns="http://www.w3.org/2000/svg" xmlns:xlink="http://www.w3.org/1999/xlink" width="170" height="80" viewBox="0 0 170 80">
  <defs>
    <clipPath id="clip-path">
      <rect id="Rectangle_58" data-name="Rectangle 58" width="170" height="80" transform="translate(1540 7169)" fill="#d8dce1" stroke="#707070" stroke-width="1"/>
    </clipPath>
  </defs>
  <g id="Mask_Group_25" data-name="Mask Group 25" transform="translate(-1540 -7169)" clip-path="url(#clip-path)">
    <path id="airbnb" d="M264.556,246.77a3.452,3.452,0,1,1-3.453-3.452A3.445,3.445,0,0,1,264.556,246.77Zm-14.233,6.958v.85a6.632,6.632,0,0,0-5.151-2.125,10.518,10.518,0,0,0,0,21.031,6.449,6.449,0,0,0,5.151-2.177v.9a.726.726,0,0,0,.744.743h4.3V252.981h-4.3a.763.763,0,0,0-.744.746Zm0,12.8a5.275,5.275,0,0,1-4.3,2.178c-3.4,0-6-2.124-6-5.736s2.6-5.736,6-5.736a5.421,5.421,0,0,1,4.3,2.177Zm8.232-13.543h5.1v19.969h-5.1V252.983Zm76.157-.532a6.636,6.636,0,0,0-5.152,2.125V243.371h-5.1v29.581h4.3a.759.759,0,0,0,.743-.744v-.9a6.577,6.577,0,0,0,5.151,2.177,10.519,10.519,0,0,0,.054-21.032Zm-.85,16.2a5.2,5.2,0,0,1-4.3-2.177v-7.117a5.764,5.764,0,0,1,4.3-2.177c3.4,0,6,2.124,6,5.736S337.261,268.65,333.862,268.65Zm-12.055-7.541v11.9h-5.1V261.693c0-3.292-1.062-4.621-3.928-4.621a5.707,5.707,0,0,0-4.144,1.966v13.915h-5.1V252.983h4.035a.76.76,0,0,1,.744.744v.85a7.315,7.315,0,0,1,5.416-2.125,8.27,8.27,0,0,1,5.577,1.913C321.115,255.852,321.807,257.763,321.807,261.109Zm-30.644-8.658a6.635,6.635,0,0,0-5.151,2.125V243.371h-5.1v29.581h4.3a.76.76,0,0,0,.744-.744v-.9a6.577,6.577,0,0,0,5.151,2.177,10.519,10.519,0,0,0,.053-21.032Zm-.85,16.2a5.2,5.2,0,0,1-4.3-2.177v-7.117a5.764,5.764,0,0,1,4.3-2.177c3.4,0,6,2.124,6,5.736S293.712,268.65,290.313,268.65Zm-13.807-16.2a8.109,8.109,0,0,1,2.337.266v4.726s-4.249-1.434-6.9,1.594V273h-5.1V252.983h4.3a.759.759,0,0,1,.743.744v.85a6.979,6.979,0,0,1,4.621-2.125Zm-52.948,18.695c-.265-.637-.531-1.327-.8-1.912-.426-.956-.85-1.859-1.221-2.708l-.053-.053c-3.665-7.967-7.594-16.038-11.737-24l-.159-.319q-.654-1.239-1.274-2.5a15.283,15.283,0,0,0-1.912-2.921,8.578,8.578,0,0,0-6.744-3.293,8.912,8.912,0,0,0-6.8,3.186,18.211,18.211,0,0,0-1.912,2.921q-.622,1.256-1.274,2.5l-.16.319c-4.089,7.966-8.072,16.038-11.737,24l-.054.106c-.371.851-.8,1.753-1.222,2.708q-.4.877-.8,1.912a11.916,11.916,0,0,0-.637,5.736,11.287,11.287,0,0,0,6.9,8.816,10.9,10.9,0,0,0,4.3.85,11.988,11.988,0,0,0,1.381-.107,14.029,14.029,0,0,0,5.311-1.8,26.9,26.9,0,0,0,6.585-5.523,27.906,27.906,0,0,0,6.585,5.523,14.032,14.032,0,0,0,5.311,1.8,11.873,11.873,0,0,0,1.382.107,10.712,10.712,0,0,0,4.3-.85,11.266,11.266,0,0,0,6.9-8.816,10.062,10.062,0,0,0-.481-5.682Zm-23.951,2.762c-2.868-3.611-4.727-7.01-5.364-9.877a8.566,8.566,0,0,1-.159-3.24,5.144,5.144,0,0,1,.85-2.231,5.64,5.64,0,0,1,4.674-2.337,5.439,5.439,0,0,1,4.674,2.337,5.167,5.167,0,0,1,.85,2.231,8.548,8.548,0,0,1-.16,3.24C204.332,266.844,202.473,270.244,199.606,273.908Zm21.189,2.5a7.892,7.892,0,0,1-4.832,6.214,8.042,8.042,0,0,1-4.036.531,10.458,10.458,0,0,1-4.036-1.38,24.815,24.815,0,0,1-6.055-5.152c3.5-4.3,5.629-8.232,6.426-11.736a13.288,13.288,0,0,0,.265-4.515,8.611,8.611,0,0,0-1.434-3.611,8.95,8.95,0,0,0-7.489-3.771,9.086,9.086,0,0,0-7.488,3.771,8.619,8.619,0,0,0-1.434,3.611,11.032,11.032,0,0,0,.265,4.515c.8,3.5,2.974,7.488,6.425,11.789a23.857,23.857,0,0,1-6.055,5.152,10.426,10.426,0,0,1-4.035,1.38,8.5,8.5,0,0,1-4.036-.531,7.893,7.893,0,0,1-4.832-6.214,8.786,8.786,0,0,1,.478-4.142c.159-.532.425-1.062.69-1.7.372-.85.8-1.753,1.221-2.656l.054-.106c3.664-7.914,7.594-15.986,11.683-23.845l.159-.319c.425-.8.85-1.646,1.275-2.443a11.66,11.66,0,0,1,1.487-2.338,5.576,5.576,0,0,1,8.5,0,11.751,11.751,0,0,1,1.487,2.338c.425.8.85,1.647,1.274,2.443l.16.319q6.041,11.838,11.631,23.9v.053c.425.851.8,1.806,1.222,2.657.265.636.531,1.167.69,1.7a8.976,8.976,0,0,1,.37,4.088Z" transform="translate(1365.039 6949.034)" fill="#d8dce1"/>
  </g>
</svg>
