<svg xmlns="http://www.w3.org/2000/svg" xmlns:xlink="http://www.w3.org/1999/xlink" width="170" height="80" viewBox="0 0 170 80">
  <defs>
    <clipPath id="clip-path">
      <rect id="Rectangle_55" data-name="Rectangle 55" width="170" height="80" transform="translate(880 7169)" fill="#fff" stroke="#707070" stroke-width="1"/>
    </clipPath>
    <clipPath id="clip-path-2">
      <path id="Path_85" data-name="Path 85" d="M1060.476-52.119h170v28.846h-170Z" fill="#d8dce1"/>
    </clipPath>
    <clipPath id="clip-path-3">
      <path id="Path_84" data-name="Path 84" d="M1060.476-23.273h170V-52.119h-170Z" fill="#d8dce1"/>
    </clipPath>
    <clipPath id="clip-path-5">
      <path id="Path_89" data-name="Path 89" d="M1060.476-51.55H1230.44v28.24H1060.476Z" fill="#d8dce1"/>
    </clipPath>
    <clipPath id="clip-path-7">
      <path id="Path_94" data-name="Path 94" d="M1060.476-52.119h170v28.846h-170Z"/>
    </clipPath>
    <clipPath id="clip-path-8">
      <path id="Path_93" data-name="Path 93" d="M1060.476-23.273h170V-52.119h-170Z"/>
    </clipPath>
  </defs>
  <g id="Mask_Group_22" data-name="Mask Group 22" transform="translate(-880 -7169)" clip-path="url(#clip-path)">
    <g id="booking" transform="translate(879.64 7194.786)">
      <g id="Group_126" data-name="Group 126" transform="translate(-1060.116 51.91)" clip-path="url(#clip-path-2)">
        <g id="Group_125" data-name="Group 125" clip-path="url(#clip-path-3)">
          <path id="Path_81" data-name="Path 81" d="M1127.141-48.962a2.583,2.583,0,0,1,2.583-2.583,2.583,2.583,0,0,1,2.583,2.583,2.585,2.585,0,0,1-2.583,2.487,2.585,2.585,0,0,1-2.583-2.487" fill="#d8dce1"/>
          <path id="Path_82" data-name="Path 82" d="M1167.9-31.733a2.584,2.584,0,0,1,2.578-2.592,2.59,2.59,0,0,1,2.59,2.59,2.59,2.59,0,0,1-2.59,2.59,2.586,2.586,0,0,1-2.578-2.59" fill="#d8dce1"/>
          <path id="Path_83" data-name="Path 83" d="M1084.746-32.854c-2.224,0-3.771-1.767-3.771-4.292s1.547-4.289,3.772-4.289,3.8,1.765,3.8,4.289C1088.547-34.581,1087.018-32.854,1084.746-32.854Zm0-12.353a7.827,7.827,0,0,0-8.122,8.061,7.827,7.827,0,0,0,8.122,8.061,7.841,7.841,0,0,0,8.155-8.059,7.842,7.842,0,0,0-8.153-8.063m37.391,8.466a3.845,3.845,0,0,0-.615-.869l-.144-.149.151-.144a6.472,6.472,0,0,0,.65-.811l4.155-6.174h-5.044l-3.121,4.83a1.215,1.215,0,0,1-1.067.389h-.711V-48.8c0-1.826-1.139-2.074-2.367-2.074h-2.1l.005,21.553h4.469v-6.465h.419c.509,0,.854.059,1.015.336l2.465,4.652a2.478,2.478,0,0,0,2.666,1.477h3.423l-2.551-4.217-1.691-3.2m21.69-8.5a6.078,6.078,0,0,0-4.537,1.866l-.27.273-.1-.372a2.058,2.058,0,0,0-2.254-1.418h-2l.013,15.566h4.438V-36.5a5.771,5.771,0,0,1,.277-1.866,3.647,3.647,0,0,1,3.593-2.727c1.385,0,1.927.732,1.927,2.621v6.78a2.06,2.06,0,0,0,2.36,2.366h2.112l-.007-9.9c0-3.932-1.919-6.012-5.552-6.012m-14.052.353h-2.1l.014,12.037v3.53h2.243l.079,0,1.047,0h1.04v-.005h.007l.009-13.2a2.064,2.064,0,0,0-2.335-2.364m-27.6,12.033c-2.224,0-3.772-1.767-3.772-4.292s1.549-4.289,3.774-4.289,3.8,1.765,3.8,4.289c0,2.565-1.529,4.292-3.8,4.292Zm0-12.353a7.829,7.829,0,0,0-8.128,8.061,7.829,7.829,0,0,0,8.129,8.061,7.845,7.845,0,0,0,8.155-8.059,7.847,7.847,0,0,0-8.155-8.063" fill="#d8dce1"/>
        </g>
      </g>
      <g id="Group_129" data-name="Group 129" transform="translate(-1060.116 51.91)" clip-path="url(#clip-path-2)">
        <g id="Group_128" data-name="Group 128" clip-path="url(#clip-path-5)">
          <g id="Group_127" data-name="Group 127" clip-path="url(#clip-path-3)">
            <path id="Path_86" data-name="Path 86" d="M1197.295-32.854c-2.224,0-3.774-1.767-3.774-4.292s1.551-4.289,3.774-4.289,3.8,1.765,3.8,4.289C1201.1-34.581,1199.567-32.854,1197.295-32.854Zm0-12.353a7.828,7.828,0,0,0-8.126,8.061,7.827,7.827,0,0,0,8.126,8.061,7.844,7.844,0,0,0,8.155-8.059,7.847,7.847,0,0,0-8.155-8.063" fill="#d8dce1"/>
            <path id="Path_87" data-name="Path 87" d="M1158.738-33.539c-2.427,0-3.29-2.116-3.29-4.1,0-.874.221-3.722,3.058-3.722,1.409,0,3.285.4,3.285,3.868C1161.791-34.225,1160.13-33.539,1158.738-33.539ZM1164.1-44.93a1.927,1.927,0,0,0-1.815.95l-.122.237-.2-.18a6.045,6.045,0,0,0-4.085-1.355c-4.15,0-6.944,3.118-6.944,7.753s2.891,7.872,7.027,7.872a5.464,5.464,0,0,0,3.414-1l.342-.257v.432c0,2.08-1.344,3.227-3.781,3.227a8.959,8.959,0,0,1-2.986-.55,1.317,1.317,0,0,0-1.873.9l-.353.871-.5,1.274.308.164a12.135,12.135,0,0,0,5.427,1.322c3.778,0,8.193-1.934,8.193-7.377l.016-14.278H1164.1" fill="#d8dce1"/>
          </g>
        </g>
      </g>
      <g id="Group_131" data-name="Group 131" transform="translate(-1060.116 51.91)" clip-path="url(#clip-path-7)">
        <g id="Group_130" data-name="Group 130" clip-path="url(#clip-path-8)">
          <path id="Path_91" data-name="Path 91" d="M1068.221-33.032l-3.612,0v-4.317c0-.925.358-1.4,1.148-1.515h2.464a2.7,2.7,0,0,1,2.9,2.9,2.689,2.689,0,0,1-2.9,2.932Zm-3.612-11.65v-1.137c0-.995.421-1.468,1.344-1.529h1.849a2.331,2.331,0,0,1,2.535,2.537,2.406,2.406,0,0,1-2.477,2.621h-3.251Zm8.225,4.31-.653-.367.57-.488a5.214,5.214,0,0,0,1.774-4.066c0-3.389-2.626-5.577-6.694-5.577h-5.17a2.267,2.267,0,0,0-2.184,2.238V-29.4h7.446c4.521,0,7.439-2.461,7.439-6.273a5.236,5.236,0,0,0-2.527-4.7" fill="#d8dce1"/>
          <path id="Path_92" data-name="Path 92" d="M1225.272-45.191a6.116,6.116,0,0,0-4.764,2.308l-.32.407-.252-.455a4.422,4.422,0,0,0-4.2-2.259,5.632,5.632,0,0,0-4.089,1.835l-.421.455-.162-.6a1.98,1.98,0,0,0-2.164-1.337h-1.865l-.018,15.507h4.236v-6.845a7.663,7.663,0,0,1,.225-1.813c.4-1.655,1.517-3.434,3.386-3.256,1.151.112,1.716,1,1.716,2.722v9.193h4.267v-6.845a6.209,6.209,0,0,1,.239-1.873c.342-1.579,1.5-3.2,3.307-3.2,1.306,0,1.788.738,1.788,2.724V-31.6c0,1.565.7,2.267,2.265,2.267h1.993l0-9.9c0-3.956-1.741-5.962-5.167-5.962m-38.558,10.477a6.542,6.542,0,0,1-4.236,1.937,4.143,4.143,0,0,1-4.4-4.337,4.1,4.1,0,0,1,4.166-4.395c.8,0,1.7.284,1.844.765l.02.081a1.558,1.558,0,0,0,1.511,1.146l2.321,0v-2.029c0-2.677-3.405-3.648-5.7-3.648-4.9,0-8.455,3.411-8.455,8.11s3.515,8.1,8.365,8.1a8.8,8.8,0,0,0,6.516-2.792l.122-.151-1.839-3.049-.243.257" fill="#d8dce1"/>
        </g>
      </g>
    </g>
  </g>
</svg>
