<svg xmlns="http://www.w3.org/2000/svg" xmlns:xlink="http://www.w3.org/1999/xlink" width="170" height="80" viewBox="0 0 170 80">
  <defs>
    <clipPath id="clip-path">
      <rect id="Rectangle_54" data-name="Rectangle 54" width="170" height="80" transform="translate(0 7169)" fill="#d8dce1" stroke="#707070" stroke-width="1"/>
    </clipPath>
  </defs>
  <g id="Mask_Group_18" data-name="Mask Group 18" transform="translate(0 -7169)" clip-path="url(#clip-path)">
    <g id="dhl-express" transform="translate(0 7182.727)">
      <path id="Subtraction_5" data-name="Subtraction 5" d="M4240-1885.211H4070v-6.739h19.407l1.249-1.7H4070v-1.464h21.735l1.256-1.708H4070v-1.465h24.069l1.258-1.706H4070v-22.736h170v22.736h-19.31l-1.257,1.709,20.567,0v1.464h-21.644l-1.257,1.708H4240v1.464h-23.979l-1.25,1.7,25.229,0v6.738Zm-57.612-14.78h0l-.213.292-.193.263c-.377.515-.942,1.284-1.287,1.752a3.005,3.005,0,0,0-.487,3.223c.8,1.6,3.229,2.51,6.654,2.51h25.054l5.919-8.041Zm-20.674,0h0c-.034.038-2.9,3.942-4.447,6.039l-1.226,1.666-.246.335h15.6l5.919-8.041Zm-58.536-6.781h0l-10.909,14.823h26.6a18.721,18.721,0,0,0,15.186-8.041H4115.92c-.9,0-1.435-.149-1.583-.442-.162-.319.152-.741.359-1.021.315-.426.758-1.028,1.353-1.84l.115-.155c.573-.783,1-1.36,1.3-1.765.424-.574.565-.955.442-1.2s-.51-.36-1.188-.36Zm51.569,6.778h0l-15.6,0c-.018.018-3.64,4.941-5.918,8.04h15.606l5.917-8.042Zm39.424-16h0c-.047.058-6.041,8.2-9.26,12.567l-.4.545-.783,1.065h16.531l10.436-14.178Zm-43.25,0h0l-10.436,14.178h38.169l10.433-14.178h-15.6l-5.984,8.13h-6.963l5.983-8.13Zm-51.022,0h0l-5.431,7.379h29.6c.677,0,1.065.117,1.188.359s-.018.625-.442,1.2c-.362.49-.851,1.168-1.324,1.824l-.025.035c-.5.689-1.01,1.4-1.393,1.918-.208.282-.521.7-.362,1.021.147.293.681.442,1.584.442h12.1l.63-.857,2.957-4.018a5.111,5.111,0,0,0,.218-5.287c-1.29-2.552-4.2-4.016-7.979-4.016Z" transform="translate(-4070.001 1922.727)" fill="#d8dce1"/>
      <path id="Path_67" data-name="Path 67" d="M0,43.615H170v.85H0Zm0,3.966H170v.85H0Zm0,3.965H170v.85H0Z" fill="#d8dce1"/>
      <path id="Path_68" data-name="Path 68" d="M57.085,52.4H62.2l.817-1.107H59.21L61.345,48.4h3.467l.817-1.107H62.162l1.893-2.566h3.808l.817-1.107H63.564Zm6.279,0h1.57l5.352-3.723L70.233,52.4h1.649l.012-4.591,6.166-4.189H76.568L71.66,46.987l.054-3.371h-1.57L70.1,47.83ZM80.04,44.723h1.112c.811,0,1.718.4.9,1.509a3.855,3.855,0,0,1-2.974,1.547h-1.3l2.256-3.056ZM73.07,52.4h1.308l2.59-3.509H78.25a6.451,6.451,0,0,0,5.181-2.642c1.476-2,.383-2.629-1.488-2.629H79.548Zm7.535,0h1.309l2.877-3.9h.785c.693,0,1.126,0,.9.855L85.629,52.4h1.492l.853-3.5c.111-.541.055-.729-.24-.881l.019-.025a5.422,5.422,0,0,0,3.36-2c1.55-2.1.014-2.377-1.792-2.377H87.084L80.6,52.4Zm6.971-7.673h1.256c1.2,0,1.461.5.876,1.3a3.7,3.7,0,0,1-2.988,1.371H85.607l1.968-2.666Zm.9,7.673h5.116l.816-1.107H90.6L92.736,48.4H96.2l.816-1.107H93.552l1.893-2.566h3.808l.817-1.107H94.955Zm17.9-8.616a4.382,4.382,0,0,0-1.718-.315,6.022,6.022,0,0,0-4.695,2.39c-2.014,2.73,2.31,2.189.862,4.151a3.842,3.842,0,0,1-2.85,1.434,3.4,3.4,0,0,1-1.582-.428l-.994,1.17a4.054,4.054,0,0,0,1.6.365,6.475,6.475,0,0,0,5.267-2.617c2.135-2.892-2.079-2.5-.835-4.188a3.037,3.037,0,0,1,2.46-1.17,2.574,2.574,0,0,1,1.444.365l1.038-1.157Zm6.542,0a4.381,4.381,0,0,0-1.718-.315,6.022,6.022,0,0,0-4.695,2.39c-2.014,2.73,2.31,2.189.862,4.151a3.842,3.842,0,0,1-2.85,1.434,3.4,3.4,0,0,1-1.581-.428l-.994,1.17a4.054,4.054,0,0,0,1.6.365,6.475,6.475,0,0,0,5.267-2.617c2.135-2.892-2.078-2.5-.834-4.188a3.036,3.036,0,0,1,2.46-1.17,2.573,2.573,0,0,1,1.444.365l1.038-1.157Z" fill="#d8dce1"/>
    </g>
  </g>
</svg>
