<svg xmlns="http://www.w3.org/2000/svg" xmlns:xlink="http://www.w3.org/1999/xlink" width="170" height="80" viewBox="0 0 170 80">
  <defs>
    <clipPath id="clip-path">
      <rect id="Rectangle_51" data-name="Rectangle 51" width="170" height="80" transform="translate(660 7169)" fill="#fff" stroke="#707070" stroke-width="1"/>
    </clipPath>
  </defs>
  <g id="Mask_Group_21" data-name="Mask Group 21" transform="translate(-660 -7169)" clip-path="url(#clip-path)">
    <g id="Google" transform="translate(1712.221 6529.439)">
      <path id="Path_75" data-name="Path 75" d="M-1025.933,678.74h7.311v10.268a27.5,27.5,0,0,1-8.155,1.135c-12.134,0-19.265-10.391-19.265-20.539,0-9.953,6.451-16.934,15.45-16.934a16.259,16.259,0,0,1,11.973,4.617v3.35l5.559-5.559a27.507,27.507,0,0,0-15.883-4.639c-15.974,0-23.276,11.428-23.276,20.82,0,13.368,9.737,21.422,21.973,21.422a61.955,61.955,0,0,0,17.286-2.6V679.473a1.6,1.6,0,0,1,.595-1.242l1.92-1.92h-13.04l-2.447,2.429Z" fill="#d8dce1"/>
      <path id="Path_76" data-name="Path 76" d="M-993.183,664.786c-9.195,0-14.892,6.719-14.892,13.85A13.424,13.424,0,0,0-994.186,692.1c8.945,0,14.433-6.732,14.433-13.988a13.336,13.336,0,0,0-13.43-13.323v0Zm-1.526,1.959c6.483,0,9.369,8.446,9.369,14.469,0,8.959-6.721,9.136-7.524,9.136-3.075,0-5.225-1.859-6.834-4.3a21.536,21.536,0,0,1-2.8-10.5c0-4.063,1.33-6.047,3.423-7.506a8.021,8.021,0,0,1,4.364-1.3Z" fill="#d8dce1"/>
      <path id="Path_77" data-name="Path 77" d="M-933.079,664.784c-8.031,0-12.375,5.084-12.375,10.761a9.079,9.079,0,0,0,9.483,9.2h1.616a6.446,6.446,0,0,0-.442,2.1c0,1.523.547,2.379,1.709,3.7-10.99.67-15.407,5.1-15.407,9.866,0,4.172,3.995,8.278,12.39,8.278,9.939,0,15.087-5.518,15.087-10.933,0-3.818-1.9-5.91-6.718-9.519-1.416-1.1-1.691-1.8-1.691-2.626a3.383,3.383,0,0,1,.965-2.256c.456-.481,1.246-1.03,1.541-1.294,1.618-1.371,3.9-3.4,3.9-7.449,0-2.778-1.156-5.168-3.788-7.406h3.214l2.415-2.415h-11.9Zm-2.215,1.807a5.923,5.923,0,0,1,3.958,1.584,13,13,0,0,1,3.7,9.008,5.478,5.478,0,0,1-5.52,5.872,5.508,5.508,0,0,1-3.048-.924c-2.138-1.387-4.26-5.077-4.26-9.469C-940.462,668.7-938.1,666.59-935.294,666.59Zm3.18,25.7a10.324,10.324,0,0,1,1.053.05s1.446,1.033,2.456,1.8c2.352,1.859,3.818,3.28,3.818,5.811,0,3.479-3.228,6.208-8.455,6.208-5.738,0-10.123-2.672-10.123-7.034C-943.365,695.514-940.36,692.4-932.114,692.288Z" fill="#d8dce1"/>
      <path id="Path_78" data-name="Path 78" d="M-919.438,691.3h11.024l1.679-1.679-3.162-.395a1.555,1.555,0,0,1-1.357-1.552v-33.3a1.542,1.542,0,0,1,.526-1.205l1.989-1.988h-9.4l-2.447,2.447h3.654v34.493a1.536,1.536,0,0,1-.486,1.167l-2.02,2.013Z" fill="#d8dce1"/>
      <path id="Path_79" data-name="Path 79" d="M-893.477,664.786A12.689,12.689,0,0,0-906.171,677.9c0,6.956,4.691,14.2,13.457,14.2a13.153,13.153,0,0,0,5.672-1.055,12.805,12.805,0,0,0,4.821-3.886,14.562,14.562,0,0,1-6.954,2c-4.939,0-9.7-3.563-11.367-10.114L-883.1,672c-1.008-3.593-3.849-7.211-10.379-7.211h0Zm-1.14,1.927c3.3,0,5.69,2.717,5.69,4.844,0,.688-.431,1.051-1.285,1.387l-10.724,4.337a15.136,15.136,0,0,1-.29-2.81c0-6.121,4.426-7.758,6.609-7.758Z" fill="#d8dce1"/>
      <path id="Path_80" data-name="Path 80" d="M-961.984,664.786c-9.195,0-14.892,6.719-14.892,13.85A13.424,13.424,0,0,0-962.987,692.1c8.945,0,14.433-6.732,14.433-13.988a13.336,13.336,0,0,0-13.43-13.323v0Zm-1.526,1.959c6.483,0,9.369,8.446,9.369,14.469,0,8.959-6.721,9.136-7.524,9.136-3.075,0-5.225-1.859-6.834-4.3a21.536,21.536,0,0,1-2.8-10.5c0-4.063,1.33-6.047,3.423-7.506a8.021,8.021,0,0,1,4.365-1.3Z" fill="#d8dce1"/>
    </g>
  </g>
</svg>
