<svg xmlns="http://www.w3.org/2000/svg" xmlns:xlink="http://www.w3.org/1999/xlink" width="170" height="80" viewBox="0 0 170 80">
  <defs>
    <clipPath id="clip-path">
      <rect id="Rectangle_52" data-name="Rectangle 52" width="170" height="80" transform="translate(440 7169)" fill="#fff" stroke="#707070" stroke-width="1"/>
    </clipPath>
  </defs>
  <g id="Mask_Group_20" data-name="Mask Group 20" transform="translate(-440 -7169)" clip-path="url(#clip-path)">
    <g id="Nike" transform="translate(485 7169)">
      <path id="Path_73" data-name="Path 73" d="M0,0H80V80H0Z" fill="#fff" fill-rule="evenodd"/>
      <path id="Path_74" data-name="Path 74" d="M20.215,29.974c-5.359,6.293-10.5,14.1-10.549,19.931a6.906,6.906,0,0,0,2.361,5.562A11.456,11.456,0,0,0,19.764,58.3c3.876.005,7.724-1.558,10.737-2.764,5.075-2.029,61.171-26.39,61.171-26.39.541-.271.44-.609-.238-.44-.273.068-61.07,16.544-61.07,16.544a13.435,13.435,0,0,1-3.538.507c-4.672.028-8.83-2.566-8.8-8.031a17.923,17.923,0,0,1,2.185-7.751Z" transform="translate(-9.666 -3.479)" fill="#d8dce1" fill-rule="evenodd"/>
    </g>
  </g>
</svg>
