<svg xmlns="http://www.w3.org/2000/svg" xmlns:xlink="http://www.w3.org/1999/xlink" width="288" height="136" viewBox="0 0 288 136">
  <defs>
    <clipPath id="clip-path">
      <rect id="Rectangle_59" data-name="Rectangle 59" width="288" height="136" transform="translate(1749.697 7168.622)" fill="#fff" stroke="#707070" stroke-width="1"/>
    </clipPath>
  </defs>
  <g id="Mask_Group_26" data-name="Mask Group 26" transform="translate(-1749.697 -7168.622)" clip-path="url(#clip-path)">
    <g id="rover" transform="translate(1826.075 7169)">
      <path id="Path_100" data-name="Path 100" d="M0,0H135.244V135.244H0Z" fill="#fff" fill-rule="evenodd"/>
      <path id="Path_101" data-name="Path 101" d="M7.827,56.906h-6.4v-.234c1.42-.217,1.621-1.6,1.621-2.841V36.284c0-1.788-.25-2.189-1.871-2.707v-.334h9.258c2.289,0,4.846-.167,6.651,1.471a6.269,6.269,0,0,1,2.038,4.546c0,3.743-3.008,5.448-6.283,5.932a2.883,2.883,0,0,1,2.306,1.137l.769,1.052,2.941,3.944a15.943,15.943,0,0,0,5.682,5.13v.451H19.291a3.949,3.949,0,0,1-2.875-1.788L10.5,47.1c-.6-.8-1.353-1.922-2.49-1.922a.68.68,0,0,0-.184.017V56.906Zm29.713.418c-6.367,0-11.481-5.765-11.481-11.982,0-6.467,5.248-12.617,11.9-12.617,6.567,0,11.631,5.882,11.631,12.249C49.589,51.408,44.091,57.324,37.54,57.324Zm26.219-.418L55.087,35.967a3.865,3.865,0,0,0-2.69-2.39v-.334h8.79v.334a1.39,1.39,0,0,0-1.32,1.3,3.871,3.871,0,0,0,.417,1.42l5.281,12.733,5.4-13.068A2.65,2.65,0,0,0,71.23,34.9a1.554,1.554,0,0,0-1.052-1.32v-.334H77.1v.334a4.459,4.459,0,0,0-2.757,2.59L65.565,56.906H63.759Zm19.669,0v-.2c1.321-.351,1.454-1.955,1.454-3.126V35.967c0-1.437-.9-1.888-2.122-2.39v-.334h17.53l.25,4.946h-.25a3.948,3.948,0,0,0-3.926-2.222H89.478v7.069h7.352a1.725,1.725,0,0,0,1.505-1.019h.4v4.9h-.4a1.788,1.788,0,0,0-1.823-1.054H89.479V53.83h9.257c1.839,0,2.106-1.252,3.091-2.506h.318l-1.6,5.581H83.428Zm31.9.033H109.3v-.25c1.154-.333,1.454-1.62,1.454-2.674v-18a2.52,2.52,0,0,0-2.056-2.557v-.267h10.362c2.089,0,4.178.25,5.765,1.738a5.927,5.927,0,0,1,1.838,4.312c0,3.476-2.89,5.465-6.066,5.866a3.265,3.265,0,0,1,1.921,1.137l.9,1.2,3.408,4.511c1.438,1.888,3.242,3.895,5.616,4.513v.467h-5.516c-1.269,0-2.256-1.085-2.957-2l-5.949-7.788a4.454,4.454,0,0,0-2.69-2.038v11.83Z" transform="translate(0.813 22.598)" fill="#d8dce1" fill-rule="evenodd"/>
      <path id="Path_102" data-name="Path 102" d="M5.1,43.411c.234.016.468.033.7.033,2.958,0,5.748-1.688,5.748-4.88,0-3.025-1.872-4.5-4.729-4.5a11.56,11.56,0,0,0-1.7.167L5.1,43.411Zm36.714,1.805c0-4.078-2.423-10.629-7.4-10.629-4.261,0-6.049,4.746-6.049,8.373,0,4.295,2.44,10.545,7.587,10.545,4.145,0,5.866-4.863,5.866-8.288Zm70.755-1.739c.234.017.467.034.7.034,2.975,0,5.748-1.671,5.748-4.88,0-3.008-1.872-4.479-4.729-4.479a11.66,11.66,0,0,0-1.7.151l-.016,9.174Z" transform="translate(3.523 23.526)" fill="#fff" fill-rule="evenodd"/>
    </g>
  </g>
</svg>
