<svg xmlns="http://www.w3.org/2000/svg" xmlns:xlink="http://www.w3.org/1999/xlink" width="170" height="80" viewBox="0 0 170 80">
  <defs>
    <clipPath id="clip-path">
      <rect id="Rectangle_56" data-name="Rectangle 56" width="170" height="80" transform="translate(1100 7169)" fill="#fff" stroke="#707070" stroke-width="1"/>
    </clipPath>
  </defs>
  <g id="Mask_Group_23" data-name="Mask Group 23" transform="translate(-1100 -7169)" clip-path="url(#clip-path)">
    <g id="walmart" transform="translate(1172.521 7131.175)">
      <path id="Path_95" data-name="Path 95" d="M76.807,71.224A1.731,1.731,0,0,0,78.638,70.1l.935-10.572c0-1.045-1.224-1.9-2.763-1.9s-2.761.858-2.761,1.9L74.983,70.1a1.725,1.725,0,0,0,1.827,1.128h0m-5.714,3.3a1.723,1.723,0,0,0-.061-2.148l-8.689-6.1c-.9-.523-2.258.107-3.027,1.44s-.635,2.819.266,3.342l9.622,4.48A1.74,1.74,0,0,0,71.1,74.52l0,.006m11.432-.006a1.741,1.741,0,0,0,1.892,1.025l9.622-4.48c.907-.523,1.035-2.011.271-3.342s-2.13-1.963-3.031-1.44l-8.69,6.1a1.732,1.732,0,0,0-.061,2.148l0-.006M76.807,84.43a1.729,1.729,0,0,1,1.831,1.125l.935,10.57c0,1.048-1.224,1.9-2.763,1.9s-2.761-.856-2.761-1.9l.934-10.57A1.722,1.722,0,0,1,76.81,84.43h0m5.719-3.3a1.731,1.731,0,0,1,1.892-1.021l9.622,4.477c.907.524,1.035,2.013.271,3.345s-2.13,1.96-3.031,1.438l-8.69-6.09a1.737,1.737,0,0,1-.061-2.152h0m-11.432,0a1.729,1.729,0,0,1-.061,2.152l-8.689,6.09c-.9.522-2.258-.11-3.027-1.438s-.635-2.821.266-3.345L69.2,80.107A1.731,1.731,0,0,1,71.1,81.128h0" fill="#d8dce1"/>
      <path id="Path_96" data-name="Path 96" d="M22,83.257a3.114,3.114,0,0,1-3.331,3.205,2.174,2.174,0,0,1-2.365-2.33c0-2.42,2.664-3.089,5.7-3.072v2.2Zm4.757-4.218c0-3.991-1.705-7.5-7.468-7.5A13.639,13.639,0,0,0,12.7,73.107l.939,3.209a9.645,9.645,0,0,1,4.8-1.351c2.923-.008,3.4,1.655,3.4,2.72v.252c-6.372-.009-10.4,2.2-10.4,6.691a5.306,5.306,0,0,0,5.617,5.318,6.381,6.381,0,0,0,5.125-2.277h.108s.727,3.045,4.739,1.88a25.88,25.88,0,0,1-.278-4.243V79.039M-72.521,66.1s4.164,17.061,4.828,19.83c.776,3.232,2.173,4.422,6.2,3.618l2.6-10.577c.659-2.629,1.1-4.5,1.525-7.174h.074a70.185,70.185,0,0,0,1.264,7.182s1.058,4.8,1.6,7.323,2.055,4.11,6,3.245L-42.233,66.1h-5l-2.116,10.138c-.569,2.95-1.085,5.258-1.482,7.956H-50.9c-.362-2.674-.822-4.888-1.4-7.763L-54.5,66.1h-5.211l-2.356,10.071c-.667,3.061-1.292,5.532-1.688,8.14h-.072c-.407-2.456-.948-5.563-1.534-8.525,0,0-1.4-7.2-1.89-9.687h-5.268m39.747,17.157a3.313,3.313,0,0,1-.119.953,3.337,3.337,0,0,1-3.213,2.253,2.173,2.173,0,0,1-2.364-2.33c0-2.42,2.663-3.089,5.7-3.072v2.2Zm4.756-4.218c0-3.991-1.705-7.5-7.467-7.5a13.643,13.643,0,0,0-6.589,1.571l.937,3.209a9.644,9.644,0,0,1,4.8-1.351c2.925-.008,3.4,1.655,3.4,2.72v.252c-6.374-.009-10.4,2.2-10.4,6.691a5.3,5.3,0,0,0,5.613,5.318,6.385,6.385,0,0,0,5.128-2.277h.107s.729,3.045,4.74,1.88a25.84,25.84,0,0,1-.278-4.243V79.039m7.938,5.532V66.1h-4.762V89.549h4.762V84.571m62.3-18.47V83.4c0,2.386.45,4.056,1.409,5.078a5.278,5.278,0,0,0,3.877,1.472,11.346,11.346,0,0,0,3.447-.511l-.061-3.721a7.277,7.277,0,0,1-1.809.215c-1.623,0-2.165-1.04-2.165-3.181V76.132h4.147V71.645H46.919V66.1h-4.7M29.929,71.934V89.549h4.913V80.53a6.68,6.68,0,0,1,.107-1.3,3.707,3.707,0,0,1,3.884-3.1,9.149,9.149,0,0,1,1.417.124V71.645a4.786,4.786,0,0,0-1.082-.108,5.185,5.185,0,0,0-4.795,3.721H34.24V71.934H29.929m-46.674,0V89.549h4.786V79.219a4.157,4.157,0,0,1,.225-1.442A3.242,3.242,0,0,1-8.825,75.52c1.932,0,2.835,1.633,2.835,3.989V89.548h4.783V79.092a4.87,4.87,0,0,1,.2-1.428,3.017,3.017,0,0,1,2.871-2.146c1.958,0,2.9,1.6,2.9,4.378v9.651H9.547V79.172c0-5.471-2.778-7.637-5.915-7.637a6.387,6.387,0,0,0-3.476.955,7.452,7.452,0,0,0-2.231,2.2h-.071A5.023,5.023,0,0,0-7,71.536a5.544,5.544,0,0,0-5.13,2.791H-12.2V71.933h-4.543" fill="#d8dce1"/>
      <path id="Path_97" data-name="Path 97" d="M96.453,88.693h.072c.1,0,.157-.04.157-.1s-.058-.1-.147-.1c-.031,0-.062.006-.083.006v.2Zm-.011.475h-.254v-.829a2,2,0,0,1,.365-.031.56.56,0,0,1,.333.068.214.214,0,0,1,.09.182c0,.085-.078.157-.194.189v.011a.244.244,0,0,1,.172.213.839.839,0,0,0,.058.2h-.288a.55.55,0,0,1-.057-.177c-.016-.084-.056-.126-.141-.126h-.083v.3Zm.105-1.1a.659.659,0,1,0,.006,0h-.006Zm.016-.225a.959.959,0,1,1-.007,0h.006" fill="#d8dce1"/>
    </g>
  </g>
</svg>
