<svg xmlns="http://www.w3.org/2000/svg" xmlns:xlink="http://www.w3.org/1999/xlink" width="20" height="20" viewBox="0 0 20 20">
  <defs>
    <clipPath id="clip-path">
      <rect id="Rectangle_351" data-name="Rectangle 351" width="20" height="20" transform="translate(470 560)" fill="#006aff" stroke="#707070" stroke-width="1"/>
    </clipPath>
  </defs>
  <g id="Mask_Group_41" data-name="Mask Group 41" transform="translate(-470 -560)" clip-path="url(#clip-path)">
    <g id="_709579" data-name="709579" transform="translate(470 560)">
      <g id="Group_8823" data-name="Group 8823">
        <g id="Group_8822" data-name="Group 8822">
          <path id="Path_3409" data-name="Path 3409" d="M10,11.265c-6.009,0-9.319,2.843-9.319,8a.73.73,0,0,0,.73.73H18.589a.73.73,0,0,0,.73-.73C19.319,14.108,16.009,11.265,10,11.265ZM2.168,18.54c.287-3.86,2.918-5.815,7.832-5.815s7.545,1.955,7.833,5.815Z" fill="#006aff"/>
        </g>
      </g>
      <g id="Group_8825" data-name="Group 8825">
        <g id="Group_8824" data-name="Group 8824">
          <path id="Path_3410" data-name="Path 3410" d="M10,0A4.784,4.784,0,0,0,5.158,4.939,5.067,5.067,0,0,0,10,10.194a5.067,5.067,0,0,0,4.842-5.255A4.784,4.784,0,0,0,10,0Zm0,8.735a3.611,3.611,0,0,1-3.382-3.8A3.319,3.319,0,0,1,10,1.46a3.356,3.356,0,0,1,3.382,3.479A3.611,3.611,0,0,1,10,8.735Z" fill="#006aff"/>
        </g>
      </g>
    </g>
  </g>
</svg>
