<svg xmlns="http://www.w3.org/2000/svg" xmlns:xlink="http://www.w3.org/1999/xlink" width="20" height="20" viewBox="0 0 20 20">
  <defs>
    <clipPath id="clip-path">
      <rect id="Rectangle_354" data-name="Rectangle 354" width="20" height="20" transform="translate(929 380)" fill="#006aff" stroke="#707070" stroke-width="1"/>
    </clipPath>
  </defs>
  <g id="Mask_Group_45" data-name="Mask Group 45" transform="translate(-929 -380)" clip-path="url(#clip-path)">
    <g id="_4336668" data-name="4336668" transform="translate(929 380)">
      <path id="Path_3420" data-name="Path 3420" d="M18.486,5.476A.391.391,0,0,0,18.3,6a9.112,9.112,0,0,1,.915,4A9.214,9.214,0,0,1,4.467,17.369a1.172,1.172,0,1,0-.56.556A9.995,9.995,0,0,0,20,10a9.887,9.887,0,0,0-.993-4.342A.391.391,0,0,0,18.486,5.476Z" fill="#006aff"/>
      <path id="Path_3421" data-name="Path 3421" d="M1.416,14.335a.391.391,0,0,0,.193-.518A9.123,9.123,0,0,1,.781,10,9.229,9.229,0,0,1,10,.781a9.1,9.1,0,0,1,5.393,1.747,1.172,1.172,0,1,0,.633-.5A10,10,0,0,0,0,10a9.9,9.9,0,0,0,.9,4.142A.391.391,0,0,0,1.416,14.335Z" fill="#006aff"/>
      <path id="Path_3422" data-name="Path 3422" d="M10,2.578A7.422,7.422,0,1,0,17.422,10,7.412,7.412,0,0,0,10,2.578ZM7.909,3.7A8.251,8.251,0,0,0,6.361,7.266H3.949A6.676,6.676,0,0,1,7.909,3.7ZM3.359,10a6.618,6.618,0,0,1,.293-1.953H6.227a14.4,14.4,0,0,0,0,3.907H3.653A6.618,6.618,0,0,1,3.359,10Zm.589,2.734H6.361A8.251,8.251,0,0,0,7.909,16.3a6.675,6.675,0,0,1-3.96-3.569Zm5.661,3.852c-1.075-.3-2-1.814-2.446-3.852H9.609Zm0-4.633H7.019a13.337,13.337,0,0,1,0-3.906H9.609Zm0-4.687H7.163C7.61,5.228,8.534,3.713,9.609,3.414Zm.781-3.852c1.075.3,2,1.814,2.446,3.852H10.391Zm0,4.633h2.591A13.175,13.175,0,0,1,13.125,10a13.181,13.181,0,0,1-.144,1.953H10.391Zm0,8.539V12.734h2.446C12.39,14.772,11.466,16.287,10.391,16.586Zm1.7-.283a8.25,8.25,0,0,0,1.549-3.569h2.412A6.675,6.675,0,0,1,12.091,16.3Zm4.55-6.3a6.618,6.618,0,0,1-.293,1.953H13.773A14.169,14.169,0,0,0,13.906,10a14.169,14.169,0,0,0-.133-1.953h2.574A6.618,6.618,0,0,1,16.641,10Zm-3-2.734A8.251,8.251,0,0,0,12.091,3.7a6.675,6.675,0,0,1,3.96,3.569Z" fill="#006aff"/>
    </g>
  </g>
</svg>
