<svg xmlns="http://www.w3.org/2000/svg" xmlns:xlink="http://www.w3.org/1999/xlink" width="20" height="20" viewBox="0 0 20 20">
  <defs>
    <clipPath id="clip-path">
      <rect id="Rectangle_349" data-name="Rectangle 349" width="20" height="20" transform="translate(470 470)" fill="#006aff" stroke="#707070" stroke-width="1"/>
    </clipPath>
  </defs>
  <g id="Mask_Group_40" data-name="Mask Group 40" transform="translate(-470 -470)" clip-path="url(#clip-path)">
    <g id="_1007988" data-name="1007988" transform="translate(470 470)">
      <g id="Group_8821" data-name="Group 8821">
        <path id="Path_3408" data-name="Path 3408" d="M19.239,4.621,10.408.146l0,0a1.381,1.381,0,0,0-1.25.012L5.366,2.166a.59.59,0,0,0-.089.047L.738,4.623A1.372,1.372,0,0,0,0,5.842v8.316a1.372,1.372,0,0,0,.738,1.22L9.15,19.842l0,0a1.38,1.38,0,0,0,1.25.012l8.835-4.477A1.369,1.369,0,0,0,20,14.148v-8.3A1.369,1.369,0,0,0,19.239,4.621ZM9.7,1.194a.205.205,0,0,1,.184,0l8.267,4.189-3.217,1.6L6.848,2.706ZM9.2,18.54l-7.911-4.2,0,0a.2.2,0,0,1-.11-.182V6.371L9.2,10.555Zm.592-9L1.808,5.381,5.6,3.37l8.042,4.256Zm9.04,4.6a.2.2,0,0,1-.114.184l-8.347,4.229v-8l3.843-1.913v2.006a.586.586,0,1,0,1.171,0V8.066l3.446-1.716Z" fill="#006aff"/>
      </g>
    </g>
  </g>
</svg>
