<svg xmlns="http://www.w3.org/2000/svg" xmlns:xlink="http://www.w3.org/1999/xlink" width="20" height="20" viewBox="0 0 20 20">
  <defs>
    <clipPath id="clip-path">
      <rect id="Rectangle_353" data-name="Rectangle 353" width="20" height="20" transform="translate(929 470)" fill="#006aff" stroke="#707070" stroke-width="1"/>
    </clipPath>
  </defs>
  <g id="Mask_Group_44" data-name="Mask Group 44" transform="translate(-929 -470)" clip-path="url(#clip-path)">
    <g id="_1008898" data-name="1008898" transform="translate(929 470)">
      <g id="Group_8826" data-name="Group 8826">
        <path id="Path_3419" data-name="Path 3419" d="M17.071,2.929A10,10,0,0,0,2.929,17.071,10,10,0,0,0,17.071,2.929Zm-.827.827a8.883,8.883,0,0,1,1.366,1.758H13.722a15.1,15.1,0,0,0-.662-2.378,8.1,8.1,0,0,0-.848-1.688A8.776,8.776,0,0,1,16.244,3.756ZM12.969,10a23.173,23.173,0,0,1-.224,3.262H7.255A23.169,23.169,0,0,1,7.031,10a23.119,23.119,0,0,1,.231-3.316h5.474A23.125,23.125,0,0,1,12.969,10ZM10,1.17c.668,0,1.4.889,1.965,2.379a13.609,13.609,0,0,1,.563,1.965H7.471a13.6,13.6,0,0,1,.563-1.965C8.6,2.059,9.332,1.17,10,1.17ZM3.756,3.756A8.776,8.776,0,0,1,7.788,1.448,8.1,8.1,0,0,0,6.94,3.136a15.092,15.092,0,0,0-.662,2.378H2.391A8.885,8.885,0,0,1,3.756,3.756ZM1.17,10a8.819,8.819,0,0,1,.642-3.316h4.27a25.059,25.059,0,0,0-.008,6.578H1.79A8.823,8.823,0,0,1,1.17,10Zm2.586,6.244a8.879,8.879,0,0,1-1.4-1.812H6.267a15.168,15.168,0,0,0,.673,2.432,8.106,8.106,0,0,0,.848,1.688A8.776,8.776,0,0,1,3.756,16.244ZM10,18.83c-.668,0-1.4-.889-1.965-2.379a13.681,13.681,0,0,1-.575-2.019h5.08a13.684,13.684,0,0,1-.575,2.019C11.4,17.941,10.668,18.83,10,18.83Zm6.244-2.586a8.776,8.776,0,0,1-4.032,2.308,8.1,8.1,0,0,0,.848-1.688,15.169,15.169,0,0,0,.673-2.432h3.908A8.882,8.882,0,0,1,16.244,16.244Zm-2.318-2.982A24.445,24.445,0,0,0,14.139,10a24.415,24.415,0,0,0-.221-3.316h4.27a8.889,8.889,0,0,1,.022,6.578Z" fill="#006aff"/>
      </g>
    </g>
  </g>
</svg>
