<svg xmlns="http://www.w3.org/2000/svg" xmlns:xlink="http://www.w3.org/1999/xlink" width="20" height="20" viewBox="0 0 20 20">
  <defs>
    <clipPath id="clip-path">
      <rect id="Rectangle_341" data-name="Rectangle 341" width="20" height="20" transform="translate(470 560)" fill="#006aff" stroke="#707070" stroke-width="1"/>
    </clipPath>
  </defs>
  <g id="Mask_Group_31" data-name="Mask Group 31" transform="translate(-470 -560)" clip-path="url(#clip-path)">
    <g id="_839961" data-name="839961" transform="translate(470 560)">
      <g id="Group_8807" data-name="Group 8807">
        <path id="Path_3395" data-name="Path 3395" d="M17.228,8.267h-.05V7.054a7.054,7.054,0,0,0-14.109,0V8.267h-.3A2.016,2.016,0,0,0,.842,10.347v3.094a1.955,1.955,0,0,0,1.905,2H4.6a.47.47,0,0,0,.448-.492c0-.009,0-.019,0-.028V8.861c0-.3-.173-.594-.446-.594H4.06V7.054a6.064,6.064,0,1,1,12.129,0V8.267h-.545c-.272,0-.446.3-.446.594v6.064a.47.47,0,0,0,.418.518l.028,0h.569l-.05.074a3.911,3.911,0,0,1-3.144,1.559,2.451,2.451,0,0,0-4.852.47A2.475,2.475,0,0,0,10.644,20a2.549,2.549,0,0,0,1.782-.767,2.178,2.178,0,0,0,.594-1.188,4.9,4.9,0,0,0,3.936-1.955l.47-.693a1.685,1.685,0,0,0,1.733-1.708V10.594A2.249,2.249,0,0,0,17.228,8.267ZM4.06,14.455H2.773a.965.965,0,0,1-.942-.989c0-.009,0-.018,0-.026V10.347a1.026,1.026,0,0,1,.941-1.089H4.06Zm7.649,4.084a1.46,1.46,0,0,1-1.064.47,1.51,1.51,0,0,1-1.485-1.46,1.46,1.46,0,1,1,2.921,0h0A1.312,1.312,0,0,1,11.708,18.54Zm6.46-4.852c0,.668-.644.767-.941.767h-1.04v-5.2h1.04c.545,0,.941.767.941,1.337Z" fill="#006aff"/>
      </g>
    </g>
  </g>
</svg>
