<svg xmlns="http://www.w3.org/2000/svg" xmlns:xlink="http://www.w3.org/1999/xlink" width="20" height="20" viewBox="0 0 20 20">
  <defs>
    <clipPath id="clip-path">
      <rect id="Rectangle_344" data-name="Rectangle 344" width="20" height="20" transform="translate(929 380)" fill="#006aff" stroke="#707070" stroke-width="1"/>
    </clipPath>
  </defs>
  <g id="Mask_Group_34" data-name="Mask Group 34" transform="translate(-929 -380)" clip-path="url(#clip-path)">
    <path id="_3304965" data-name="3304965" d="M14.853,5.147a7.635,7.635,0,1,0-9.706,9.706,7.635,7.635,0,1,0,9.706-9.706ZM1.172,7.656A6.462,6.462,0,0,1,13.444,4.806a7.724,7.724,0,0,0-1.1-.079,7.627,7.627,0,0,0-7.617,7.617,7.724,7.724,0,0,0,.079,1.1A6.449,6.449,0,0,1,1.172,7.656Zm10.607,4.951L7.393,8.222a6.5,6.5,0,0,1,.829-.829l4.385,4.385a6.5,6.5,0,0,1-.829.829Zm-2.134,1.18L6.213,10.356a6.412,6.412,0,0,1,.5-1.153l4.08,4.08a6.41,6.41,0,0,1-1.153.5ZM5.928,11.728l2.344,2.344a6.509,6.509,0,0,1-2.182-.161,6.508,6.508,0,0,1-.161-2.182Zm7.355-.932L9.2,6.717a6.411,6.411,0,0,1,1.153-.5l3.432,3.432A6.412,6.412,0,0,1,13.283,10.8Zm.789-2.525L11.728,5.928a6.509,6.509,0,0,1,2.182.161A6.508,6.508,0,0,1,14.072,8.272ZM12.344,18.828a6.449,6.449,0,0,1-5.788-3.634,7.626,7.626,0,0,0,8.639-8.639,6.462,6.462,0,0,1-2.851,12.272Z" transform="translate(929 380)" fill="#006aff"/>
  </g>
</svg>
