<svg xmlns="http://www.w3.org/2000/svg" xmlns:xlink="http://www.w3.org/1999/xlink" width="20" height="20" viewBox="0 0 20 20">
  <defs>
    <clipPath id="clip-path">
      <rect id="Rectangle_340" data-name="Rectangle 340" width="20" height="20" transform="translate(470 470)" fill="#006aff" stroke="#707070" stroke-width="1"/>
    </clipPath>
  </defs>
  <g id="Mask_Group_30" data-name="Mask Group 30" transform="translate(-470 -470)" clip-path="url(#clip-path)">
    <path id="_3659758" data-name="3659758" d="M18.9,8.884a3.856,3.856,0,0,0-3.305-3.812,5.62,5.62,0,0,0-11.187,0A3.85,3.85,0,0,0,3.1,12.256a7.644,7.644,0,0,0,.112,2.327.586.586,0,0,0,.574.469h1.06q.046.118.1.235l-.749.749a.586.586,0,0,0-.074.738,7.689,7.689,0,0,0,2.164,2.164.586.586,0,0,0,.738-.074l.749-.749q.116.051.235.1v1.06a.586.586,0,0,0,.469.574,7.688,7.688,0,0,0,3.061,0A.586.586,0,0,0,12,19.272v-1.06q.118-.046.235-.1l.749.749a.586.586,0,0,0,.738.074,7.687,7.687,0,0,0,2.164-2.164.586.586,0,0,0-.074-.738l-.749-.749q.051-.116.1-.235h1.059a.586.586,0,0,0,.574-.469,7.643,7.643,0,0,0,.112-2.327A3.853,3.853,0,0,0,18.9,8.884Zm-3.124,4.169a6.528,6.528,0,0,1-.053.828h-.981a.586.586,0,0,0-.561.418,4.342,4.342,0,0,1-.343.827.586.586,0,0,0,.1.694l.694.694a6.523,6.523,0,0,1-1.17,1.17l-.694-.694a.586.586,0,0,0-.694-.1,4.339,4.339,0,0,1-.827.343.586.586,0,0,0-.418.561v.981a6.545,6.545,0,0,1-1.655,0v-.981a.586.586,0,0,0-.418-.561,4.342,4.342,0,0,1-.827-.343.586.586,0,0,0-.694.1l-.694.694a6.523,6.523,0,0,1-1.17-1.17l.694-.694a.586.586,0,0,0,.1-.694A4.34,4.34,0,0,1,5.82,14.3a.586.586,0,0,0-.561-.418H4.278a6.528,6.528,0,0,1-.053-.828q0-.192.012-.386a3.855,3.855,0,0,0,.714.067H7.313a2.706,2.706,0,1,0,5.374,0h2.361a3.855,3.855,0,0,0,.714-.067q.012.193.012.386ZM11.5,12.734a1.534,1.534,0,1,1-3,0Zm3.548-1.172H10.586V8.446l.775.775a.586.586,0,0,0,.829-.829L10.414,6.617a.586.586,0,0,0-.829,0L7.81,8.393a.586.586,0,1,0,.829.829l.775-.775v3.117H4.951a2.678,2.678,0,0,1-.006-5.356h.03a.586.586,0,0,0,.577-.586,4.448,4.448,0,1,1,8.9,0,.586.586,0,0,0,.586.586h.022a2.678,2.678,0,0,1-.008,5.357Z" transform="translate(470 470)" fill="#006aff"/>
  </g>
</svg>
