<svg xmlns="http://www.w3.org/2000/svg" xmlns:xlink="http://www.w3.org/1999/xlink" width="20" height="20" viewBox="0 0 20 20">
  <defs>
    <clipPath id="clip-path">
      <rect id="Rectangle_343" data-name="Rectangle 343" width="20" height="20" transform="translate(929 470)" fill="#006aff" stroke="#707070" stroke-width="1"/>
    </clipPath>
  </defs>
  <g id="Mask_Group_35" data-name="Mask Group 35" transform="translate(-929 -470)" clip-path="url(#clip-path)">
    <g id="_2531412" data-name="2531412" transform="translate(929 470)">
      <path id="Path_3400" data-name="Path 3400" d="M19.914,12.769C18.162,9.352,14.348,6.25,10,6.25c-4.379,0-8.181,3.14-9.914,6.519a.781.781,0,0,0,0,.713C1.838,16.9,5.652,20,10,20c4.923,0,8.553-3.864,9.914-6.519A.781.781,0,0,0,19.914,12.769ZM10,18.438c-3.546,0-6.522-2.356-8.319-5.312C3.458,10.2,6.425,7.813,10,7.813c3.56,0,6.533,2.372,8.319,5.313-1.8,2.97-4.793,5.313-8.319,5.313ZM.246,4.343a.781.781,0,0,1,1.1-.058L3.09,5.852A.781.781,0,1,1,2.044,7.013L.3,5.446a.781.781,0,0,1-.058-1.1Zm8.973-.436V.781a.781.781,0,0,1,1.563,0V3.906a.781.781,0,0,1-1.562,0ZM4.266,2.166a.781.781,0,0,1,1.427-.636L6.888,4.214A.781.781,0,1,1,5.46,4.85ZM16.853,6.955a.781.781,0,0,1,.058-1.1l1.74-1.567A.781.781,0,1,1,19.7,5.446l-1.74,1.567a.781.781,0,0,1-1.1-.058ZM13.112,4.214l1.195-2.684a.781.781,0,1,1,1.427.636L14.54,4.85a.781.781,0,1,1-1.427-.636ZM10,9.287a3.838,3.838,0,1,0,3.838,3.838A3.842,3.842,0,0,0,10,9.287ZM10,15.4a2.275,2.275,0,1,1,2.275-2.275A2.278,2.278,0,0,1,10,15.4Z" fill="#006aff"/>
    </g>
  </g>
</svg>
