<svg xmlns="http://www.w3.org/2000/svg" xmlns:xlink="http://www.w3.org/1999/xlink" width="20" height="20" viewBox="0 0 20 20">
  <defs>
    <clipPath id="clip-path">
      <rect id="Rectangle_376" data-name="Rectangle 376" width="20" height="20" transform="translate(1189 200)" fill="#006aff" stroke="#707070" stroke-width="1"/>
    </clipPath>
  </defs>
  <g id="Mask_Group_62" data-name="Mask Group 62" transform="translate(-1189 -200)" clip-path="url(#clip-path)">
    <g id="_711628" data-name="711628" transform="translate(1189 200)">
      <g id="Group_8886" data-name="Group 8886">
        <g id="Group_8885" data-name="Group 8885">
          <path id="Path_3460" data-name="Path 3460" d="M10,3.008a7.627,7.627,0,1,0,7.627,7.627A7.635,7.635,0,0,0,10,3.008ZM10,16.88a6.244,6.244,0,1,1,6.244-6.244A6.251,6.251,0,0,1,10,16.88Z" fill="#006aff"/>
        </g>
      </g>
      <g id="Group_8888" data-name="Group 8888">
        <g id="Group_8887" data-name="Group 8887">
          <path id="Path_3461" data-name="Path 3461" d="M12.12,10.4H10.277V7.732a.691.691,0,0,0-1.382,0V11.1a.691.691,0,0,0,.691.691H12.12a.691.691,0,1,0,0-1.382Z" fill="#006aff"/>
        </g>
      </g>
      <g id="Group_8890" data-name="Group 8890">
        <g id="Group_8889" data-name="Group 8889">
          <path id="Path_3462" data-name="Path 3462" d="M6.085,15.582a.691.691,0,0,0-.976.051l-2.074,2.3a.691.691,0,1,0,1.028.925l2.074-2.3A.691.691,0,0,0,6.085,15.582Z" fill="#006aff"/>
        </g>
      </g>
      <g id="Group_8892" data-name="Group 8892">
        <g id="Group_8891" data-name="Group 8891">
          <path id="Path_3463" data-name="Path 3463" d="M16.966,17.938l-2.074-2.3a.691.691,0,0,0-1.027.925l2.074,2.3a.691.691,0,1,0,1.027-.925Z" fill="#006aff"/>
        </g>
      </g>
      <g id="Group_8894" data-name="Group 8894">
        <g id="Group_8893" data-name="Group 8893">
          <path id="Path_3464" data-name="Path 3464" d="M5.967,1.916a3.52,3.52,0,0,0-4.935.005A3.483,3.483,0,0,0,0,4.418,3.43,3.43,0,0,0,1.037,6.867a.692.692,0,0,0,.972-.005L5.973,2.9a.692.692,0,0,0-.005-.983ZM1.6,5.319a2.06,2.06,0,0,1-.214-.909A2.11,2.11,0,0,1,3.494,2.289a2.159,2.159,0,0,1,.925.208Z" fill="#006aff"/>
        </g>
      </g>
      <g id="Group_8896" data-name="Group 8896">
        <g id="Group_8895" data-name="Group 8895">
          <path id="Path_3465" data-name="Path 3465" d="M18.968,1.921a3.52,3.52,0,0,0-4.935-.005.691.691,0,0,0-.005.983l3.963,3.963a.691.691,0,0,0,.972,0A3.427,3.427,0,0,0,20,4.418,3.485,3.485,0,0,0,18.968,1.921Zm-.564,3.4L15.581,2.5a2.115,2.115,0,0,1,3.036,1.914A2.06,2.06,0,0,1,18.4,5.319Z" fill="#006aff"/>
        </g>
      </g>
    </g>
  </g>
</svg>
