<svg xmlns="http://www.w3.org/2000/svg" xmlns:xlink="http://www.w3.org/1999/xlink" width="20" height="20" viewBox="0 0 20 20">
  <defs>
    <clipPath id="clip-path">
      <rect id="Rectangle_373" data-name="Rectangle 373" width="20" height="20" transform="translate(1189 470)" fill="#006aff" stroke="#707070" stroke-width="1"/>
    </clipPath>
  </defs>
  <g id="Mask_Group_65" data-name="Mask Group 65" transform="translate(-1189 -470)" clip-path="url(#clip-path)">
    <path id="_115107" data-name="115107" d="M16.17,7.819a.625.625,0,0,0-.545-.319H11.3L11.873.677A.625.625,0,0,0,10.725.286L3.85,10.91a.625.625,0,0,0,.525.965H8.7l-.573,7.452a.625.625,0,0,0,1.157.374l6.875-11.25a.625.625,0,0,0,.012-.632Zm-6.6,9.011L10,11.3a.625.625,0,0,0-.623-.673H5.524l4.9-7.567L10,8.073a.625.625,0,0,0,.623.677H14.51L9.572,16.83Z" transform="translate(1189 470)" fill="#006aff"/>
  </g>
</svg>
