<svg xmlns="http://www.w3.org/2000/svg" xmlns:xlink="http://www.w3.org/1999/xlink" width="20" height="20" viewBox="0 0 20 20">
  <defs>
    <clipPath id="clip-path">
      <rect id="Rectangle_371" data-name="Rectangle 371" width="20" height="20" transform="translate(730 560)" fill="#006aff" stroke="#707070" stroke-width="1"/>
    </clipPath>
  </defs>
  <g id="Mask_Group_61" data-name="Mask Group 61" transform="translate(-730 -560)" clip-path="url(#clip-path)">
    <g id="_44645" data-name="44645" transform="translate(730 560)">
      <path id="Path_3459" data-name="Path 3459" d="M18.162,4.234c-.152-.215-.311-.425-.48-.626A9.981,9.981,0,0,0,10,0H9.941A9.985,9.985,0,0,0,2.318,3.608q-.252.3-.48.626a9.965,9.965,0,0,0,0,11.532c.152.215.312.425.48.626A9.984,9.984,0,0,0,9.941,20H10a9.982,9.982,0,0,0,7.682-3.607c.168-.2.328-.412.48-.627a9.965,9.965,0,0,0,0-11.532ZM7.077,1.3A9.355,9.355,0,0,0,4.867,5.039,9.538,9.538,0,0,1,2.98,4.1,9.2,9.2,0,0,1,7.077,1.3ZM2.5,4.727A10.532,10.532,0,0,0,4.634,5.8a15.938,15.938,0,0,0-.547,4.111H.822A9.126,9.126,0,0,1,2.5,4.727ZM.853,10.736H4.1a15.763,15.763,0,0,0,.53,3.46A10.473,10.473,0,0,0,2.5,15.274,9.117,9.117,0,0,1,.853,10.736ZM2.983,15.9a9.6,9.6,0,0,1,1.884-.937A9.346,9.346,0,0,0,7.077,18.7,9.2,9.2,0,0,1,2.983,15.9ZM9.59,19.15c-1.684-.231-3.137-1.957-3.961-4.444A15.166,15.166,0,0,1,9.59,14.1Zm0-5.871a15.626,15.626,0,0,0-4.191.657,15.214,15.214,0,0,1-.474-3.2H9.59Zm0-3.363H4.907a15.489,15.489,0,0,1,.5-3.85,15.629,15.629,0,0,0,4.187.656V9.915Zm0-4.014A15.145,15.145,0,0,1,5.631,5.3C6.455,2.81,7.907,1.081,9.59.85Zm9.587,4.014H15.865a15.93,15.93,0,0,0-.542-4.095A10.526,10.526,0,0,0,17.5,4.727,9.127,9.127,0,0,1,19.177,9.915ZM17.019,4.1a9.577,9.577,0,0,1-1.93.954,9.329,9.329,0,0,0-2.24-3.778A9.2,9.2,0,0,1,17.019,4.1ZM10.41.856c1.665.257,3.1,1.982,3.914,4.451A15.17,15.17,0,0,1,10.41,5.9Zm0,5.865a15.654,15.654,0,0,0,4.142-.642,15.452,15.452,0,0,1,.492,3.836H10.41Zm0,4.015h4.617a15.276,15.276,0,0,1-.471,3.186,15.656,15.656,0,0,0-4.145-.643V10.736Zm0,8.408V14.1a15.194,15.194,0,0,1,3.917.594C13.511,17.163,12.075,18.887,10.41,19.144Zm2.439-.419a9.322,9.322,0,0,0,2.241-3.777,9.588,9.588,0,0,1,1.926.952A9.208,9.208,0,0,1,12.849,18.724Zm4.652-3.45a10.5,10.5,0,0,0-2.179-1.094,15.757,15.757,0,0,0,.525-3.444h3.3A9.1,9.1,0,0,1,17.5,15.274Z" fill="#006aff"/>
    </g>
  </g>
</svg>
