<svg xmlns="http://www.w3.org/2000/svg" xmlns:xlink="http://www.w3.org/1999/xlink" width="20" height="20" viewBox="0 0 20 20">
  <defs>
    <clipPath id="clip-path">
      <rect id="Rectangle_370" data-name="Rectangle 370" width="20" height="20" transform="translate(730 380)" fill="#006aff" stroke="#707070" stroke-width="1"/>
    </clipPath>
  </defs>
  <g id="Mask_Group_57" data-name="Mask Group 57" transform="translate(-730 -380)" clip-path="url(#clip-path)">
    <path id="_2985511" data-name="2985511" d="M14.854,6.35l-.626-.508-.292.752c-.006.014-.566,1.431-1.426,1.173a.609.609,0,0,1-.4-.347,2.9,2.9,0,0,1,.231-2.11,3.253,3.253,0,0,0-.62-3.454A6.291,6.291,0,0,0,10.3.572L9.384,0,9.4,1.081A3.078,3.078,0,0,1,8,3.724,3.328,3.328,0,0,0,6.247,5.733a3.083,3.083,0,0,0,.282,2.425.935.935,0,0,1,.156.756.912.912,0,0,1-.517.475C5.151,9.8,4.485,8.435,4.459,8.379l-.464-.99-.568.933A7.688,7.688,0,0,0,9.908,20H10A7.688,7.688,0,0,0,14.854,6.35ZM7.6,16.423v-.007a4.423,4.423,0,0,1,.265-1.493l1.445.422.015-.767a2.847,2.847,0,0,1,1.214-2.285,5.288,5.288,0,0,0,.64,1.6c.333.544.649,1,.94,1.422a1.978,1.978,0,0,1,.291,1.111v0a2.4,2.4,0,0,1-2.4,2.4h0a2.407,2.407,0,0,1-2.4-2.4Zm5.632,1.547a3.562,3.562,0,0,0,.35-1.546,3.119,3.119,0,0,0-.5-1.786c-.325-.465-.6-.874-.9-1.363a4.571,4.571,0,0,1-.613-1.965l-.077-.759-.714.27a4.418,4.418,0,0,0-1.291.826,3.952,3.952,0,0,0-1.25,2.161L7.181,13.5l-.207.472a5.962,5.962,0,0,0-.551,2.452,3.555,3.555,0,0,0,.353,1.546A6.517,6.517,0,0,1,4,9.765c.052.058.108.115.166.172a2.193,2.193,0,0,0,2.437.541A2.023,2.023,0,0,0,7.793,9.3a2.033,2.033,0,0,0-.249-1.726,1.881,1.881,0,0,1-.174-1.5,2.169,2.169,0,0,1,1.154-1.3,3.732,3.732,0,0,0,1.915-2.589,4.56,4.56,0,0,1,.383.425,2.112,2.112,0,0,1,.442,2.237,3.937,3.937,0,0,0-.217,3.069,1.776,1.776,0,0,0,1.128.974A2.036,2.036,0,0,0,14.39,8.1a3.816,3.816,0,0,0,.259-.353A6.514,6.514,0,0,1,13.227,17.97Z" transform="translate(730 380)" fill="#006aff"/>
  </g>
</svg>
