<svg xmlns="http://www.w3.org/2000/svg" xmlns:xlink="http://www.w3.org/1999/xlink" width="20" height="20" viewBox="0 0 20 20">
  <defs>
    <clipPath id="clip-path">
      <rect id="Rectangle_377" data-name="Rectangle 377" width="20" height="20" transform="translate(1189 290)" fill="#006aff" stroke="#707070" stroke-width="1"/>
    </clipPath>
  </defs>
  <g id="Mask_Group_67" data-name="Mask Group 67" transform="translate(-1189 -290)" clip-path="url(#clip-path)">
    <g id="_3022112" data-name="3022112" transform="translate(1189 290)">
      <path id="Path_3471" data-name="Path 3471" d="M18.4,10.266A1.76,1.76,0,0,0,20,8.516V3.047a1.76,1.76,0,0,0-1.758-1.758h-5.82a1.76,1.76,0,0,0-1.758,1.758v2.3h-7.3A1.76,1.76,0,0,0,1.6,7.109v7.031a1.75,1.75,0,0,0,.1.586H1.055A1.056,1.056,0,0,0,0,15.781a2.933,2.933,0,0,0,2.93,2.93H17.07A2.933,2.933,0,0,0,20,15.781a1.056,1.056,0,0,0-1.055-1.055H18.3a1.75,1.75,0,0,0,.1-.586ZM11.836,3.047a.587.587,0,0,1,.586-.586h5.82a.587.587,0,0,1,.586.586V8.516a.587.587,0,0,1-.586.586h-5.43a.586.586,0,0,0-.311.089l-1.181.738.491-1.636a.586.586,0,0,0,.025-.168ZM17.07,17.539H2.93A1.76,1.76,0,0,1,1.176,15.9H18.824A1.76,1.76,0,0,1,17.07,17.539ZM5.586,10.313a.664.664,0,1,1,.664.664A.665.665,0,0,1,5.586,10.313Zm-.312,2.5c0-.354.456-.664.977-.664a1.2,1.2,0,0,1,.737.239.577.577,0,0,1,.239.425v1.914H5.273ZM8.4,14.727V12.813a1.728,1.728,0,0,0-.679-1.34l-.03-.023a1.836,1.836,0,1,0-2.879,0A1.727,1.727,0,0,0,4.1,12.813v1.914H3.359a.587.587,0,0,1-.586-.586V7.109a.587.587,0,0,1,.586-.586h7.3V8.039L10.2,9.592a1.17,1.17,0,0,0,1.743,1.331l1.039-.649h4.246v3.867a.587.587,0,0,1-.586.586Z" fill="#006aff"/>
      <path id="Path_3472" data-name="Path 3472" d="M15.938,6.6h-1.25a.586.586,0,0,0,0,1.172h1.25a.586.586,0,0,0,0-1.172Z" fill="#006aff"/>
      <path id="Path_3473" data-name="Path 3473" d="M13.75,4.961h3.125a.586.586,0,0,0,0-1.172H13.75a.586.586,0,0,0,0,1.172Z" fill="#006aff"/>
    </g>
  </g>
</svg>
