<svg xmlns="http://www.w3.org/2000/svg" xmlns:xlink="http://www.w3.org/1999/xlink" width="20" height="20" viewBox="0 0 20 20">
  <defs>
    <clipPath id="clip-path">
      <rect id="Rectangle_374" data-name="Rectangle 374" width="20" height="20" transform="translate(1189 380)" fill="#006aff" stroke="#707070" stroke-width="1"/>
    </clipPath>
  </defs>
  <g id="Mask_Group_64" data-name="Mask Group 64" transform="translate(-1189 -380)" clip-path="url(#clip-path)">
    <g id="_1828415" data-name="1828415" transform="translate(1191.5 380)">
      <path id="Path_3467" data-name="Path 3467" d="M13.125,20H1.875A1.877,1.877,0,0,1,0,18.125V9.375A1.877,1.877,0,0,1,1.875,7.5h11.25A1.877,1.877,0,0,1,15,9.375v8.75A1.877,1.877,0,0,1,13.125,20ZM1.875,8.75a.626.626,0,0,0-.625.625v8.75a.626.626,0,0,0,.625.625h11.25a.626.626,0,0,0,.625-.625V9.375a.626.626,0,0,0-.625-.625Zm0,0" fill="#006aff"/>
      <path id="Path_3468" data-name="Path 3468" d="M11.875,8.75a.625.625,0,0,1-.625-.625V5a3.75,3.75,0,0,0-7.5,0V8.125a.625.625,0,0,1-1.25,0V5a5,5,0,0,1,10,0V8.125A.625.625,0,0,1,11.875,8.75Zm0,0" fill="#006aff"/>
    </g>
  </g>
</svg>
