<svg xmlns="http://www.w3.org/2000/svg" xmlns:xlink="http://www.w3.org/1999/xlink" width="20" height="20" viewBox="0 0 20 20">
  <defs>
    <clipPath id="clip-path">
      <rect id="Rectangle_369" data-name="Rectangle 369" width="20" height="20" transform="translate(730 470)" fill="#006aff" stroke="#707070" stroke-width="1"/>
    </clipPath>
  </defs>
  <g id="Mask_Group_59" data-name="Mask Group 59" transform="translate(-730 -470)" clip-path="url(#clip-path)">
    <g id="_992700" data-name="992700" transform="translate(730 470)">
      <g id="Group_8882" data-name="Group 8882">
        <g id="Group_8881" data-name="Group 8881">
          <path id="Path_3457" data-name="Path 3457" d="M13.563,11.766,10.775,9.675V5.414a.775.775,0,0,0-1.549,0v4.648a.773.773,0,0,0,.31.62l3.1,2.324a.775.775,0,0,0,.93-1.239Z" fill="#006aff"/>
        </g>
      </g>
      <g id="Group_8884" data-name="Group 8884">
        <g id="Group_8883" data-name="Group 8883">
          <path id="Path_3458" data-name="Path 3458" d="M10,0A10,10,0,1,0,20,10,10.011,10.011,0,0,0,10,0Zm0,18.451A8.451,8.451,0,1,1,18.451,10,8.461,8.461,0,0,1,10,18.451Z" fill="#006aff"/>
        </g>
      </g>
    </g>
  </g>
</svg>
