<svg xmlns="http://www.w3.org/2000/svg" xmlns:xlink="http://www.w3.org/1999/xlink" width="20" height="20" viewBox="0 0 20 20">
  <defs>
    <clipPath id="clip-path">
      <rect id="Rectangle_357" data-name="Rectangle 357" width="20" height="20" transform="translate(470 200)" fill="#006aff" stroke="#707070" stroke-width="1"/>
    </clipPath>
  </defs>
  <g id="Mask_Group_47" data-name="Mask Group 47" transform="translate(-470 -200)" clip-path="url(#clip-path)">
    <g id="_1828765" data-name="1828765" transform="translate(470 200)">
      <path id="Path_3425" data-name="Path 3425" d="M7.708,6.667H1.458A1.46,1.46,0,0,1,0,5.208V1.458A1.46,1.46,0,0,1,1.458,0h6.25A1.46,1.46,0,0,1,9.167,1.458v3.75A1.46,1.46,0,0,1,7.708,6.667ZM1.458,1.25a.208.208,0,0,0-.208.208v3.75a.208.208,0,0,0,.208.208h6.25a.209.209,0,0,0,.208-.208V1.458a.208.208,0,0,0-.208-.208Zm0,0" fill="#006aff"/>
      <path id="Path_3426" data-name="Path 3426" d="M7.708,20H1.458A1.46,1.46,0,0,1,0,18.542V9.792A1.46,1.46,0,0,1,1.458,8.333h6.25A1.46,1.46,0,0,1,9.167,9.792v8.75A1.46,1.46,0,0,1,7.708,20ZM1.458,9.583a.208.208,0,0,0-.208.208v8.75a.208.208,0,0,0,.208.208h6.25a.208.208,0,0,0,.208-.208V9.792a.209.209,0,0,0-.208-.208Zm0,0" fill="#006aff"/>
      <path id="Path_3427" data-name="Path 3427" d="M18.542,20h-6.25a1.46,1.46,0,0,1-1.458-1.458v-3.75a1.46,1.46,0,0,1,1.458-1.458h6.25A1.46,1.46,0,0,1,20,14.792v3.75A1.46,1.46,0,0,1,18.542,20Zm-6.25-5.417a.209.209,0,0,0-.208.208v3.75a.208.208,0,0,0,.208.208h6.25a.208.208,0,0,0,.208-.208v-3.75a.208.208,0,0,0-.208-.208Zm0,0" fill="#006aff"/>
      <path id="Path_3428" data-name="Path 3428" d="M18.542,11.667h-6.25a1.46,1.46,0,0,1-1.458-1.458V1.458A1.46,1.46,0,0,1,12.292,0h6.25A1.46,1.46,0,0,1,20,1.458v8.75A1.46,1.46,0,0,1,18.542,11.667ZM12.292,1.25a.208.208,0,0,0-.208.208v8.75a.209.209,0,0,0,.208.208h6.25a.208.208,0,0,0,.208-.208V1.458a.208.208,0,0,0-.208-.208Zm0,0" fill="#006aff"/>
    </g>
  </g>
</svg>
