<svg xmlns="http://www.w3.org/2000/svg" xmlns:xlink="http://www.w3.org/1999/xlink" width="20" height="20" viewBox="0 0 20 20">
  <defs>
    <clipPath id="clip-path">
      <rect id="Rectangle_366" data-name="Rectangle 366" width="20" height="20" transform="translate(929 200)" fill="#006aff" stroke="#707070" stroke-width="1"/>
    </clipPath>
  </defs>
  <g id="Mask_Group_52" data-name="Mask Group 52" transform="translate(-929 -200)" clip-path="url(#clip-path)">
    <g id="_957980" data-name="957980" transform="translate(929 200)">
      <g id="Group_8858" data-name="Group 8858">
        <path id="Path_3440" data-name="Path 3440" d="M13.176,10.913,15,11.274a1.856,1.856,0,1,0,.188-.938L13.3,9.962a2.978,2.978,0,0,0-.778-1.923l2.54-3.588a2.321,2.321,0,1,0-.781-.554l-2.51,3.545a2.982,2.982,0,0,0-3.644.57L4.84,5.459a1.86,1.86,0,1,0-.615.734L7.595,8.81A2.983,2.983,0,0,0,8.3,12.262L6.285,15.116a2.47,2.47,0,1,0,.732.622l2.088-2.954a2.979,2.979,0,0,0,2.3.05l2.5,3.688a2.1,2.1,0,1,0,.779-.556l-2.451-3.62A3,3,0,0,0,13.176,10.913Zm3.672-.654a.9.9,0,1,1-.9.9A.9.9,0,0,1,16.849,10.259ZM15.98.968a1.358,1.358,0,1,1-1.358,1.358A1.358,1.358,0,0,1,15.98.968ZM3.158,5.576a.9.9,0,1,1,.9-.9A.9.9,0,0,1,3.158,5.576Zm1.931,13.2A1.506,1.506,0,1,1,6.6,17.268,1.506,1.506,0,0,1,5.089,18.774Zm10.383-2.007a1.142,1.142,0,1,1-1.142,1.142A1.143,1.143,0,0,1,15.472,16.767Zm-5.158-4.683a2.035,2.035,0,0,1-2.033-2.033h0a2.033,2.033,0,1,1,2.033,2.033Z" fill="#006aff"/>
      </g>
    </g>
  </g>
</svg>
