<svg xmlns="http://www.w3.org/2000/svg" xmlns:xlink="http://www.w3.org/1999/xlink" width="20" height="20" viewBox="0 0 20 20">
  <defs>
    <clipPath id="clip-path">
      <rect id="Rectangle_362" data-name="Rectangle 362" width="20" height="20" transform="translate(929 560)" fill="#006aff" stroke="#707070" stroke-width="1"/>
    </clipPath>
  </defs>
  <g id="Mask_Group_56" data-name="Mask Group 56" transform="translate(-929 -560)" clip-path="url(#clip-path)">
    <path id="_1370907" data-name="1370907" d="M10,0A10,10,0,0,0,1.326,14.978l-1.288,4a.781.781,0,0,0,.983.983l4-1.288A10,10,0,1,0,10,0Zm0,18.437a8.413,8.413,0,0,1-4.466-1.278.782.782,0,0,0-.654-.081l-2.888.93.93-2.888a.782.782,0,0,0-.081-.654A8.438,8.438,0,1,1,10,18.437ZM10.977,10A.977.977,0,1,1,10,9.023.977.977,0,0,1,10.977,10Zm3.906,0a.977.977,0,1,1-.977-.977A.977.977,0,0,1,14.883,10ZM7.07,10a.977.977,0,1,1-.977-.977A.977.977,0,0,1,7.07,10Zm0,0" transform="translate(929 560)" fill="#006aff"/>
  </g>
</svg>
