<svg xmlns="http://www.w3.org/2000/svg" xmlns:xlink="http://www.w3.org/1999/xlink" width="20" height="20" viewBox="0 0 20 20">
  <defs>
    <clipPath id="clip-path">
      <rect id="Rectangle_361" data-name="Rectangle 361" width="20" height="20" transform="translate(470 560)" fill="#006aff" stroke="#707070" stroke-width="1"/>
    </clipPath>
  </defs>
  <g id="Mask_Group_51" data-name="Mask Group 51" transform="translate(-470 -560)" clip-path="url(#clip-path)">
    <g id="_4415935" data-name="4415935" transform="translate(470 560)">
      <path id="Path_3439" data-name="Path 3439" d="M19.919,7.987,16.365,1.93a.586.586,0,0,0-.8-.211l-2.13,1.23-1.919-.706A2.143,2.143,0,0,0,9.7,2.4L6.787,4.082,4.2,2.59a.586.586,0,0,0-.809.231L.07,9.02A.586.586,0,0,0,.293,9.8l1.319.762L.951,11.712a1.757,1.757,0,0,0,1.883,2.6,1.754,1.754,0,0,0,2.03,1.172,1.754,1.754,0,0,0,2.03,1.172,1.757,1.757,0,0,0,3.192.331l.076-.131,2.2,1.27a1.757,1.757,0,0,0,2.618-1.267,1.756,1.756,0,0,0,2.2-1.584,1.757,1.757,0,0,0,1.567-2.714,1.757,1.757,0,0,0-.03-2.942l1.071-.881a.586.586,0,0,0,.133-.749ZM10.287,3.414a.974.974,0,0,1,.825-.071l2.176.8a.586.586,0,0,0,.5-.043l1.864-1.076,3.007,5.124-1.022.841L10.6,4.927a.586.586,0,0,0-.586,0L6.771,6.8a.586.586,0,1,1-.586-1.015ZM2.18,13.1a.587.587,0,0,1-.214-.8l.977-1.691a.586.586,0,0,1,1.015.586l-.977,1.691A.587.587,0,0,1,2.18,13.1ZM4.21,14.27A.587.587,0,0,1,4,13.47L5.363,11.1a.586.586,0,0,1,1.015.586L5.01,14.056a.587.587,0,0,1-.8.214Zm2.03,1.172a.587.587,0,0,1-.214-.8L7,12.95a.586.586,0,0,1,1.015.586L7.04,15.228A.587.587,0,0,1,6.24,15.442Zm2.03,1.172a.587.587,0,0,1-.214-.8L8.641,14.8a.586.586,0,0,1,1.015.586L9.07,16.4A.587.587,0,0,1,8.269,16.614Zm9.511-2.8a.587.587,0,0,1-.8.214l-3.045-1.758a.586.586,0,1,0-.586,1.015l2.368,1.367a.586.586,0,0,1-.586,1.015L12.764,14.3a.586.586,0,1,0-.586,1.015l1.353.781a.586.586,0,1,1-.586,1.015l-2.2-1.273a1.757,1.757,0,0,0-1.477-2.5A1.756,1.756,0,0,0,7.625,11.49,1.757,1.757,0,0,0,4.911,9.923a1.756,1.756,0,0,0-2.638-.329l-.9-.521L4.142,3.907l1.474.851-.016.01A1.758,1.758,0,1,0,7.357,7.812l2.946-1.7,7.759,4.48a.586.586,0,1,1-.586,1.015l-2.368-1.367a.586.586,0,0,0-.586,1.015l3.045,1.758a.587.587,0,0,1,.214.8Z" fill="#006aff"/>
    </g>
  </g>
</svg>
