<svg xmlns="http://www.w3.org/2000/svg" xmlns:xlink="http://www.w3.org/1999/xlink" width="20" height="20" viewBox="0 0 20 20">
  <defs>
    <clipPath id="clip-path">
      <rect id="Rectangle_365" data-name="Rectangle 365" width="20" height="20" transform="translate(929 290)" fill="#006aff" stroke="#707070" stroke-width="1"/>
    </clipPath>
  </defs>
  <g id="Mask_Group_53" data-name="Mask Group 53" transform="translate(-929 -290)" clip-path="url(#clip-path)">
    <g id="_3064178" data-name="3064178" transform="translate(929.203 290.204)">
      <path id="Path_3441" data-name="Path 3441" d="M13.939,17.143H8.612A.612.612,0,0,1,8,16.531V15.012l-1.022.307a1.338,1.338,0,0,1-.437.067,1.5,1.5,0,0,1-1.5-1.491V12.458H4.173a.9.9,0,0,1-.767-1.389L4.791,8.894a1.573,1.573,0,0,0,.25-.853,5.643,5.643,0,0,1,11.286,0A5.525,5.525,0,0,1,15.3,11.254a4.01,4.01,0,0,0-.748,2.334v2.943a.612.612,0,0,1-.612.612ZM9.224,15.918h4.1V13.588a5.233,5.233,0,0,1,.974-3.044,4.3,4.3,0,0,0,.8-2.5,4.418,4.418,0,0,0-8.836,0,2.817,2.817,0,0,1-.442,1.513L4.753,11.234h.9a.612.612,0,0,1,.612.612V13.9a.271.271,0,0,0,.276.266c.008,0,.076-.012.084-.015L8.435,13.6a.612.612,0,0,1,.789.586v1.729Z" fill="#006aff"/>
      <path id="Path_3442" data-name="Path 3442" d="M19.184,9.388H.408a.612.612,0,0,1,0-1.224H19.184a.612.612,0,1,1,0,1.224Z" fill="#006aff"/>
      <path id="Path_3443" data-name="Path 3443" d="M.612,5.306A.612.612,0,0,1,0,4.694V2.245A2.247,2.247,0,0,1,2.245,0H4.694a.612.612,0,1,1,0,1.224H2.245a1.022,1.022,0,0,0-1.02,1.02V4.694A.612.612,0,0,1,.612,5.306Z" fill="#006aff"/>
      <path id="Path_3444" data-name="Path 3444" d="M4.694,19.592H2.245A2.247,2.247,0,0,1,0,17.347V14.9a.612.612,0,0,1,1.224,0v2.449a1.022,1.022,0,0,0,1.02,1.02H4.694a.612.612,0,1,1,0,1.224Z" fill="#006aff"/>
      <path id="Path_3445" data-name="Path 3445" d="M18.98,5.306a.612.612,0,0,1-.612-.612V2.245a1.022,1.022,0,0,0-1.02-1.02H14.9A.612.612,0,0,1,14.9,0h2.449a2.247,2.247,0,0,1,2.245,2.245V4.694A.612.612,0,0,1,18.98,5.306Z" fill="#006aff"/>
      <path id="Path_3446" data-name="Path 3446" d="M17.347,19.592H14.9a.612.612,0,1,1,0-1.224h2.449a1.022,1.022,0,0,0,1.02-1.02V14.9a.612.612,0,1,1,1.224,0v2.449A2.247,2.247,0,0,1,17.347,19.592Z" fill="#006aff"/>
    </g>
  </g>
</svg>
