<svg xmlns="http://www.w3.org/2000/svg" xmlns:xlink="http://www.w3.org/1999/xlink" width="20" height="20" viewBox="0 0 20 20">
  <defs>
    <clipPath id="clip-path">
      <rect id="Rectangle_359" data-name="Rectangle 359" width="20" height="20" transform="translate(470 380)" fill="#006aff" stroke="#707070" stroke-width="1"/>
    </clipPath>
  </defs>
  <g id="Mask_Group_49" data-name="Mask Group 49" transform="translate(-470 -380)" clip-path="url(#clip-path)">
    <g id="_633781" data-name="633781" transform="translate(470 380)">
      <g id="Group_8843" data-name="Group 8843">
        <g id="Group_8842" data-name="Group 8842">
          <path id="Path_3431" data-name="Path 3431" d="M10,3.478a3.043,3.043,0,1,0,3.043,3.043A3.047,3.047,0,0,0,10,3.478ZM10,8.7a2.174,2.174,0,1,1,2.174-2.174A2.177,2.177,0,0,1,10,8.7Z" fill="#006aff"/>
        </g>
      </g>
      <g id="Group_8845" data-name="Group 8845">
        <g id="Group_8844" data-name="Group 8844">
          <path id="Path_3432" data-name="Path 3432" d="M16.087,6.957A2.174,2.174,0,1,0,18.261,9.13,2.177,2.177,0,0,0,16.087,6.957Zm0,3.478a1.3,1.3,0,1,1,1.3-1.3A1.306,1.306,0,0,1,16.087,10.435Z" fill="#006aff"/>
        </g>
      </g>
      <g id="Group_8847" data-name="Group 8847">
        <g id="Group_8846" data-name="Group 8846">
          <path id="Path_3433" data-name="Path 3433" d="M3.975,6.957A2.174,2.174,0,1,0,6.149,9.13,2.176,2.176,0,0,0,3.975,6.957Zm0,3.478a1.3,1.3,0,1,1,1.3-1.3A1.306,1.306,0,0,1,3.975,10.435Z" fill="#006aff"/>
        </g>
      </g>
      <g id="Group_8849" data-name="Group 8849">
        <g id="Group_8848" data-name="Group 8848">
          <path id="Path_3434" data-name="Path 3434" d="M10,10.435a5.659,5.659,0,0,0-5.652,5.652.435.435,0,1,0,.87,0,4.783,4.783,0,0,1,9.565,0,.435.435,0,1,0,.87,0A5.659,5.659,0,0,0,10,10.435Z" fill="#006aff"/>
        </g>
      </g>
      <g id="Group_8851" data-name="Group 8851">
        <g id="Group_8850" data-name="Group 8850">
          <path id="Path_3435" data-name="Path 3435" d="M16.087,12.174a3.913,3.913,0,0,0-2.027.565.435.435,0,0,0,.451.743,3.044,3.044,0,0,1,4.619,2.6.435.435,0,1,0,.87,0A3.918,3.918,0,0,0,16.087,12.174Z" fill="#006aff"/>
        </g>
      </g>
      <g id="Group_8853" data-name="Group 8853">
        <g id="Group_8852" data-name="Group 8852">
          <path id="Path_3436" data-name="Path 3436" d="M5.939,12.738A3.914,3.914,0,0,0,0,16.087a.435.435,0,1,0,.87,0,3.045,3.045,0,0,1,4.618-2.605.435.435,0,0,0,.451-.743Z" fill="#006aff"/>
        </g>
      </g>
    </g>
  </g>
</svg>
