<svg xmlns="http://www.w3.org/2000/svg" xmlns:xlink="http://www.w3.org/1999/xlink" width="144.348" height="20" viewBox="0 0 144.348 20">
  <defs>
    <clipPath id="clip-path">
      <rect width="10.87" height="20" fill="none"/>
    </clipPath>
  </defs>
  <g id="Group_220" data-name="Group 220" transform="translate(-887.826 -1657)">
    <path id="star" d="M20.815,8.049a1.107,1.107,0,0,0-.955-.763L13.837,6.74,11.455,1.164a1.109,1.109,0,0,0-2.04,0L7.033,6.74l-6.025.547a1.11,1.11,0,0,0-.63,1.941l4.553,3.993L3.59,19.135a1.107,1.107,0,0,0,1.65,1.2l5.2-3.105,5.194,3.105a1.109,1.109,0,0,0,1.651-1.2l-1.343-5.914L20.49,9.228a1.11,1.11,0,0,0,.325-1.179Zm0,0" transform="translate(949.565 1656.509)" fill="#003cff"/>
    <path id="star-2" data-name="star" d="M20.815,8.049a1.107,1.107,0,0,0-.955-.763L13.837,6.74,11.455,1.164a1.109,1.109,0,0,0-2.04,0L7.033,6.74l-6.025.547a1.11,1.11,0,0,0-.63,1.941l4.553,3.993L3.59,19.135a1.107,1.107,0,0,0,1.65,1.2l5.2-3.105,5.194,3.105a1.109,1.109,0,0,0,1.651-1.2l-1.343-5.914L20.49,9.228a1.11,1.11,0,0,0,.325-1.179Zm0,0" transform="translate(918.695 1656.509)" fill="#003cff"/>
    <path id="star-3" data-name="star" d="M20.815,8.049a1.107,1.107,0,0,0-.955-.763L13.837,6.74,11.455,1.164a1.109,1.109,0,0,0-2.04,0L7.033,6.74l-6.025.547a1.11,1.11,0,0,0-.63,1.941l4.553,3.993L3.59,19.135a1.107,1.107,0,0,0,1.65,1.2l5.2-3.105,5.194,3.105a1.109,1.109,0,0,0,1.651-1.2l-1.343-5.914L20.49,9.228a1.11,1.11,0,0,0,.325-1.179Zm0,0" transform="translate(887.826 1656.509)" fill="#003cff"/>
    <path id="star-4" data-name="star" d="M20.815,8.049a1.107,1.107,0,0,0-.955-.763L13.837,6.74,11.455,1.164a1.109,1.109,0,0,0-2.04,0L7.033,6.74l-6.025.547a1.11,1.11,0,0,0-.63,1.941l4.553,3.993L3.59,19.135a1.107,1.107,0,0,0,1.65,1.2l5.2-3.105,5.194,3.105a1.109,1.109,0,0,0,1.651-1.2l-1.343-5.914L20.49,9.228a1.11,1.11,0,0,0,.325-1.179Zm0,0" transform="translate(980.435 1656.509)" fill="#003cff"/>
    <path id="star-5" data-name="star" d="M20.815,8.049a1.107,1.107,0,0,0-.955-.763L13.837,6.74,11.455,1.164a1.109,1.109,0,0,0-2.04,0L7.033,6.74l-6.025.547a1.11,1.11,0,0,0-.63,1.941l4.553,3.993L3.59,19.135a1.107,1.107,0,0,0,1.65,1.2l5.2-3.105,5.194,3.105a1.109,1.109,0,0,0,1.651-1.2l-1.343-5.914L20.49,9.228a1.11,1.11,0,0,0,.325-1.179Zm0,0" transform="translate(1011.304 1656.509)" fill="#dbe0e5"/>
    <g id="Scroll_Group_2" data-name="Scroll Group 2" transform="translate(1011.304 1657)" clip-path="url(#clip-path)" style="isolation: isolate">
      <path id="star-6" data-name="star" d="M20.815,8.049a1.107,1.107,0,0,0-.955-.763L13.837,6.74,11.455,1.164a1.109,1.109,0,0,0-2.04,0L7.033,6.74l-6.025.547a1.11,1.11,0,0,0-.63,1.941l4.553,3.993L3.59,19.135a1.107,1.107,0,0,0,1.65,1.2l5.2-3.105,5.194,3.105a1.109,1.109,0,0,0,1.651-1.2l-1.343-5.914L20.49,9.228a1.11,1.11,0,0,0,.325-1.179Zm0,0" transform="translate(0 -0.491)" fill="#003cff"/>
    </g>
  </g>
</svg>
