<svg xmlns="http://www.w3.org/2000/svg" width="19.706" height="30.003" viewBox="0 0 19.706 30.003">
  <g id="chevron" transform="translate(-87.853 0)">
    <path id="Path_384" data-name="Path 384" d="M106.837,276.547l-8.632,4.48a1.075,1.075,0,0,1-.951,0l-8.68-4.486a.494.494,0,0,0-.721.439v2.261a.5.5,0,0,0,.268.44l9.189,4.733a.909.909,0,0,0,.834,0l9.147-4.737a.494.494,0,0,0,.267-.439v-2.252A.494.494,0,0,0,106.837,276.547Z" transform="translate(0 -260.282)" fill="#003cff"/>
    <path id="Path_385" data-name="Path 385" d="M106.837,178.085l-8.632,4.48a1.075,1.075,0,0,1-.951,0l-8.68-4.486a.494.494,0,0,0-.721.439v2.262a.494.494,0,0,0,.268.439l9.19,4.739a.909.909,0,0,0,.835,0l9.147-4.736a.494.494,0,0,0,.267-.439v-2.259A.494.494,0,0,0,106.837,178.085Z" transform="translate(0 -167.591)" fill="#003cff"/>
    <path id="Path_386" data-name="Path 386" d="M106.837,374.971l-8.632,4.48a1.075,1.075,0,0,1-.95,0l-8.681-4.481a.494.494,0,0,0-.721.439v2.256a.494.494,0,0,0,.268.439l9.19,4.738a.909.909,0,0,0,.835,0l9.147-4.736a.494.494,0,0,0,.267-.439V375.41A.494.494,0,0,0,106.837,374.971Z" transform="translate(0 -352.943)" fill="#003cff"/>
    <path id="Path_387" data-name="Path 387" d="M164.218,4.785l1.926,1.877-.455,2.651a.879.879,0,0,0,1.275.927l2.381-1.252,2.381,1.252A.879.879,0,0,0,173,9.313l-.455-2.651,1.926-1.877a.879.879,0,0,0-.487-1.5L171.324,2.9,170.134.487a.882.882,0,0,0-1.577,0L167.367,2.9l-2.662.387a.879.879,0,0,0-.487,1.5Z" transform="translate(-71.64 0)" fill="#003cff"/>
  </g>
</svg>
