<svg id="_4282764" data-name="4282764" xmlns="http://www.w3.org/2000/svg" width="40" height="40" viewBox="0 0 40 40">
  <path id="Path_296" data-name="Path 296" d="M267.371,377l-4.817,4.817h-2.4l-3.6-2.408,3.6-2.408Z" transform="translate(-235.882 -346.634)" fill="#ffb739"/>
  <path id="Path_297" data-name="Path 297" d="M110.5,381.817,105.683,377h15.709v4.817Z" transform="translate(-97.164 -346.634)" fill="#ffd17e"/>
  <path id="Path_298" data-name="Path 298" d="M454.408,467H452v2.408h2.408a1.2,1.2,0,1,0,0-2.408Z" transform="translate(-415.613 -429.408)" fill="#dae0e7"/>
  <path id="Path_299" data-name="Path 299" d="M37.592,468.2a1.206,1.206,0,0,0-1.207-1.2H1.207a1.2,1.2,0,1,0,0,2.408H36.384A1.206,1.206,0,0,0,37.592,468.2Z" transform="translate(0 -429.408)" fill="#eceff3"/>
  <path id="Path_300" data-name="Path 300" d="M96.9,294.1l0,10.919H94.5l-3.6-5.76,3.6-5.76h1.8A.6.6,0,0,1,96.9,294.1Z" transform="translate(-83.58 -269.837)" fill="#ff7149"/>
  <path id="Path_301" data-name="Path 301" d="M.035,304.418V294.1a.6.6,0,0,1,.6-.6H10.926v11.521H.637a.6.6,0,0,1-.6-.6Z" transform="translate(-0.031 -269.837)" fill="#ff9441"/>
  <path id="Path_302" data-name="Path 302" d="M428.2,210.6v17.02a.6.6,0,0,1-.6.6h-1.8l-3.6-9.112L425.8,210h1.8A.6.6,0,0,1,428.2,210.6Z" transform="translate(-388.204 -193.041)" fill="#53a143"/>
  <path id="Path_303" data-name="Path 303" d="M331.335,228.224V210.6a.6.6,0,0,1,.6-.6h10.289v18.224Z" transform="translate(-304.634 -193.041)" fill="#60ba4d"/>
  <path id="Path_304" data-name="Path 304" d="M439.408,120H437l2.408,4.817h1.806a.6.6,0,0,0,.6-.6v-1.806A2.416,2.416,0,0,0,439.408,120Z" transform="translate(-401.817 -110.339)" fill="#1b74d6"/>
  <path id="Path_305" data-name="Path 305" d="M333.741,120a2.416,2.416,0,0,0-2.408,2.408v1.806a.6.6,0,0,0,.6.6h1.806L336.15,120Z" transform="translate(-304.657 -110.339)" fill="#54a5ff"/>
  <path id="Path_306" data-name="Path 306" d="M367.408,120h-3.666a2.416,2.416,0,0,0-2.408,2.408v2.408h8.483v-2.408A2.416,2.416,0,0,0,367.408,120Z" transform="translate(-332.225 -110.339)" fill="#1e8aff"/>
  <path id="Path_307" data-name="Path 307" d="M413.838,0V7.225a3.613,3.613,0,1,0,0-7.225Z" transform="translate(-380.514)" fill="#1b74d6"/>
  <path id="Path_308" data-name="Path 308" d="M373.655,3.613c0-2-.539-3.613-1.2-3.613a3.613,3.613,0,1,0,0,7.225C373.116,7.225,373.655,5.608,373.655,3.613Z" transform="translate(-339.127)" fill="#1e8aff"/>
</svg>
