<svg xmlns="http://www.w3.org/2000/svg" width="40" height="40" viewBox="0 0 40 40">
  <path id="Subtraction_6" data-name="Subtraction 6" d="M4090,5300a20,20,0,1,1,14.143-5.859A19.865,19.865,0,0,1,4090,5300Zm0-30c-2.67,0-3.03.012-4.124.06a7.334,7.334,0,0,0-2.426.464,4.908,4.908,0,0,0-1.773,1.156,4.961,4.961,0,0,0-1.154,1.772,7.37,7.37,0,0,0-.464,2.427c-.051,1.074-.063,1.431-.063,4.126,0,2.668.012,3.028.059,4.123a7.371,7.371,0,0,0,.465,2.427,4.884,4.884,0,0,0,1.158,1.774,4.986,4.986,0,0,0,1.77,1.154,7.427,7.427,0,0,0,2.425.463c1.063.048,1.416.059,4.125.059s3.061-.011,4.12-.059a7.392,7.392,0,0,0,2.429-.463,5.128,5.128,0,0,0,2.926-2.928,7.4,7.4,0,0,0,.464-2.427c.049-1.085.06-1.443.06-4.123,0-2.751,0-3.06-.051-4.122a7.312,7.312,0,0,0-.465-2.427,4.867,4.867,0,0,0-1.156-1.775,4.963,4.963,0,0,0-1.77-1.15,7.307,7.307,0,0,0-2.427-.465C4093.053,5270.01,4092.7,5270,4090,5270Zm0,18.208c-2.706,0-3.014-.014-4.039-.059a5.549,5.549,0,0,1-1.859-.343,3.13,3.13,0,0,1-1.147-.748,3.068,3.068,0,0,1-.747-1.15,5.458,5.458,0,0,1-.344-1.855c-.048-1.059-.059-1.375-.059-4.042s.01-2.986.059-4.04a5.462,5.462,0,0,1,.344-1.857,3.047,3.047,0,0,1,.75-1.148,3.085,3.085,0,0,1,1.149-.746,5.423,5.423,0,0,1,1.855-.345c1.032-.045,1.342-.059,4.042-.059s3.015.014,4.038.059a5.472,5.472,0,0,1,1.86.345,3.3,3.3,0,0,1,1.895,1.894,5.538,5.538,0,0,1,.345,1.857c.047,1.071.057,1.391.057,4.04s-.01,2.967-.057,4.038a5.565,5.565,0,0,1-.345,1.857,3.331,3.331,0,0,1-1.9,1.9,5.545,5.545,0,0,1-1.857.343C4093.018,5288.192,4092.708,5288.206,4090.008,5288.206Zm0-13.342a5.139,5.139,0,1,0,5.139,5.139A5.145,5.145,0,0,0,4090,5274.864Zm5.343-1.4a1.2,1.2,0,1,0,1.2,1.2A1.2,1.2,0,0,0,4095.348,5273.46Zm-5.343,9.875a3.333,3.333,0,1,1,3.333-3.333A3.337,3.337,0,0,1,4090,5283.336Z" transform="translate(-4070 -5260)" fill="#889db1"/>
</svg>
