<svg id="Google" xmlns="http://www.w3.org/2000/svg" width="19.597" height="19.997" viewBox="0 0 19.597 19.997">
  <path id="Path_5" data-name="Path 5" d="M140.148,108.805a8.568,8.568,0,0,0-.211-2.044H130.55v3.71h5.51a4.886,4.886,0,0,1-2.044,3.244l-.019.124,2.968,2.3.206.021a9.776,9.776,0,0,0,2.977-7.354" transform="translate(-120.552 -98.585)" fill="#fff"/>
  <path id="Path_6" data-name="Path 6" d="M22.857,164.391a9.53,9.53,0,0,0,6.621-2.422l-3.155-2.444a5.918,5.918,0,0,1-3.466,1,6.019,6.019,0,0,1-5.688-4.155l-.117.01-3.086,2.389-.04.112a9.991,9.991,0,0,0,8.932,5.51" transform="translate(-12.859 -144.394)" fill="#fff"/>
  <path id="Path_7" data-name="Path 7" d="M4.31,77.826a6.155,6.155,0,0,1-.333-1.977A6.468,6.468,0,0,1,4.3,73.871l-.006-.132L1.169,71.312l-.1.049a9.977,9.977,0,0,0,0,8.976L4.31,77.826" transform="translate(0 -65.85)" fill="#fff"/>
  <path id="Path_8" data-name="Path 8" d="M22.857,3.866a5.541,5.541,0,0,1,3.866,1.489L29.545,2.6A9.606,9.606,0,0,0,22.857,0a9.991,9.991,0,0,0-8.932,5.51l3.233,2.511a6.044,6.044,0,0,1,5.7-4.155" transform="translate(-12.859 0)" fill="#fff"/>
</svg>
