<svg xmlns="http://www.w3.org/2000/svg" xmlns:xlink="http://www.w3.org/1999/xlink" width="17" height="17" viewBox="0 0 17 17">
  <defs>
    <clipPath id="clip-path">
      <rect id="Rectangle_11" data-name="Rectangle 11" width="17" height="17" transform="translate(145 613)" fill="#7f8d9b" stroke="#707070" stroke-width="1"/>
    </clipPath>
  </defs>
  <g id="Mask_Group_3" data-name="Mask Group 3" transform="translate(-145 -613)" clip-path="url(#clip-path)">
    <g id="lock" transform="translate(147.125 613)">
      <path id="Path_283" data-name="Path 283" d="M11.156,17H1.594A1.6,1.6,0,0,1,0,15.406V7.969A1.6,1.6,0,0,1,1.594,6.375h9.563A1.6,1.6,0,0,1,12.75,7.969v7.438A1.6,1.6,0,0,1,11.156,17ZM1.594,7.438a.532.532,0,0,0-.531.531v7.438a.532.532,0,0,0,.531.531h9.563a.532.532,0,0,0,.531-.531V7.969a.532.532,0,0,0-.531-.531Zm0,0" fill="#7f8d9b"/>
      <path id="Path_284" data-name="Path 284" d="M10.094,7.438a.531.531,0,0,1-.531-.531V4.25a3.188,3.188,0,0,0-6.375,0V6.906a.531.531,0,0,1-1.062,0V4.25a4.25,4.25,0,0,1,8.5,0V6.906A.531.531,0,0,1,10.094,7.438Zm0,0" fill="#7f8d9b"/>
    </g>
  </g>
</svg>
