<svg xmlns="http://www.w3.org/2000/svg" width="40" height="40" viewBox="0 0 40 40">
  <path id="Subtraction_7" data-name="Subtraction 7" d="M4090,5300a20,20,0,1,1,14.143-5.859A19.865,19.865,0,0,1,4090,5300Zm-10-13.715v0a11.673,11.673,0,0,0,17.959-9.83c0-.168,0-.341-.014-.529A8.155,8.155,0,0,0,4100,5273.8a8.517,8.517,0,0,1-2.363.647,4.074,4.074,0,0,0,1.8-2.266,8.179,8.179,0,0,1-2.6.992,4.1,4.1,0,0,0-7.091,2.805,4.214,4.214,0,0,0,.094.935,11.657,11.657,0,0,1-8.451-4.289,4.1,4.1,0,0,0,1.26,5.479,4.076,4.076,0,0,1-1.853-.5v.046a4.126,4.126,0,0,0,3.285,4.029,4.129,4.129,0,0,1-1.074.135,3.651,3.651,0,0,1-.777-.071,4.139,4.139,0,0,0,3.832,2.857,8.308,8.308,0,0,1-5.085,1.749A7.661,7.661,0,0,1,4080,5286.285Z" transform="translate(-4070 -5260)" fill="#889db1"/>
</svg>
