<svg xmlns="http://www.w3.org/2000/svg" xmlns:xlink="http://www.w3.org/1999/xlink" width="17" height="17" viewBox="0 0 17 17">
  <defs>
    <clipPath id="clip-path">
      <rect id="Rectangle_11" data-name="Rectangle 11" width="17" height="17" fill="#7f8d9b"/>
    </clipPath>
  </defs>
  <g id="Mask_Group_2" data-name="Mask Group 2" clip-path="url(#clip-path)">
    <g id="user" transform="translate(1.029)">
      <g id="Group_208" data-name="Group 208" transform="translate(2.988)">
        <g id="Group_207" data-name="Group 207">
          <path id="Path_281" data-name="Path 281" d="M8.5,0a4.482,4.482,0,1,0,4.482,4.482A4.488,4.488,0,0,0,8.5,0Zm0,7.969a3.486,3.486,0,1,1,3.486-3.486A3.49,3.49,0,0,1,8.5,7.969Z" transform="translate(-4.018)" fill="#7f8d9b"/>
        </g>
      </g>
      <g id="Group_210" data-name="Group 210" transform="translate(0 9.961)">
        <g id="Group_209" data-name="Group 209">
          <path id="Path_282" data-name="Path 282" d="M14.077,11.893A6.39,6.39,0,0,0,9.5,9.961H7.5a6.39,6.39,0,0,0-4.581,1.932A6.532,6.532,0,0,0,1.029,16.5a.5.5,0,0,0,.5.5H15.473a.5.5,0,0,0,.5-.5A6.532,6.532,0,0,0,14.077,11.893ZM2.047,16A5.512,5.512,0,0,1,7.5,10.957H9.5A5.512,5.512,0,0,1,14.953,16Z" transform="translate(-1.029 -9.961)" fill="#7f8d9b"/>
        </g>
      </g>
    </g>
  </g>
</svg>
