<svg xmlns="http://www.w3.org/2000/svg" width="40" height="40" viewBox="0 0 40 40">
  <path id="Subtraction_11" data-name="Subtraction 11" d="M4090,5300a20,20,0,1,1,14.143-5.859A19.865,19.865,0,0,1,4090,5300Zm-.021-27.016c-.062,0-6.275,0-7.824.412a2.564,2.564,0,0,0-1.763,1.779,28.247,28.247,0,0,0,0,9.621,2.507,2.507,0,0,0,1.763,1.763c1.563.423,7.761.429,7.824.429s6.277,0,7.826-.412a2.5,2.5,0,0,0,1.763-1.763,26.522,26.522,0,0,0,.413-4.81,24.75,24.75,0,0,0-.413-4.827,2.508,2.508,0,0,0-1.763-1.763C4096.257,5272.99,4090.041,5272.984,4089.978,5272.984Zm-1.991,10v-6l5.2,3-5.2,3Z" transform="translate(-4070 -5260)" fill="#889db1"/>
</svg>
