<svg xmlns="http://www.w3.org/2000/svg" xmlns:xlink="http://www.w3.org/1999/xlink" width="15" height="15" viewBox="0 0 15 15">
  <defs>
    <clipPath id="clip-path">
      <rect id="Rectangle_139" data-name="Rectangle 139" width="15" height="15" rx="3" transform="translate(292 4826)" fill="#fff" stroke="#707070" stroke-width="1"/>
    </clipPath>
  </defs>
  <g id="Mask_Group_43" data-name="Mask Group 43" transform="translate(-292 -4826)" clip-path="url(#clip-path)">
    <path id="playstation-6" d="M2.174,12.03c-.562.375-.375,1.087.825,1.424a8.067,8.067,0,0,0,3.9.3,1.623,1.623,0,0,0,.187-.037V12.443l-1.274.412a2.774,2.774,0,0,1-1.462.075c-.375-.112-.3-.337.15-.525l2.586-.9V10.119l-3.6,1.237a4.847,4.847,0,0,0-1.312.675Zm8.695-5.622v3.635c1.537.75,2.736,0,2.736-1.949,0-1.986-.712-2.886-2.773-3.6A25.934,25.934,0,0,0,7.5,3.56V14.392l2.623.787V6.071c0-.412,0-.712.3-.6.412.112.45.525.45.937Zm4.872,4.76a7.976,7.976,0,0,0-3.373-.412,6.147,6.147,0,0,0-1.687.375l-.112.037V12.63l2.436-.9a2.774,2.774,0,0,1,1.462-.075c.375.112.3.337-.15.525l-3.748,1.387v1.424l5.172-1.911a2.889,2.889,0,0,0,1.012-.637c.262-.375.15-.9-1.012-1.274Z" transform="translate(290.13 4824.13)"/>
  </g>
</svg>
