<svg xmlns="http://www.w3.org/2000/svg" xmlns:xlink="http://www.w3.org/1999/xlink" width="15" height="15" viewBox="0 0 15 15">
  <defs>
    <clipPath id="clip-path">
      <rect id="Rectangle_138" data-name="Rectangle 138" width="15" height="15" rx="3" transform="translate(292 4776)" fill="#fff" stroke="#707070" stroke-width="1"/>
    </clipPath>
  </defs>
  <g id="Mask_Group_42" data-name="Mask Group 42" transform="translate(-292 -4776)" clip-path="url(#clip-path)">
    <g id="_1384060" data-name="1384060" transform="translate(292 4778.249)">
      <path id="Path_381" data-name="Path 381" d="M14.691,1.643A1.879,1.879,0,0,0,13.369.321,43.9,43.9,0,0,0,7.5,0,45.617,45.617,0,0,0,1.631.309,1.918,1.918,0,0,0,.309,1.643,19.8,19.8,0,0,0,0,5.251,19.73,19.73,0,0,0,.309,8.859a1.88,1.88,0,0,0,1.322,1.322A43.988,43.988,0,0,0,7.5,10.5a45.617,45.617,0,0,0,5.869-.309,1.879,1.879,0,0,0,1.322-1.322A19.8,19.8,0,0,0,15,5.264a18.8,18.8,0,0,0-.309-3.62Zm0,0" fill="red"/>
      <path id="Path_382" data-name="Path 382" d="M6,7.5l3.9-2.249L6,3Zm0,0" fill="#fff"/>
    </g>
  </g>
</svg>
