<svg xmlns="http://www.w3.org/2000/svg" width="22" height="21.999" viewBox="0 0 22 21.999">
  <g id="chrome" transform="translate(0 -0.001)">
    <path id="Path" d="M0,3.832,3.477,9.879A5.073,5.073,0,0,1,6.023,6.538a7.116,7.116,0,0,1,3.6-.531c2.116,0,6.023,0,8.518,0A11,11,0,0,0,0,3.832Z" transform="translate(2.656 0.001)" fill="#003cff"/>
    <path id="Path-2" data-name="Path" d="M3.656,0A3.658,3.658,0,1,0,7.312,3.658,3.659,3.659,0,0,0,3.656,0Z" transform="translate(7.341 7.343)" fill="#003cff"/>
    <path id="Path-3" data-name="Path" d="M6.646,8.456C5.643,6.724,2.989,2.1,1.784,0A11.014,11.014,0,0,0,8.867,16.8l3.548-6.006A4.927,4.927,0,0,1,6.646,8.456Z" transform="translate(0 4.995)" fill="#003cff"/>
    <path id="Path-4" data-name="Path" d="M11.056,0H4.081A5.008,5.008,0,0,1,5.005,6.16c-.872,1.5-3.656,6.2-5.005,8.477A11.008,11.008,0,0,0,11.056,0Z" transform="translate(10.311 7.341)" fill="#003cff"/>
  </g>
</svg>
