<svg xmlns="http://www.w3.org/2000/svg" width="30" height="30" viewBox="0 0 30 30">
  <path id="Subtraction_6" data-name="Subtraction 6" d="M4085,5290a15,15,0,1,1,10.607-4.394A14.9,14.9,0,0,1,4085,5290Zm0-22.5c-2,0-2.273.009-3.094.045a5.5,5.5,0,0,0-1.819.348,3.676,3.676,0,0,0-1.33.867,3.714,3.714,0,0,0-.866,1.329,5.518,5.518,0,0,0-.348,1.82c-.039.806-.048,1.073-.048,3.095,0,2,.008,2.271.044,3.092a5.526,5.526,0,0,0,.349,1.82,3.663,3.663,0,0,0,.868,1.331,3.735,3.735,0,0,0,1.328.866,5.566,5.566,0,0,0,1.819.348c.8.036,1.062.044,3.093.044s2.3-.008,3.091-.044a5.552,5.552,0,0,0,1.822-.348,3.846,3.846,0,0,0,2.195-2.2,5.528,5.528,0,0,0,.348-1.82c.037-.814.045-1.083.045-3.092,0-2.063,0-2.295-.039-3.092a5.485,5.485,0,0,0-.349-1.82,3.647,3.647,0,0,0-.867-1.332,3.721,3.721,0,0,0-1.328-.863,5.477,5.477,0,0,0-1.82-.349C4087.289,5267.508,4087.021,5267.5,4085,5267.5Zm0,13.656c-2.03,0-2.261-.01-3.029-.044a4.166,4.166,0,0,1-1.395-.257,2.345,2.345,0,0,1-.86-.561,2.306,2.306,0,0,1-.56-.863,4.106,4.106,0,0,1-.258-1.391c-.036-.794-.044-1.032-.044-3.031s.008-2.24.044-3.03a4.113,4.113,0,0,1,.258-1.393,2.281,2.281,0,0,1,.563-.861,2.314,2.314,0,0,1,.862-.559,4.069,4.069,0,0,1,1.391-.259c.774-.034,1.006-.044,3.031-.044s2.261.01,3.028.044a4.111,4.111,0,0,1,1.4.259,2.476,2.476,0,0,1,1.42,1.42,4.144,4.144,0,0,1,.259,1.393c.035.8.042,1.043.042,3.03s-.007,2.225-.042,3.028a4.16,4.16,0,0,1-.259,1.393,2.5,2.5,0,0,1-1.425,1.425,4.163,4.163,0,0,1-1.393.257C4087.263,5281.144,4087.031,5281.154,4085.006,5281.154Zm0-10.006a3.854,3.854,0,1,0,3.854,3.854A3.859,3.859,0,0,0,4085,5271.148Zm4.007-1.053a.9.9,0,1,0,.9.9A.9.9,0,0,0,4089.01,5270.1ZM4085,5277.5a2.5,2.5,0,1,1,2.5-2.5A2.5,2.5,0,0,1,4085,5277.5Z" transform="translate(-4070 -5260)" fill="#889db1"/>
</svg>
