<svg xmlns="http://www.w3.org/2000/svg" width="30" height="30" viewBox="0 0 30 30">
  <path id="Subtraction_9" data-name="Subtraction 9" d="M4085,5290a15,15,0,1,1,10.607-4.394A14.9,14.9,0,0,1,4085,5290Zm2.776-15.027c1.618,0,1.618,1.533,1.618,2.653v4.875h3.1l0-5.5c0-2.475-.451-4.765-3.727-4.765a3.279,3.279,0,0,0-2.941,1.617h-.044v-1.366H4082.8V5282.5h3.106v-4.958C4085.911,5276.271,4086.133,5274.973,4087.775,5274.973Zm-10.027-2.486V5282.5h3.109v-10.014Zm1.552-4.987a1.81,1.81,0,1,0,1.8,1.8A1.8,1.8,0,0,0,4079.3,5267.5Z" transform="translate(-4070 -5260)" fill="#889db1"/>
</svg>
