<svg xmlns="http://www.w3.org/2000/svg" width="155.554" height="34.5" viewBox="0 0 155.554 34.5">
  <g id="Group_160" data-name="Group 160" transform="translate(-139.446 -25.5)">
    <text id="HostRank" transform="translate(180 53)" fill="#fff" font-size="28" font-family="Amaranth-Regular, Amaranth"><tspan x="0" y="0">HostRank</tspan></text>
    <g id="shield-badge-with-outline" transform="translate(139.978 26)">
      <path id="Subtraction_3" data-name="Subtraction 3" d="M3944.981,5267.294c-.049,0-.1-.12-.194-.357l-.017-.043-.05-.123c-.879-2.141-3.789-3.431-6.871-4.8-3.156-1.4-6.419-2.844-7.321-5.292a5.082,5.082,0,0,1,.44-4.058,13.834,13.834,0,0,0,1.444-9.083,9.128,9.128,0,0,0-2.22-4.26.566.566,0,0,1-.024-.785l3.707-3.983a.773.773,0,0,1,.866-.146,9.252,9.252,0,0,0,4.086.874,15.98,15.98,0,0,0,5.647-1.156,1.4,1.4,0,0,1,.508-.085,1.423,1.423,0,0,1,.506.083,15.994,15.994,0,0,0,5.648,1.157,9.247,9.247,0,0,0,4.086-.874.729.729,0,0,1,.325-.071.75.75,0,0,1,.54.217l3.707,3.983a.568.568,0,0,1-.022.785,9.148,9.148,0,0,0-2.22,4.262,13.835,13.835,0,0,0,1.444,9.083,5.082,5.082,0,0,1,.441,4.059c-.9,2.447-4.166,3.893-7.321,5.291-3.083,1.366-5.994,2.655-6.873,4.8l-.05.121-.022.055C3945.076,5267.178,3945.03,5267.294,3944.981,5267.294Zm-6.812-28.735a.461.461,0,0,0-.347.15l-2.39,2.75a.413.413,0,0,0,.016.542,6.453,6.453,0,0,1,1.431,2.942,10.147,10.147,0,0,1-.931,6.269c-1.606,3.587,1.465,5.044,4.436,6.454,1.988.943,3.863,1.833,4.43,3.311l.037.1c.066.175.1.262.131.262s.063-.084.127-.253l.01-.024.031-.083c.567-1.477,2.442-2.367,4.428-3.31,2.973-1.411,6.045-2.868,4.438-6.455a10.147,10.147,0,0,1-.931-6.269,6.453,6.453,0,0,1,1.431-2.942.412.412,0,0,0,.014-.542l-2.39-2.75a.474.474,0,0,0-.557-.1,5.635,5.635,0,0,1-2.634.6,9.6,9.6,0,0,1-3.641-.8.856.856,0,0,0-.326-.059.87.87,0,0,0-.328.059,9.758,9.758,0,0,1-3.64.8,5.636,5.636,0,0,1-2.634-.6A.459.459,0,0,0,3938.169,5238.56Z" transform="translate(-3930 -5234)" fill="#fff" stroke="rgba(0,0,0,0)" stroke-miterlimit="10" stroke-width="1"/>
    </g>
  </g>
</svg>
