<svg xmlns="http://www.w3.org/2000/svg" xmlns:xlink="http://www.w3.org/1999/xlink" width="17" height="17" viewBox="0 0 17 17">
  <defs>
    <clipPath id="clip-path">
      <rect id="Rectangle_64" data-name="Rectangle 64" width="17" height="17" transform="translate(262 9961)" fill="#889db1"/>
    </clipPath>
  </defs>
  <g id="Mask_Group_30" data-name="Mask Group 30" transform="translate(-262 -9961)" clip-path="url(#clip-path)">
    <g id="phone" transform="translate(262 9961)">
      <path id="Path_267" data-name="Path 267" d="M12.218,17a4.736,4.736,0,0,1-1.625-.29A17.327,17.327,0,0,1,4.3,12.7,17.326,17.326,0,0,1,.29,6.407,4.7,4.7,0,0,1,.05,4.1,4.822,4.822,0,0,1,2.529.566,4.734,4.734,0,0,1,4.8,0a.531.531,0,0,1,.519.42l.834,3.891A.531.531,0,0,1,6,4.8L4.58,6.223a13.983,13.983,0,0,0,6.2,6.2L12.2,11a.532.532,0,0,1,.487-.144l3.891.834A.531.531,0,0,1,17,12.2a4.734,4.734,0,0,1-.566,2.267A4.822,4.822,0,0,1,12.9,16.95a4.725,4.725,0,0,1-.686.05ZM4.371,1.086A3.722,3.722,0,0,0,1.289,6.044a16.113,16.113,0,0,0,9.667,9.667,3.722,3.722,0,0,0,4.959-3.082l-3.165-.678-1.488,1.488a.531.531,0,0,1-.6.105,15.042,15.042,0,0,1-7.2-7.2.531.531,0,0,1,.105-.6L5.049,4.251Z" fill="#889db1"/>
    </g>
  </g>
</svg>
