<svg xmlns="http://www.w3.org/2000/svg" width="30" height="30" viewBox="0 0 30 30">
  <path id="Subtraction_7" data-name="Subtraction 7" d="M4085,5290a15,15,0,1,1,10.607-4.394A14.9,14.9,0,0,1,4085,5290Zm-7.5-10.286h0a8.755,8.755,0,0,0,13.469-7.373c0-.126,0-.256-.011-.4a6.113,6.113,0,0,0,1.542-1.6,6.385,6.385,0,0,1-1.772.486,3.058,3.058,0,0,0,1.353-1.7,6.139,6.139,0,0,1-1.95.744,3.074,3.074,0,0,0-5.318,2.1,3.152,3.152,0,0,0,.07.7,8.743,8.743,0,0,1-6.338-3.217,3.075,3.075,0,0,0,.945,4.109,3.059,3.059,0,0,1-1.39-.378v.035a3.1,3.1,0,0,0,2.464,3.021,3.091,3.091,0,0,1-.806.1,2.723,2.723,0,0,1-.583-.053,3.1,3.1,0,0,0,2.874,2.143,6.23,6.23,0,0,1-3.814,1.312A5.774,5.774,0,0,1,4077.5,5279.714Z" transform="translate(-4070 -5260)" fill="#889db1"/>
</svg>
