<svg xmlns="http://www.w3.org/2000/svg" width="30" height="30" viewBox="0 0 30 30">
  <path id="Subtraction_11" data-name="Subtraction 11" d="M4085,5290a15,15,0,1,1,10.607-4.394A14.9,14.9,0,0,1,4085,5290Zm-.016-20.262a45.746,45.746,0,0,0-5.868.309,1.923,1.923,0,0,0-1.323,1.334,21.193,21.193,0,0,0,0,7.215,1.881,1.881,0,0,0,1.323,1.322,44.17,44.17,0,0,0,5.868.321,45.768,45.768,0,0,0,5.869-.309,1.878,1.878,0,0,0,1.322-1.322,19.9,19.9,0,0,0,.309-3.607,18.59,18.59,0,0,0-.309-3.62,1.881,1.881,0,0,0-1.322-1.322A44.1,44.1,0,0,0,4084.983,5269.738Zm-1.493,7.5v-4.5l3.9,2.248-3.9,2.248Z" transform="translate(-4070 -5260)" fill="#889db1"/>
</svg>
